<svg width="847" height="525" viewBox="0 0 847 525" fill="none" xmlns="http://www.w3.org/2000/svg">
<path d="M817 0H30C13.4315 0 0 13.4315 0 30V495C0 511.569 13.4315 525 30 525H817C833.569 525 847 511.569 847 495V30C847 13.4315 833.569 0 817 0Z" fill="#2CAAFF"/>
<g opacity="0.5">
<path opacity="0.5" d="M847 495V187.23L832 191L820.06 183L816.89 173.47L806.56 167.9L810.56 149.63L814.56 148.04L818.56 140.09L837.63 135.32L836.83 125.79L834.45 120.23L824.91 112.23L816.09 98.8L800.2 97.21L789.07 100.39L774.77 90.85L770.77 95.62L789.84 116.28L780.3 158.4V170.32L792.22 178.32L793.81 187.85V205.85C793.813 206.53 793.567 207.188 793.12 207.7L785.3 216.83C784.985 217.195 784.769 217.636 784.672 218.108C784.576 218.581 784.603 219.07 784.75 219.53L786.95 226.53C787.088 226.979 787.114 227.456 787.024 227.918C786.934 228.379 786.732 228.812 786.436 229.177C786.139 229.542 785.757 229.828 785.323 230.01C784.89 230.192 784.418 230.264 783.95 230.22H783.67C782.972 230.141 782.328 229.808 781.862 229.284C781.395 228.76 781.138 228.082 781.14 227.38V224.33C781.139 223.669 780.909 223.03 780.49 222.519C780.07 222.009 779.487 221.659 778.84 221.53C778.33 221.425 777.859 221.184 777.477 220.831C777.094 220.479 776.815 220.029 776.67 219.53L775.16 214.53C775.04 214.134 774.836 213.769 774.562 213.46C774.287 213.151 773.949 212.905 773.57 212.74L762.41 207.86C762.182 207.761 761.944 207.69 761.7 207.65L753 206.27C752.604 206.211 752.201 206.234 751.815 206.339C751.43 206.444 751.07 206.628 750.76 206.88L739 216.41L731.85 228.33L718.34 230.71L717.55 238.66L705.63 244.22L699.27 261.7L712.78 278.39L716.78 289.51L710.42 295.08L704.07 292.69V298.26L698.5 301.43L694.5 293.49L674.64 285.54L669.87 289.54L666.69 287.16L669.07 279.21L645.23 271.27L642.05 272.06V280.8L637.29 284.8L651.59 304.66L664.3 305.46L668.3 317.38L664.3 321.38L665.89 331.71L653.18 333.3L650.8 327.74H640.48L622.2 317.33L619.81 307H607.1L600.74 294.28L603.13 284.75L599.13 272.03L598.34 256.14L597.63 246.85C597.568 246.161 597.7 245.469 598.01 244.85L599.9 241.08C600.154 240.564 600.286 239.996 600.286 239.42C600.286 238.844 600.154 238.276 599.9 237.76L590.1 217.47C589.761 216.762 589.208 216.178 588.52 215.8L573 207.33C572.453 207.031 571.989 206.602 571.65 206.08L560.54 189.08C560.345 188.788 560.113 188.522 559.85 188.29L549.85 179.62C549.2 179.06 548.761 178.294 548.606 177.45C548.451 176.606 548.59 175.735 548.998 174.981C549.407 174.226 550.061 173.634 550.853 173.303C551.644 172.972 552.525 172.921 553.35 173.16L559.14 174.81C559.864 175.014 560.511 175.428 561 176L572.17 189.26C572.687 189.876 573.388 190.31 574.17 190.5L585.83 193.24C586.245 193.34 586.64 193.509 587 193.74L596.65 199.95C597.248 200.33 597.941 200.534 598.65 200.54H602.65C603.445 200.543 604.219 200.798 604.86 201.27L620.26 212.47C620.968 212.979 621.829 213.23 622.7 213.18L634.02 212.51C634.573 212.478 635.126 212.57 635.64 212.78L662.64 223.59L667.4 221.21L685 224.35L698.5 219.59L717.58 210.05L722.34 198.13L727.91 196.54L735 175.88L726.26 161.58L727.05 153.58V148.81L712.75 129.74L707.19 131.33L691.37 119.47L691.21 119.36L675.54 109.2L675.33 109.07L666.11 104.07C665.469 103.719 664.978 103.147 664.73 102.46L661.46 93.31C661.251 92.7194 660.858 92.2112 660.34 91.86L617.87 62.84C617.297 62.4562 616.609 62.2814 615.922 62.3451C615.236 62.4089 614.592 62.7072 614.1 63.19L613.3 64C612.875 64.4186 612.335 64.7012 611.749 64.8116C611.163 64.922 610.557 64.8553 610.01 64.62L600.27 60.35C599.557 60.0372 598.994 59.4599 598.7 58.74L596.7 53.63C596.49 53.1198 596.144 52.6772 595.7 52.3508C595.255 52.0244 594.729 51.8269 594.18 51.78L588.5 51.34C587.741 51.29 586.993 51.5296 586.404 52.0103C585.816 52.4911 585.432 53.1771 585.33 53.93L585.15 55.41C585.068 56.014 584.804 56.5786 584.393 57.0288C583.982 57.479 583.444 57.7933 582.85 57.93L579.33 58.72C578.842 58.8247 578.337 58.8064 577.858 58.6668C577.38 58.5271 576.944 58.2704 576.59 57.92L574.84 56.17C574.51 55.8343 574.264 55.4259 574.122 54.9778C573.98 54.5296 573.944 54.0542 574.02 53.59L574.16 52.73C574.265 52.0537 574.136 51.3616 573.794 50.7686C573.452 50.1756 572.918 49.7174 572.28 49.47L556.6 43.61C555.864 43.3308 555.268 42.7742 554.94 42.06C554.711 41.5052 554.654 40.8946 554.777 40.3072C554.899 39.7198 555.194 39.1825 555.625 38.7648C556.056 38.347 556.602 38.068 557.193 37.9638C557.783 37.8595 558.392 37.9348 558.94 38.18L562.04 39.73C562.642 40.0249 563.326 40.1093 563.982 39.9697C564.639 39.8302 565.229 39.4746 565.66 38.96L569.24 34.58C569.496 34.2578 569.683 33.8863 569.789 33.4887C569.896 33.091 569.919 32.6758 569.858 32.2687C569.797 31.8616 569.653 31.4714 569.435 31.1224C569.217 30.7734 568.929 30.473 568.59 30.24L553.25 20C552.62 19.5826 551.855 19.4183 551.11 19.54L549.71 19.77C549.076 19.8835 548.496 20.1974 548.055 20.6656C547.614 21.1337 547.335 21.7312 547.26 22.37L546.84 26.09C546.758 26.871 546.374 27.5891 545.77 28.09L538 34.44L516.54 25.69L514.95 29.69L503 28.08L505.39 20.93L482.34 6.62L513.34 9.01L522.88 5.83L530 0H335.31V0.27L340.1 9.8L348.84 13.8L348.05 21.8L342.49 24.18L339.31 16.24L333.74 17.83L327.39 25.77L319.44 28.16L322.62 17.83L313.88 16.24C313.88 16.24 309.11 26.57 309.11 28.95C309.11 31.33 304.34 32.13 304.34 32.13L301.16 25.77V13L291.63 10.62L290.83 18.56L279.71 24.1L273.35 33.64L276.53 39.2L291.63 36V44.75L286.86 49.51L282.86 42.36L274.12 51.9L277.3 60.64L265.41 67L257.41 73.35L260.59 82.09L247.87 87.66L239.93 88.45L238.34 80.45L233.57 82.04L226.47 90C226.216 90.2776 225.907 90.4986 225.562 90.6485C225.218 90.7985 224.845 90.8739 224.47 90.87H222C221.647 90.87 221.297 90.9397 220.972 91.075C220.646 91.2103 220.35 91.4086 220.101 91.6585C219.852 91.9084 219.655 92.205 219.521 92.5313C219.387 92.8576 219.318 93.2072 219.32 93.56V97.56C219.321 98.1537 219.126 98.7312 218.764 99.2017C218.402 99.6723 217.894 100.009 217.32 100.16L203.55 103.6L203.36 103.66L194.36 106.66C194.039 106.772 193.698 106.816 193.36 106.79L182.58 106C182.147 105.973 181.715 106.05 181.318 106.224C180.922 106.398 180.573 106.664 180.3 107L168.58 122C168.358 122.284 168.196 122.609 168.103 122.957C168.01 123.305 167.988 123.668 168.038 124.025C168.089 124.381 168.21 124.724 168.396 125.032C168.582 125.341 168.828 125.609 169.12 125.82L173.47 128.99C174.041 129.404 174.751 129.578 175.449 129.473C176.147 129.369 176.776 128.994 177.2 128.43L185.84 117C186.058 116.709 186.333 116.466 186.648 116.285C186.963 116.104 187.312 115.988 187.673 115.946C188.034 115.904 188.4 115.936 188.748 116.04C189.097 116.144 189.42 116.317 189.7 116.55L191.55 118.1C192.033 118.501 192.641 118.72 193.27 118.72H200.86C201.385 118.718 201.899 118.563 202.338 118.274C202.777 117.984 203.121 117.573 203.33 117.09L204.55 114.23C204.695 113.891 204.908 113.586 205.177 113.333C205.445 113.08 205.763 112.885 206.11 112.76L215.27 109.49C215.837 109.295 216.453 109.295 217.02 109.49L219.57 110.35C219.982 110.486 220.42 110.52 220.848 110.451C221.277 110.381 221.682 110.209 222.03 109.95L229.9 104C230.253 103.738 230.665 103.566 231.1 103.5L240 102.1C240.492 102.021 240.953 101.806 241.33 101.48L245.56 97.86C246.047 97.4414 246.667 97.2108 247.31 97.21H260.73C261.365 97.2105 261.979 97.4357 262.464 97.8456C262.949 98.2556 263.273 98.8239 263.38 99.45L263.49 100.11C263.578 100.657 263.496 101.219 263.255 101.718C263.013 102.217 262.624 102.63 262.14 102.9L257.71 105.36C257.376 105.547 257.005 105.66 256.623 105.689C256.242 105.719 255.858 105.664 255.5 105.53L249.29 103.28C248.866 103.123 248.41 103.077 247.964 103.145C247.518 103.213 247.097 103.394 246.74 103.67L239.15 109.51C238.693 109.86 238.361 110.347 238.202 110.9C238.044 111.452 238.067 112.042 238.27 112.58L239.15 114.91C239.38 115.506 239.39 116.164 239.179 116.766C238.969 117.369 238.551 117.877 238 118.2L235 119.89C234.422 120.209 233.748 120.305 233.104 120.159C232.461 120.014 231.893 119.637 231.51 119.1L230.6 117.82C230.386 117.522 230.113 117.271 229.799 117.083C229.485 116.894 229.135 116.771 228.772 116.723C228.408 116.674 228.039 116.7 227.686 116.799C227.333 116.899 227.004 117.069 226.72 117.3L221.17 121.84C220.859 122.089 220.608 122.404 220.435 122.762C220.262 123.12 220.172 123.512 220.17 123.91V134.49C220.168 134.988 220.305 135.477 220.567 135.901C220.828 136.325 221.204 136.668 221.65 136.89C222.147 137.136 222.556 137.531 222.818 138.021C223.079 138.51 223.182 139.069 223.11 139.62L222.65 143.33C222.59 143.829 222.389 144.301 222.07 144.69L215.63 152.56C215.481 152.745 215.306 152.907 215.11 153.04L211.11 155.87C210.715 156.154 210.25 156.324 209.765 156.363C209.281 156.401 208.795 156.307 208.36 156.09C207.856 155.84 207.287 155.755 206.732 155.847C206.178 155.938 205.666 156.202 205.27 156.6L202.44 159.43C202.041 159.827 201.778 160.338 201.686 160.893C201.595 161.447 201.68 162.017 201.93 162.52L204.13 166.91C204.392 167.434 204.476 168.03 204.367 168.606C204.259 169.182 203.965 169.707 203.53 170.1L197.27 175.73C197.156 175.835 197.032 175.929 196.9 176.01L191.63 179.31C191.058 179.67 190.641 180.23 190.46 180.88L188.85 186.81C188.712 187.345 188.412 187.824 187.991 188.182C187.571 188.54 187.05 188.759 186.5 188.81L180.84 189.33C180.455 189.365 180.083 189.482 179.748 189.673C179.414 189.865 179.124 190.126 178.9 190.44L176.72 193.5C176.41 193.937 176.24 194.457 176.231 194.992C176.222 195.528 176.375 196.053 176.67 196.5L179.49 200.74C179.765 201.153 179.92 201.635 179.938 202.131C179.955 202.627 179.835 203.118 179.59 203.55L171.28 218C171 218.495 170.881 219.065 170.94 219.63L171.44 224.14C171.497 224.665 171.399 225.195 171.157 225.665C170.915 226.134 170.54 226.522 170.08 226.78L166.14 229C165.656 229.268 165.267 229.679 165.027 230.177C164.787 230.675 164.708 231.235 164.8 231.78L165.19 234.11C165.25 234.487 165.23 234.872 165.13 235.24L162.23 246.12C162.146 246.44 162.003 246.742 161.81 247.01L156.26 254.64C155.924 255.098 155.745 255.652 155.75 256.22V272H151.75L144.6 279.15L139.04 276.77H131.89V283.13L135.89 284.72L145.42 285.51V289.51L138.27 296.67H131.92L123.17 304.61L118.41 315.74L105.69 330.84L113.64 334.01V340.37L121.64 342.76L124 331.63L132.74 330.84L131.95 320.51H138.3L141.48 326.07L136.71 337.19L128.77 338.78V347.52L120 349.91L114.07 350.45C113.289 350.519 112.509 350.304 111.874 349.845C111.238 349.386 110.789 348.713 110.61 347.95L108.08 337.19L103.31 341.19L96.1596 346.75L85.2096 351.1C84.5689 351.359 84.0264 351.814 83.6596 352.4L81.2096 356.32C80.9188 356.79 80.5124 357.177 80.0292 357.445C79.5459 357.713 79.0021 357.852 78.4496 357.85H69.7196C68.901 357.85 68.1125 358.159 67.5119 358.715C66.9112 359.271 66.5426 360.034 66.4796 360.85L66.1396 364.58C66.0731 365.188 65.8372 365.765 65.4589 366.246C65.0806 366.727 64.575 367.092 63.9996 367.3L51.9996 371.65C51.5579 371.812 51.1564 372.068 50.8228 372.399C50.4892 372.731 50.2314 373.131 50.067 373.572C49.9026 374.013 49.8356 374.484 49.8706 374.953C49.9056 375.422 50.0417 375.878 50.2696 376.29L51.2696 378.06C51.5994 378.656 52.1075 379.134 52.7227 379.426C53.3379 379.718 54.0292 379.811 54.6996 379.69L60.9996 378.55C61.1146 378.523 61.2317 378.506 61.3496 378.5L68.8096 377.97C69.2553 377.937 69.703 377.996 70.1248 378.144C70.5465 378.292 70.9333 378.525 71.2608 378.829C71.5883 379.133 71.8496 379.502 72.0284 379.911C72.2071 380.321 72.2994 380.763 72.2996 381.21V382.69C72.3005 383.08 72.2293 383.466 72.0896 383.83L71.6896 384.91C71.4975 385.419 71.1809 385.872 70.7688 386.228C70.3567 386.583 69.8621 386.83 69.3302 386.945C68.7982 387.061 68.2459 387.041 67.7235 386.888C67.2011 386.735 66.7254 386.454 66.3396 386.07L65.2596 385C64.6879 384.411 63.9184 384.055 63.0996 384L47.5096 383.32C47.0558 383.309 46.6047 383.392 46.1847 383.564C45.7647 383.736 45.385 383.994 45.0696 384.32L40.6696 388.73C40.5741 388.825 40.484 388.925 40.3996 389.03L36.3996 394.21C35.9873 394.74 35.4207 395.13 34.7778 395.325C34.1349 395.521 33.4473 395.512 32.8096 395.3L32.2296 395.11C31.6325 394.908 30.9893 394.885 30.3795 395.045C29.7698 395.205 29.2205 395.541 28.7996 396.01L22.9996 402.28C22.5002 402.832 22.2039 403.537 22.1596 404.28L21.5696 416.7C21.5286 417.535 21.1684 418.322 20.5636 418.899C19.9588 419.476 19.1554 419.798 18.3196 419.8C17.892 419.799 17.4683 419.882 17.0728 420.045C16.6773 420.207 16.3179 420.446 16.015 420.748C15.7122 421.05 15.4719 421.409 15.3079 421.804C15.144 422.199 15.0596 422.622 15.0596 423.05V428.77C15.0622 429.411 15.2532 430.037 15.6088 430.571C15.9643 431.104 16.4689 431.521 17.0596 431.77L18.6696 432.46C19.2619 432.707 19.7678 433.123 20.1238 433.657C20.4797 434.191 20.6696 434.818 20.6696 435.46V440.59C20.6687 441.254 20.4653 441.901 20.0865 442.446C19.7076 442.991 19.1714 443.408 18.5496 443.64L17.0896 444.19C16.329 444.475 15.7023 445.034 15.3324 445.758C14.9624 446.481 14.8758 447.316 15.0896 448.1L16.6296 453.74C16.6724 453.897 16.7259 454.05 16.7896 454.2L19.1196 459.45C19.3495 459.961 19.4428 460.522 19.3902 461.08C19.3376 461.637 19.141 462.171 18.8196 462.63L14.8996 468.23C14.5133 468.777 14.3071 469.43 14.3096 470.1V475.5C14.3106 475.977 14.4158 476.448 14.6179 476.879C14.82 477.311 15.1141 477.694 15.4796 478L17.8796 480C18.2533 480.31 18.6913 480.532 19.1618 480.652C19.6323 480.771 20.1234 480.784 20.5996 480.69L23.5396 480.1C23.9867 480.014 24.4467 480.023 24.8903 480.126C25.3338 480.228 25.7511 480.422 26.1154 480.695C26.4797 480.968 26.783 481.314 27.0058 481.711C27.2287 482.108 27.3662 482.547 27.4096 483L27.6796 485.45C27.7624 486.21 27.5748 486.975 27.1496 487.61L22.9996 493.74V504.86L18.9996 508.86L22.9996 517.6L30.9996 514.42L34.9996 519.19L29.4396 523.19V525H30.0396H120.45L117.64 508.84H123.2L124 513.6L129.56 521.55L128.92 525H277.05L282.89 519.17L276.53 513.6L280.53 508.84L293.25 512.84L297.25 503.3L291.69 492.97L277.39 472.31L266.26 468.31H262.26L251.9 458L253.49 425.42L256.66 429.42L261.43 425.42L253.49 413.5L263 400.76L257.44 392.82L259.82 389.64L267.82 390.43L274.18 384.08L275.77 371.36L282.92 357.06L291.66 361.83L293.25 349.91L304.34 338L318.65 336.41L337.72 308.6L339.31 301.44L336.92 291.11L331.36 284.76L335.36 277.6L340.13 274.43L339.34 268.86L343.34 261.71L348.11 256.15L357.64 251.38L352.88 239.46L356.88 233.9L366.41 236.28L383.9 238.67L395.82 236.28L463.36 265.69L461.68 469.9L475.19 465.9L483.14 469.08L484.73 476.23L482.34 483.39L492.67 489L499.82 487.41L511.74 489.79L510.15 496.15L503 497.71L497.44 495.33H487.11L481.55 504.86L475.19 501.68L468 506.45L468.79 515.19L456.87 516.78L452.87 512.78L410.75 511.19L384.53 517.55L378.41 525H817C824.956 525 832.587 521.839 838.213 516.213C843.839 510.587 847 502.956 847 495Z" fill="white"/>
</g>
<path d="M565.24 460.93L560.08 450.61L557.25 445.41C556.856 444.69 556.212 444.138 555.44 443.86L545.63 440.29C545.132 440.109 544.684 439.812 544.322 439.425C543.961 439.037 543.696 438.569 543.55 438.06L542 432.72C541.806 432.041 541.404 431.439 540.85 431L533.85 425.48L533.54 425.26L528.54 422.17C527.895 421.772 527.135 421.602 526.382 421.689C525.629 421.776 524.927 422.115 524.39 422.65L521.52 425.53C521.205 425.839 520.954 426.208 520.783 426.615C520.611 427.022 520.522 427.458 520.52 427.9V429.62C520.52 430.37 520.269 431.098 519.807 431.689C519.344 432.28 518.698 432.699 517.97 432.88L516.18 433.33C515.453 433.512 514.807 433.932 514.346 434.522C513.884 435.113 513.632 435.84 513.63 436.59V438.2C513.628 438.823 513.453 439.433 513.124 439.963C512.796 440.493 512.327 440.921 511.77 441.2L510.71 441.73C510.246 441.961 509.841 442.296 509.528 442.709C509.214 443.122 509.001 443.602 508.904 444.112C508.807 444.621 508.829 445.146 508.969 445.645C509.109 446.145 509.363 446.605 509.71 446.99L516.59 454.6C516.918 454.962 517.164 455.391 517.309 455.857C517.454 456.323 517.495 456.816 517.43 457.3L516.77 462.24C516.689 462.875 516.79 463.521 517.061 464.101C517.331 464.682 517.761 465.174 518.3 465.52L521.48 467.52C521.894 467.782 522.246 468.132 522.511 468.545C522.775 468.958 522.945 469.424 523.01 469.91L524.19 478.58C524.289 479.28 524.604 479.931 525.092 480.442C525.58 480.953 526.216 481.299 526.91 481.43L530.41 482.09C531.283 482.253 532.055 482.754 532.559 483.485C533.063 484.216 533.258 485.116 533.1 485.99C532.952 486.816 533.116 487.668 533.562 488.38C534.007 489.092 534.702 489.612 535.51 489.84L542.21 491.7C542.653 491.82 543.115 491.85 543.57 491.79L552.99 490.5C553.714 490.403 554.386 490.071 554.904 489.557C555.422 489.042 555.758 488.373 555.86 487.65L556.36 484.13C556.447 483.527 556.696 482.958 557.079 482.485C557.463 482.011 557.968 481.65 558.54 481.44L559.8 480.98C560.637 480.674 561.318 480.047 561.693 479.239C562.068 478.431 562.106 477.507 561.8 476.67L561.33 475.37C561.124 474.81 561.07 474.206 561.176 473.618C561.281 473.031 561.542 472.483 561.93 472.03L566.09 467.19C566.521 466.686 566.793 466.066 566.873 465.408C566.953 464.75 566.837 464.083 566.54 463.49L565.24 460.93Z" fill="#2CAAFF"/>
<path d="M607.13 338.16L603.68 334.72L599.67 332.42V324.96L595.65 326.69L596.8 333H593.36V335.29L597.95 339.88L596.8 345.62L601.96 347.91L616.3 352.5L617.45 347.34L607.7 344.47L607.13 338.16Z" fill="#2CAAFF"/>
<path d="M633.74 433.33L634.87 432.42C635.13 432.214 635.306 431.921 635.365 431.595C635.423 431.27 635.361 430.933 635.19 430.65L620.19 406.07C620.049 405.837 619.981 405.567 619.993 405.294C620.006 405.022 620.099 404.76 620.26 404.54L622.77 401.19C622.889 401.034 622.973 400.854 623.016 400.662C623.059 400.471 623.06 400.272 623.02 400.08L620.41 388.08C620.369 387.891 620.288 387.713 620.172 387.558C620.057 387.402 619.909 387.274 619.74 387.18L606.14 379.56C606.007 379.481 605.886 379.383 605.78 379.27L598.67 371.21C598.522 371.042 598.335 370.914 598.126 370.836C597.917 370.758 597.692 370.732 597.47 370.762C597.249 370.792 597.038 370.875 596.857 371.006C596.675 371.136 596.529 371.309 596.43 371.51L596.01 372.34C595.891 372.576 595.843 372.841 595.872 373.104C595.9 373.366 596.004 373.615 596.17 373.82L600.32 378.89C600.461 379.06 600.558 379.262 600.603 379.478C600.649 379.694 600.641 379.918 600.58 380.13L599.95 382.34C599.861 382.652 599.886 382.987 600.022 383.282C600.158 383.577 600.395 383.814 600.69 383.95L614 390.1C614.182 390.185 614.343 390.309 614.473 390.463C614.602 390.616 614.697 390.796 614.75 390.99L617.24 400.46C617.304 400.703 617.298 400.959 617.224 401.2C617.15 401.44 617.01 401.655 616.82 401.82L613.44 404.82C613.296 404.943 613.128 405.034 612.947 405.089C612.766 405.144 612.576 405.161 612.388 405.138C612.2 405.116 612.019 405.054 611.855 404.958C611.692 404.862 611.551 404.733 611.44 404.58L608.86 401C608.69 400.761 608.447 400.583 608.169 400.491C607.89 400.4 607.589 400.399 607.31 400.49L606.53 400.75C606.33 400.816 606.148 400.928 605.998 401.076C605.848 401.224 605.734 401.405 605.665 401.604C605.597 401.804 605.575 402.016 605.602 402.225C605.629 402.434 605.703 402.634 605.82 402.81L612 412C612.213 412.283 612.306 412.639 612.261 412.99C612.216 413.341 612.035 413.661 611.758 413.882C611.48 414.102 611.127 414.205 610.775 414.169C610.422 414.133 610.098 413.961 609.87 413.69L602.59 406C602.403 405.803 602.162 405.665 601.897 405.605C601.631 405.544 601.354 405.564 601.1 405.66L595.43 407.85C595.161 407.953 594.932 408.137 594.774 408.378C594.616 408.618 594.538 408.902 594.55 409.19L595.06 419.28C595.073 419.537 595.156 419.786 595.3 420L602.84 430.77C603.013 431.017 603.263 431.199 603.55 431.29L613.55 434.46C613.821 434.546 614.059 434.713 614.23 434.94L620.39 443.15C620.532 443.34 620.622 443.563 620.652 443.798C620.682 444.032 620.65 444.271 620.56 444.49L617.42 452.11C617.347 452.288 617.312 452.479 617.317 452.671C617.323 452.863 617.37 453.052 617.454 453.225C617.538 453.398 617.658 453.551 617.805 453.674C617.953 453.798 618.125 453.888 618.31 453.94L620.26 454.5C620.446 454.554 620.641 454.567 620.832 454.54C621.024 454.512 621.207 454.444 621.37 454.34C623.95 452.67 635.26 445.34 635.77 443.77C636.22 442.41 634.18 437.13 633.29 434.96C633.17 434.677 633.149 434.362 633.231 434.066C633.313 433.771 633.492 433.511 633.74 433.33V433.33Z" fill="#2CAAFF"/>
<path d="M534.07 357.8L516.73 347.23L509.12 336.23V331.57L513.77 330.3L518.84 317.2L517.15 310.43L509.15 304.93L506.61 295.21C506.61 295.21 510.84 294.36 509.99 290.98C509.14 287.6 509.57 286.32 509.57 286.32L501.57 285.9L499.45 272.79L505.37 271.95L505.8 268.56L502.8 261.8L504.07 255.45L505.77 250.38L503.65 245.73L506.65 244.88L510.88 243.61L508.34 222.05L488 182.31L505.77 151.86L508.77 149.74L509.61 144.67L502 138.75L494.81 123.1L482.55 116.76L477.4 98.1501L486.28 81.2401L478.28 80.8101L476.59 77.8101L487.16 72.7401L487.58 69.7401L484.58 68.4701L483.31 62.9701L494.73 47.3301L490.92 33.7901L476.12 26.6001L475.28 22.3801L469.36 18.9901L468.51 11.8001C468.51 11.8001 460.9 11.3801 459.63 11.3801C458.36 11.3801 456.25 19.3801 456.25 19.3801L449.9 22.7701L448.64 18.9601L439.76 17.6901L427.08 32.6001L429.62 37.2601L426.62 40.2601V49.5601L422.39 72.8201L423.23 79.5801L418.16 78.7401L411 85.8901L410.15 93.8901L405.08 96.4301L402.54 91.3601L390.28 86.7001L388.59 82.0501L383.09 82.9001L382.67 89.2401L372.52 93.8901L371.25 91.3601L363.64 90.0901L361.52 87.5501L356.87 87.1301L357.29 80.7801L341.65 55.7801L334 54.5901L327.66 61.3601L329.77 68.5501L323.43 65.5501L319.63 69.3601L326.39 73.1601L326.81 78.2401L340.35 88.8101L342.46 94.3101L347.58 96.0001L350.11 101.07L359 102L370 110L371.27 118.46L380.57 124.38L382.26 130.72L379.73 133.72V143.45L375.5 148.52L376.34 153.6L383.53 156.98V163.75L379.3 164.17L380.57 170.51L388.57 189.12C387.201 190.759 386.451 192.825 386.45 194.96V196.69C386.438 198.109 386.096 199.506 385.45 200.77L383.45 204.88C382.653 206.461 382.336 208.241 382.54 210L383.06 214.47C383.198 215.683 383.578 216.855 384.18 217.917C384.781 218.979 385.591 219.908 386.56 220.65L387.3 221.22C388.419 222.081 389.322 223.191 389.94 224.46L394.99 234.86C395.463 235.83 396.106 236.708 396.89 237.45L402.43 242.77C403.059 243.37 403.769 243.879 404.54 244.28L410.54 247.37C411.86 248.051 412.994 249.045 413.841 250.265C414.688 251.486 415.223 252.895 415.4 254.37L415.5 255.18C415.62 256.223 415.559 257.278 415.32 258.3L414.41 262.3L413.57 269.91L416.95 275.83L414.41 277.95L417.79 281.33L414.41 283.45L411.41 281.33L400.41 283.45C400.41 283.45 398.29 290.21 398.29 291.45C398.108 293.297 397.827 295.133 397.45 296.95L391.1 300.33L390.68 305.83L382.22 312.59L381.38 320.21L375.46 326.55L369.54 329.09L367.42 327.39L364.42 329.09L363.15 336.7L355.42 345.6C355.202 345.854 355.052 346.158 354.982 346.484C354.912 346.811 354.925 347.15 355.02 347.47L356.02 350.71C356.129 351.072 356.134 351.458 356.033 351.823C355.932 352.187 355.73 352.516 355.45 352.77L353.12 354.84C352.78 355.143 352.345 355.316 351.89 355.33L342.99 355.71C342.632 355.72 342.284 355.835 341.99 356.04L341.36 356.45C340.963 356.721 340.677 357.126 340.554 357.59C340.431 358.055 340.479 358.548 340.69 358.98L342.34 362.28C342.492 362.598 342.557 362.95 342.529 363.302C342.501 363.653 342.38 363.99 342.18 364.28L338.87 368.92C338.723 369.125 338.54 369.301 338.33 369.44L333.72 372.44C333.421 372.636 333.18 372.907 333.022 373.227C332.863 373.547 332.794 373.904 332.82 374.26L333.56 383.53C333.565 383.61 333.565 383.69 333.56 383.77L333.17 393.4C333.153 393.925 333.344 394.435 333.7 394.82L337.97 399.42C338.177 399.645 338.329 399.914 338.416 400.207C338.503 400.5 338.521 400.809 338.47 401.11L337.02 409.41C336.97 409.714 336.99 410.025 337.08 410.32L342 426.41C342.131 426.856 342.102 427.333 341.92 427.76C341.738 428.187 341.412 428.537 341 428.75C340.685 428.91 340.418 429.151 340.227 429.448C340.036 429.745 339.926 430.087 339.91 430.44L339.54 440.89C339.531 441.039 339.508 441.186 339.47 441.33L337.91 447.17C337.868 447.358 337.794 447.538 337.69 447.7L335.09 451.93C334.905 452.24 334.807 452.594 334.807 452.955C334.807 453.316 334.905 453.67 335.09 453.98L336.63 456.55C336.876 456.958 336.968 457.44 336.89 457.91L335.94 463.25C335.883 463.59 335.914 463.939 336.032 464.263C336.149 464.587 336.348 464.876 336.61 465.1L341.1 468.9C341.194 468.983 341.281 469.073 341.36 469.17L342.36 470.48C342.524 470.689 342.644 470.928 342.715 471.184C342.785 471.44 342.804 471.707 342.77 471.97L342.24 475.97C342.188 476.405 342.28 476.845 342.502 477.223C342.724 477.6 343.064 477.895 343.47 478.06L343.79 478.19C344.077 478.299 344.385 478.341 344.691 478.311C344.996 478.282 345.291 478.183 345.552 478.021C345.813 477.86 346.033 477.64 346.196 477.38C346.359 477.12 346.459 476.826 346.49 476.52L346.58 475.4C346.616 475.015 346.762 474.649 347.002 474.345C347.241 474.042 347.564 473.814 347.93 473.69L349.93 473.04C350.327 472.913 350.753 472.913 351.15 473.04L357.48 475.04C357.81 475.148 358.107 475.341 358.34 475.599C358.573 475.857 358.735 476.171 358.81 476.51L359.36 479.09C359.423 479.364 359.543 479.622 359.712 479.847C359.882 480.071 360.097 480.258 360.343 480.394C360.589 480.529 360.862 480.612 361.142 480.635C361.422 480.659 361.704 480.623 361.97 480.53L364.08 479.76C364.349 479.664 364.635 479.626 364.92 479.65L366.92 479.81C367.227 479.84 367.522 479.941 367.783 480.104C368.045 480.267 368.265 480.489 368.427 480.751C368.588 481.014 368.687 481.31 368.715 481.617C368.744 481.923 368.701 482.233 368.59 482.52L367 486.36L370.8 490.17L371.23 494.82L377.57 494.39L387.75 491L394.94 490.16L399.59 491.42L401.71 487.2L411.85 486.77L413.55 483.77L427.92 479.12L437.23 475.31L446.95 471.51L454.57 470.66L461.68 469.85L481.21 453.75L483.75 451.63L482.9 447.4L488.4 443.6L522.65 400.89L529.42 397.08L538.72 370.86L534.49 363.25L534.07 357.8Z" fill="white"/>
<path d="M371.26 496.16C370.924 496.161 370.6 496.037 370.352 495.811C370.104 495.585 369.95 495.274 369.92 494.94L369.54 490.77L366.08 487.31C365.893 487.125 365.764 486.888 365.711 486.63C365.658 486.372 365.682 486.105 365.78 485.86L367.32 482C367.361 481.909 367.379 481.808 367.37 481.708C367.361 481.609 367.326 481.513 367.27 481.43C367.22 481.346 367.15 481.275 367.066 481.224C366.982 481.174 366.887 481.145 366.79 481.14L364.79 480.97C364.704 480.955 364.616 480.955 364.53 480.97L362.41 481.74C361.963 481.898 361.488 481.96 361.016 481.922C360.544 481.884 360.085 481.747 359.67 481.52C359.254 481.291 358.892 480.975 358.609 480.594C358.326 480.212 358.128 479.775 358.03 479.31L357.48 476.73C357.455 476.621 357.403 476.52 357.327 476.438C357.252 476.355 357.156 476.294 357.05 476.26L350.72 474.26C350.593 474.22 350.456 474.22 350.33 474.26L348.33 474.91C348.213 474.951 348.111 475.025 348.034 475.122C347.958 475.22 347.912 475.337 347.9 475.46L347.81 476.57C347.767 477.088 347.603 477.588 347.332 478.031C347.061 478.474 346.69 478.847 346.248 479.12C345.807 479.393 345.307 479.559 344.79 479.604C344.273 479.649 343.752 479.573 343.27 479.38L342.95 479.25C342.262 478.978 341.686 478.483 341.313 477.845C340.94 477.207 340.791 476.463 340.89 475.73L341.42 471.73C341.438 471.563 341.391 471.394 341.29 471.26L340.3 470L340.22 469.92L335.73 466.12C335.287 465.745 334.95 465.261 334.754 464.715C334.557 464.169 334.507 463.581 334.61 463.01L335.55 457.66C335.579 457.512 335.55 457.358 335.47 457.23L333.93 454.66C333.613 454.14 333.446 453.544 333.446 452.935C333.446 452.327 333.613 451.73 333.93 451.21L336.53 446.98C336.563 446.932 336.587 446.877 336.6 446.82L338.16 440.97C338.164 440.924 338.164 440.877 338.16 440.83L338.54 430.38C338.559 429.784 338.739 429.204 339.061 428.702C339.383 428.201 339.835 427.795 340.37 427.53C340.502 427.465 340.608 427.355 340.666 427.219C340.725 427.084 340.733 426.931 340.69 426.79L335.81 410.65C335.66 410.151 335.629 409.623 335.72 409.11L337.16 400.82C337.177 400.724 337.172 400.625 337.144 400.531C337.117 400.437 337.067 400.351 337 400.28L332.73 395.68C332.431 395.361 332.199 394.984 332.048 394.574C331.897 394.164 331.83 393.727 331.85 393.29L332.23 383.65L331.49 374.3C331.441 373.701 331.555 373.1 331.821 372.561C332.087 372.022 332.495 371.566 333 371.24L337.61 368.24C337.675 368.197 337.733 368.143 337.78 368.08L341.1 363.43C341.164 363.337 341.202 363.229 341.211 363.117C341.219 363.004 341.198 362.892 341.15 362.79L339.5 359.49C339.139 358.765 339.055 357.934 339.263 357.152C339.471 356.37 339.957 355.69 340.63 355.24L341.25 354.82C341.759 354.485 342.35 354.295 342.96 354.27L351.85 353.9C351.994 353.894 352.132 353.837 352.24 353.74L354.57 351.67C354.662 351.59 354.729 351.485 354.762 351.368C354.796 351.251 354.795 351.127 354.76 351.01L353.76 347.78C353.592 347.24 353.566 346.666 353.683 346.113C353.8 345.56 354.057 345.046 354.43 344.62L361.92 336.01L363.12 328.77C363.154 328.575 363.231 328.389 363.345 328.227C363.459 328.065 363.608 327.929 363.78 327.83L366.78 326.14C367.013 326.005 367.282 325.944 367.551 325.964C367.821 325.983 368.078 326.083 368.29 326.25L369.78 327.44L374.7 325.33L380.12 319.52L380.91 312.36C380.95 312.003 381.13 311.676 381.41 311.45L389.41 305.05L389.79 300.14C389.807 299.914 389.882 299.695 390.006 299.505C390.13 299.314 390.3 299.158 390.5 299.05L396.28 295.97C396.601 294.448 396.835 292.909 396.98 291.36C396.98 289.99 398.64 284.56 399.15 282.92C399.223 282.694 399.353 282.49 399.529 282.328C399.704 282.167 399.918 282.054 400.15 282L411.15 279.89C411.499 279.828 411.859 279.907 412.15 280.11L414.38 281.71L415.57 280.97L413.38 278.78C413.247 278.647 413.143 278.487 413.076 278.312C413.008 278.136 412.977 277.948 412.986 277.76C412.994 277.572 413.041 277.388 413.125 277.219C413.208 277.051 413.325 276.901 413.47 276.78L415.14 275.39L412.32 270.45C412.179 270.201 412.119 269.914 412.15 269.63L412.99 262.02V261.87L413.9 257.87C414.099 257.002 414.15 256.106 414.05 255.22L413.95 254.41C413.803 253.148 413.349 251.941 412.627 250.894C411.905 249.848 410.938 248.995 409.81 248.41L403.81 245.32C402.925 244.86 402.111 244.278 401.39 243.59L396 238.38C395.108 237.514 394.373 236.498 393.83 235.38L388.75 225C388.218 223.922 387.449 222.978 386.5 222.24L385.76 221.67C384.654 220.812 383.731 219.742 383.044 218.523C382.357 217.304 381.921 215.96 381.76 214.57L381.25 210.11C381.001 208.091 381.349 206.044 382.25 204.22L384.3 200.12C384.841 199.04 385.122 197.848 385.12 196.64V194.91C385.13 192.761 385.8 190.666 387.04 188.91L379.32 171C379.288 170.912 379.262 170.821 379.24 170.73L378 164.39C377.963 164.205 377.966 164.014 378.007 163.83C378.048 163.646 378.127 163.472 378.24 163.32C378.358 163.164 378.509 163.035 378.681 162.942C378.854 162.849 379.044 162.794 379.24 162.78L382.24 162.48V157.79L375.83 154.79C375.632 154.696 375.46 154.556 375.328 154.382C375.196 154.208 375.107 154.005 375.07 153.79L374.23 148.72C374.196 148.528 374.204 148.331 374.254 148.143C374.304 147.955 374.395 147.78 374.52 147.63L378.44 142.93V133.69C378.438 133.371 378.551 133.062 378.76 132.82L380.84 130.4L379.47 125.24L370.6 119.61C370.439 119.505 370.302 119.366 370.199 119.204C370.095 119.042 370.027 118.86 370 118.67L368.81 110.77L358.57 103.28L350.06 102.47C349.831 102.45 349.611 102.372 349.422 102.242C349.233 102.113 349.081 101.936 348.98 101.73L346.69 97.1601L342.15 95.6401C341.96 95.5792 341.786 95.4767 341.64 95.3401C341.495 95.2034 341.382 95.036 341.31 94.8501L339.31 89.7001L326 79.3401C325.845 79.2212 325.719 79.0701 325.629 78.8974C325.54 78.7247 325.488 78.5345 325.48 78.3401L325.15 74.0001L319 70.5701C318.816 70.4678 318.659 70.3241 318.541 70.1505C318.423 69.9769 318.347 69.7782 318.32 69.5701C318.292 69.3637 318.312 69.1537 318.378 68.9562C318.444 68.7587 318.554 68.5787 318.7 68.4301L322.51 64.6301C322.705 64.4351 322.955 64.3047 323.227 64.2564C323.499 64.2081 323.779 64.2443 324.03 64.3601L327.67 66.0601L326.4 61.7301C326.331 61.5054 326.323 61.2665 326.378 61.038C326.432 60.8094 326.547 60.5996 326.71 60.4301L333.05 53.6601C333.202 53.4975 333.392 53.3756 333.604 53.3057C333.815 53.2358 334.041 53.2201 334.26 53.2601L341.87 54.5201C342.057 54.5542 342.236 54.6268 342.395 54.7336C342.553 54.8403 342.687 54.9787 342.79 55.1401L358.44 80.1001C358.592 80.3379 358.666 80.6179 358.65 80.9001L358.31 85.9001L361.65 86.2101C361.827 86.2244 362 86.2742 362.158 86.3567C362.316 86.4391 362.456 86.5525 362.57 86.6901L364.36 88.8401L371.48 90.0301C371.691 90.0621 371.893 90.1441 372.067 90.2693C372.24 90.3945 372.382 90.5593 372.48 90.7501L373.17 92.1301L381.4 88.3501L381.77 82.8101C381.791 82.5048 381.915 82.2158 382.122 81.9905C382.33 81.7652 382.607 81.6169 382.91 81.5701L388.41 80.7201C388.717 80.6734 389.032 80.7345 389.3 80.893C389.568 81.0516 389.772 81.2978 389.88 81.5901L391.36 85.6601L403 90.1301C403.315 90.2496 403.574 90.481 403.73 90.7801L405.66 94.6501L408.87 93.0501L409.64 85.7501C409.669 85.4423 409.807 85.1551 410.03 84.9401L417.22 77.7501C417.37 77.5972 417.554 77.4828 417.758 77.4167C417.962 77.3505 418.178 77.3345 418.39 77.3701L421.68 77.9201L421.06 72.9201C421.039 72.7842 421.039 72.646 421.06 72.5101L425.27 49.3701V40.2201C425.264 40.0358 425.296 39.8524 425.363 39.6806C425.43 39.5089 425.531 39.3523 425.66 39.2201L428 37.0001L425.95 33.2301C425.817 32.991 425.761 32.7168 425.789 32.4448C425.818 32.1728 425.93 31.9163 426.11 31.7101L438.79 16.9101C438.938 16.7366 439.127 16.6035 439.34 16.523C439.554 16.4426 439.784 16.4175 440.01 16.4501L448.89 17.7201C449.137 17.7551 449.369 17.859 449.56 18.0199C449.751 18.1808 449.893 18.3923 449.97 18.6301L450.74 20.9201L455.16 18.5601C457.45 10.0901 458.9 10.0901 459.69 10.0901C460.98 10.0901 468.33 10.5001 468.69 10.5201C469.006 10.539 469.305 10.6686 469.536 10.8862C469.766 11.1038 469.913 11.3954 469.95 11.7101L470.72 18.2201L476 21.2901C476.165 21.3864 476.308 21.5163 476.42 21.6713C476.532 21.8263 476.61 22.003 476.65 22.1901L477.36 25.7601L491.56 32.6601C491.732 32.743 491.884 32.8617 492.007 33.0083C492.129 33.1549 492.219 33.326 492.27 33.5101L496 47.0001C496.054 47.1968 496.063 47.4032 496.027 47.604C495.99 47.8048 495.909 47.9949 495.79 48.1601L484.77 63.3501L485.77 67.5801L488.1 68.5801C488.372 68.6963 488.599 68.8998 488.744 69.1586C488.888 69.4173 488.943 69.7168 488.9 70.0101L488.48 73.0101C488.447 73.2258 488.361 73.43 488.23 73.6045C488.1 73.779 487.927 73.9184 487.73 74.0101L478.46 78.4601L479.07 79.5301L486.37 79.9101C486.599 79.9207 486.821 79.9895 487.017 80.1101C487.212 80.2306 487.373 80.3989 487.485 80.599C487.597 80.7992 487.656 81.0246 487.657 81.254C487.658 81.4834 487.6 81.7092 487.49 81.9101L478.86 98.3601L483.64 115.88L495.38 121.96C495.648 122.093 495.86 122.316 495.98 122.59L503 137.89L510.35 143.61C510.541 143.758 510.688 143.956 510.776 144.181C510.864 144.406 510.89 144.651 510.85 144.89L510 150C509.941 150.35 509.747 150.662 509.46 150.87L506.73 152.82L489.49 182.38L509.49 221.47C509.56 221.615 509.607 221.77 509.63 221.93L512.17 243.5C512.204 243.813 512.128 244.129 511.955 244.392C511.781 244.655 511.521 244.849 511.22 244.94L505.51 246.63L506.98 249.86C507.124 250.175 507.142 250.533 507.03 250.86L505.37 255.86L504.2 261.71L507 268C507.097 268.223 507.131 268.469 507.1 268.71L506.68 272.09C506.641 272.384 506.508 272.657 506.301 272.868C506.093 273.079 505.822 273.217 505.53 273.26L500.97 273.91L502.69 284.59L509.64 284.96C509.846 284.973 510.046 285.033 510.226 285.135C510.406 285.237 510.56 285.379 510.676 285.55C510.793 285.721 510.869 285.915 510.899 286.12C510.929 286.325 510.912 286.533 510.85 286.73C510.74 288.047 510.893 289.373 511.3 290.63C511.458 291.196 511.497 291.789 511.415 292.371C511.332 292.952 511.129 293.511 510.82 294.01C510.181 294.94 509.279 295.657 508.23 296.07L510.32 304.07L517.94 309.29C518.216 309.47 518.413 309.749 518.49 310.07L520.18 316.84C520.264 317.103 520.264 317.387 520.18 317.65L515 330.8C514.923 330.997 514.8 331.174 514.642 331.314C514.484 331.455 514.294 331.557 514.09 331.61L510.43 332.61V335.81L517.64 346.23L534.74 356.65C534.922 356.762 535.075 356.915 535.186 357.098C535.297 357.281 535.364 357.487 535.38 357.7L535.78 362.9L539.87 370.26C539.962 370.426 540.019 370.611 540.034 370.8C540.05 370.99 540.024 371.181 539.96 371.36L530.66 397.58C530.55 397.888 530.334 398.147 530.05 398.31L523.54 402L489.45 444.51C489.365 444.613 489.268 444.703 489.16 444.78L484.39 448.08L485.07 451.44C485.115 451.678 485.096 451.924 485.015 452.152C484.934 452.381 484.794 452.583 484.61 452.74L482.07 454.85L462.54 470.96C462.338 471.122 462.096 471.226 461.84 471.26L447.28 472.9L437.72 476.64L428.43 480.44H428.34L414.46 484.93L413 487.45C412.887 487.648 412.726 487.814 412.532 487.933C412.338 488.052 412.117 488.12 411.89 488.13L402.54 488.52L400.8 492C400.659 492.277 400.427 492.497 400.142 492.623C399.858 492.748 399.539 492.772 399.24 492.69L394.84 491.49L388.04 492.29L378.04 495.63C377.93 495.669 377.816 495.692 377.7 495.7L371.36 496.12L371.26 496.16ZM368.61 486L371.79 489.17C372.009 489.395 372.146 489.687 372.18 490L372.48 493.35L377.34 493.02L387.34 489.69C387.427 489.661 387.518 489.641 387.61 489.63L394.8 488.79C394.968 488.755 395.141 488.755 395.31 488.79L398.9 489.79L400.52 486.55C400.627 486.335 400.791 486.153 400.993 486.022C401.195 485.892 401.429 485.819 401.67 485.81L411.07 485.42L412.4 483.1C412.562 482.808 412.83 482.589 413.15 482.49L427.48 477.85L436.74 474.07L446.48 470.26C446.59 470.21 446.709 470.18 446.83 470.17L461.15 468.55L482.29 451.11L481.6 447.67C481.546 447.413 481.569 447.146 481.667 446.902C481.765 446.658 481.933 446.449 482.15 446.3L487.49 442.6L521.62 400.04C521.73 399.909 521.862 399.798 522.01 399.71L528.34 396.16L537.25 371L533.31 364C533.216 363.831 533.161 363.643 533.15 363.45L532.78 358.64L516 348.38C515.84 348.28 515.701 348.151 515.59 348L508 337C507.846 336.776 507.762 336.512 507.76 336.24V331.58C507.762 331.284 507.861 330.997 508.042 330.762C508.222 330.528 508.474 330.358 508.76 330.28L512.76 329.19L517.43 317.12L516 311.26L508.39 306.05C508.119 305.871 507.926 305.596 507.85 305.28L505.31 295.56C505.261 295.382 505.25 295.196 505.277 295.013C505.305 294.831 505.37 294.656 505.47 294.5C505.567 294.345 505.696 294.212 505.847 294.109C505.999 294.006 506.17 293.935 506.35 293.9C507.21 293.725 507.986 293.263 508.55 292.59C508.665 292.4 508.738 292.187 508.762 291.966C508.786 291.744 508.761 291.521 508.69 291.31C508.364 290.102 508.173 288.861 508.12 287.61L501.47 287.26C501.162 287.244 500.87 287.123 500.641 286.917C500.411 286.712 500.259 286.434 500.21 286.13L498.06 273C498.033 272.823 498.041 272.643 498.083 272.47C498.126 272.296 498.203 272.133 498.308 271.989C498.414 271.845 498.547 271.723 498.7 271.631C498.853 271.538 499.023 271.477 499.2 271.45L504.1 270.75L504.35 268.75L501.54 262.33C501.43 262.075 501.399 261.793 501.45 261.52L502.72 255.18C502.714 255.127 502.714 255.073 502.72 255.02L504.24 250.45L502.34 246.28C502.26 246.103 502.22 245.911 502.221 245.717C502.223 245.522 502.265 245.331 502.347 245.155C502.428 244.978 502.547 244.822 502.694 244.695C502.841 244.568 503.013 244.475 503.2 244.42L509.29 242.64L507 222.45L486.81 182.92C486.704 182.722 486.648 182.5 486.648 182.275C486.648 182.05 486.704 181.829 486.81 181.63L504.57 151.18C504.669 151.018 504.798 150.875 504.95 150.76L507.46 148.97L508.08 145.24L501.08 139.81C500.91 139.679 500.776 139.507 500.69 139.31L493.69 124.09L481.86 118C481.693 117.917 481.545 117.799 481.428 117.654C481.311 117.509 481.226 117.341 481.18 117.16L476.1 98.5601C476.004 98.2252 476.043 97.8662 476.21 97.5601L484.11 82.5001L478.18 82.1901C477.954 82.177 477.736 82.1079 477.544 81.9892C477.352 81.8705 477.192 81.7058 477.08 81.5101L475.39 78.5101C475.296 78.35 475.237 78.172 475.216 77.9878C475.196 77.8035 475.214 77.617 475.27 77.4401C475.326 77.265 475.417 77.103 475.537 76.9639C475.657 76.8247 475.804 76.7112 475.97 76.6301L485.9 71.8701L486.07 70.6401L484.07 69.7801C483.876 69.6944 483.704 69.5649 483.569 69.4018C483.434 69.2387 483.338 69.0464 483.29 68.8401L482 63.3501C481.955 63.1633 481.951 62.9691 481.989 62.7808C482.027 62.5925 482.106 62.4148 482.22 62.2601L493.22 47.1401L489.8 34.8201L475.54 27.8901C475.354 27.7996 475.192 27.6678 475.065 27.5049C474.939 27.3419 474.851 27.1521 474.81 26.9501L474.09 23.3201L468.7 20.2401C468.518 20.1366 468.363 19.9924 468.247 19.8189C468.131 19.6454 468.056 19.4472 468.03 19.2401L467.32 13.1801C464.87 13.0401 461.4 12.8601 460.05 12.8201C458.97 15.0569 458.135 17.4039 457.56 19.8201C457.511 19.9985 457.427 20.1651 457.312 20.3096C457.196 20.4541 457.053 20.5734 456.89 20.6601L450.55 24.0501C450.377 24.1406 450.186 24.1928 449.991 24.2032C449.796 24.2135 449.601 24.1818 449.42 24.1101C449.237 24.0375 449.072 23.9255 448.937 23.7821C448.802 23.6386 448.701 23.4672 448.64 23.2801L447.64 20.2801L440.32 19.2301L428.72 32.7701L430.81 36.6001C430.947 36.8563 430.999 37.15 430.958 37.438C430.917 37.726 430.784 37.9931 430.58 38.2001L428 40.7701V49.5201C428.009 49.5998 428.009 49.6804 428 49.7601L423.81 72.8201L424.63 79.3801C424.654 79.588 424.63 79.7987 424.561 79.9962C424.492 80.1937 424.378 80.3728 424.23 80.5201C424.077 80.6654 423.893 80.7729 423.691 80.8337C423.49 80.8945 423.277 80.907 423.07 80.8701L418.68 80.1401L412.3 86.5001L411.5 94.0601C411.476 94.2851 411.398 94.5007 411.27 94.6876C411.143 94.8744 410.971 95.0265 410.77 95.1301L405.69 97.6601C405.379 97.8132 405.021 97.8418 404.69 97.7401C404.521 97.6841 404.365 97.5952 404.231 97.4784C404.097 97.3617 403.988 97.2195 403.91 97.0601L401.61 92.4601L389.81 88.0001C389.628 87.9308 389.464 87.8235 389.328 87.6855C389.192 87.5476 389.087 87.382 389.02 87.2001L387.71 83.5901L384.37 84.1101L384 89.3601C383.984 89.6027 383.904 89.8367 383.766 90.0374C383.629 90.2381 383.44 90.3979 383.22 90.5001L373.07 95.1501C372.75 95.2929 372.388 95.3072 372.058 95.1898C371.729 95.0725 371.457 94.8326 371.3 94.5201L370.3 92.6001L363.36 91.4401C363.043 91.3886 362.756 91.2254 362.55 90.9801L360.79 88.8701L356.7 88.5001C356.349 88.4695 356.025 88.3024 355.797 88.0349C355.569 87.7674 355.455 87.4208 355.48 87.0701L355.87 81.1601L340.84 57.0901L334.53 56.0001L329.21 61.6801L331.11 68.1301C331.181 68.3791 331.18 68.6436 331.105 68.8918C331.031 69.1401 330.887 69.3617 330.69 69.5301C330.495 69.6996 330.255 69.8087 329.999 69.8443C329.744 69.8798 329.483 69.8401 329.25 69.7301L323.76 67.1701L321.87 69.0501L327.09 72.0001C327.282 72.1061 327.445 72.2586 327.564 72.4438C327.683 72.6289 327.754 72.8407 327.77 73.0601L328.15 77.5501L341.22 87.7601C341.409 87.9079 341.555 88.1051 341.64 88.3301L343.53 93.2401L348 94.7601C348.337 94.8727 348.617 95.1133 348.78 95.4301L350.98 99.8401L359.12 100.62C359.361 100.643 359.592 100.729 359.79 100.87L370.79 108.87C370.934 108.973 371.056 109.104 371.148 109.256C371.241 109.407 371.303 109.575 371.33 109.75L372.51 117.6L381.29 123.19C381.575 123.371 381.782 123.653 381.87 123.98L383.56 130.33C383.618 130.541 383.622 130.762 383.573 130.975C383.525 131.188 383.424 131.386 383.28 131.55L381.07 134.13V143.36C381.071 143.674 380.961 143.979 380.76 144.22L376.93 148.82L377.55 152.59L384.1 155.67C384.332 155.778 384.529 155.951 384.667 156.167C384.805 156.383 384.879 156.634 384.88 156.89V163.66C384.879 163.993 384.755 164.315 384.532 164.562C384.308 164.81 384.001 164.966 383.67 165L380.91 165.27L381.91 170.02L389.91 188.5C390.009 188.727 390.043 188.978 390.008 189.224C389.973 189.469 389.869 189.7 389.71 189.89C388.545 191.296 387.908 193.065 387.91 194.89V196.62C387.909 198.248 387.529 199.854 386.8 201.31L384.75 205.41C384.072 206.761 383.805 208.28 383.98 209.78L384.5 214.24C384.622 215.276 384.951 216.276 385.466 217.183C385.981 218.09 386.673 218.885 387.5 219.52L388.24 220.08C389.509 221.076 390.535 222.348 391.24 223.8L396.29 234.2C396.695 235.026 397.244 235.774 397.91 236.41L403.45 241.72C403.983 242.236 404.59 242.67 405.25 243.01L411.25 246.1C412.769 246.886 414.072 248.033 415.044 249.44C416.017 250.847 416.63 252.471 416.83 254.17L416.92 254.98C417.062 256.175 416.997 257.386 416.73 258.56L415.83 262.44L415.04 269.54L418.21 275.08C418.365 275.355 418.419 275.676 418.362 275.986C418.306 276.297 418.142 276.578 417.9 276.78L416.5 277.95L418.84 280.29C418.981 280.434 419.089 280.607 419.155 280.798C419.221 280.989 419.243 281.192 419.22 281.393C419.197 281.593 419.129 281.786 419.022 281.957C418.915 282.128 418.77 282.272 418.6 282.38L415.22 284.5C414.998 284.65 414.737 284.73 414.47 284.73C414.202 284.73 413.941 284.65 413.72 284.5L411.23 282.72L401.59 284.58C400.846 286.827 400.242 289.118 399.78 291.44C399.602 293.375 399.312 295.299 398.91 297.2C398.871 297.397 398.79 297.583 398.67 297.743C398.551 297.904 398.397 298.037 398.22 298.13L392.53 301.13L392.16 305.89C392.145 306.074 392.093 306.253 392.007 306.417C391.921 306.58 391.803 306.724 391.66 306.84L383.66 313.26L382.88 320.31C382.842 320.601 382.716 320.873 382.52 321.09L376.6 327.43C376.469 327.562 376.317 327.67 376.15 327.75L370.23 330.28C370.005 330.378 369.758 330.413 369.515 330.382C369.271 330.35 369.042 330.253 368.85 330.1L367.33 329L365.71 329.92L364.55 336.92C364.509 337.164 364.401 337.393 364.24 337.58L356.5 346.48C356.429 346.561 356.381 346.659 356.36 346.764C356.339 346.869 356.346 346.978 356.38 347.08L357.38 350.31C357.562 350.922 357.565 351.573 357.388 352.187C357.21 352.8 356.86 353.35 356.38 353.77L354.05 355.84C353.478 356.352 352.746 356.649 351.98 356.68L343.09 357.05C342.975 357.056 342.864 357.094 342.77 357.16L342.14 357.57C342.013 357.657 341.922 357.787 341.884 357.936C341.845 358.085 341.862 358.242 341.93 358.38L343.58 361.67C343.85 362.211 343.968 362.815 343.921 363.418C343.873 364.02 343.662 364.599 343.31 365.09L340 369.7C339.752 370.041 339.444 370.332 339.09 370.56L334.49 373.56C334.392 373.621 334.314 373.707 334.263 373.809C334.212 373.912 334.19 374.026 334.2 374.14L334.94 383.41C334.95 383.543 334.95 383.677 334.94 383.81L334.56 393.44C334.551 393.608 334.609 393.773 334.72 393.9L339 398.5C339.346 398.877 339.601 399.327 339.747 399.818C339.893 400.308 339.924 400.826 339.84 401.33L338.39 409.63C338.365 409.725 338.365 409.825 338.39 409.92L343.31 426C343.54 426.75 343.495 427.558 343.184 428.278C342.872 428.999 342.314 429.584 341.61 429.93C341.51 429.982 341.426 430.059 341.366 430.154C341.306 430.249 341.273 430.358 341.27 430.47L340.9 440.92C340.887 441.167 340.851 441.411 340.79 441.65L339.23 447.5C339.139 447.813 339.008 448.112 338.84 448.39L336.24 452.62C336.18 452.718 336.149 452.831 336.149 452.945C336.149 453.06 336.18 453.172 336.24 453.27L337.78 455.83C338.19 456.518 338.339 457.331 338.2 458.12L337.26 463.47C337.24 463.578 337.249 463.69 337.286 463.793C337.323 463.897 337.386 463.989 337.47 464.06L341.96 467.85C342.121 467.988 342.269 468.142 342.4 468.31L343.45 469.62C343.729 469.97 343.934 470.373 344.054 470.804C344.175 471.235 344.207 471.686 344.15 472.13L343.62 476.13C343.601 476.269 343.629 476.411 343.699 476.532C343.77 476.654 343.879 476.748 344.01 476.8L344.33 476.93C344.42 476.966 344.518 476.981 344.616 476.972C344.713 476.964 344.807 476.932 344.89 476.88C344.973 476.828 345.044 476.758 345.096 476.675C345.148 476.592 345.18 476.498 345.19 476.4L345.28 475.28C345.334 474.633 345.578 474.016 345.979 473.506C346.381 472.996 346.924 472.615 347.54 472.41L349.54 471.75C350.206 471.535 350.923 471.535 351.59 471.75L357.92 473.75C358.48 473.928 358.984 474.251 359.379 474.687C359.774 475.122 360.047 475.655 360.17 476.23L360.72 478.81C360.738 478.897 360.776 478.979 360.829 479.049C360.883 479.12 360.951 479.178 361.03 479.22C361.11 479.261 361.199 479.282 361.29 479.282C361.38 479.282 361.469 479.261 361.55 479.22L363.66 478.46C364.11 478.293 364.591 478.228 365.07 478.27L367.07 478.43C367.587 478.474 368.088 478.638 368.531 478.911C368.973 479.183 369.346 479.556 369.618 479.998C369.89 480.441 370.055 480.941 370.099 481.459C370.142 481.977 370.064 482.498 369.87 482.98L368.61 486Z" fill="#0F6CF4"/>
<path d="M357.87 489.35L355.33 494.42L359.56 496.96L363.37 497.81L365.06 494L362.1 488.93L357.87 489.35Z" fill="white"/>
<path d="M363.37 499.15C363.273 499.16 363.176 499.16 363.08 499.15L359.27 498.3C359.128 498.27 358.993 498.216 358.87 498.14L354.64 495.61C354.351 495.433 354.138 495.154 354.044 494.829C353.95 494.503 353.98 494.154 354.13 493.85L356.67 488.78C356.768 488.574 356.919 488.398 357.107 488.268C357.294 488.138 357.513 488.059 357.74 488.04L361.97 487.62C362.226 487.589 362.486 487.636 362.715 487.754C362.945 487.871 363.135 488.054 363.26 488.28L366.26 493.35C366.365 493.536 366.425 493.744 366.436 493.958C366.446 494.171 366.407 494.384 366.32 494.58L364.63 498.38C364.518 498.618 364.34 498.817 364.116 498.954C363.892 499.091 363.632 499.159 363.37 499.15V499.15ZM360.07 495.69L362.59 496.25L363.59 494.08L361.41 490.35L358.79 490.61L357.14 493.91L360.07 495.69Z" fill="#0F6CF4"/>
<path d="M329.729 470.85L331.839 477.19L336.219 478.02L334.569 469.19L329.729 470.85Z" fill="white"/>
<path d="M336.22 479.37H335.96L331.59 478.54C331.359 478.492 331.144 478.383 330.969 478.225C330.793 478.067 330.662 477.865 330.59 477.64L328.47 471.3C328.358 470.963 328.384 470.596 328.541 470.278C328.698 469.96 328.974 469.716 329.31 469.6L334.15 467.93C334.334 467.868 334.528 467.846 334.722 467.865C334.915 467.884 335.102 467.943 335.27 468.04C335.436 468.139 335.579 468.272 335.69 468.43C335.8 468.589 335.875 468.77 335.91 468.96L337.56 477.8C337.597 477.994 337.59 478.194 337.541 478.385C337.491 478.576 337.4 478.754 337.274 478.906C337.148 479.058 336.99 479.18 336.811 479.264C336.632 479.347 336.437 479.391 336.24 479.39L336.22 479.37ZM332.87 476L334.53 476.31L333.53 470.95L331.43 471.67L332.87 476Z" fill="#0F6CF4"/>
<path d="M334.33 360.94L330.18 356.32L329.71 351.66L334.29 348.09L338.05 359.35L334.33 360.94ZM331.14 355.94L334.6 359.78L336.81 358.83L333.81 349.83L330.81 352.19L331.14 355.94Z" fill="#2CAAFF"/>
<path d="M402.05 279.7L397.25 276.34L400.53 270.24L408.45 268.84L409.88 276.94L402.05 279.7ZM398.55 276.03L402.2 278.59L408.75 276.28L407.64 270L401.18 271.14L398.55 276.03Z" fill="#2CAAFF"/>
<path d="M344.34 484.27L338.42 485.96L339.69 491.46L347.3 490.62L352.38 488.93L350.68 485.12L344.34 484.27Z" fill="white"/>
<path d="M339.69 492.81C339.392 492.811 339.101 492.714 338.864 492.533C338.627 492.352 338.457 492.098 338.38 491.81L337.11 486.31C337.032 485.974 337.086 485.62 337.261 485.323C337.436 485.025 337.718 484.806 338.05 484.71L344 483C344.181 482.96 344.369 482.96 344.55 483L350.89 483.84C351.118 483.871 351.334 483.96 351.517 484.099C351.701 484.237 351.846 484.42 351.94 484.63L353.64 488.44C353.714 488.612 353.752 488.797 353.752 488.985C353.752 489.172 353.714 489.358 353.64 489.53C353.562 489.701 353.45 489.854 353.311 489.98C353.172 490.105 353.008 490.201 352.83 490.26L347.76 491.95L347.48 492.02L339.87 492.86L339.69 492.81ZM340.02 486.91L340.73 489.99L347.01 489.29L350.54 488.12L349.76 486.35L344.44 485.64L340.02 486.91Z" fill="#0F6CF4"/>
<path d="M362.52 503.3L363.79 505.84L375.63 504.99L370.14 501.61L362.52 503.3Z" fill="white"/>
<path d="M363.79 507.19C363.54 507.188 363.296 507.117 363.084 506.985C362.872 506.853 362.701 506.664 362.59 506.44L361.32 503.91C361.229 503.727 361.18 503.525 361.178 503.321C361.176 503.116 361.22 502.914 361.308 502.729C361.395 502.544 361.524 502.381 361.684 502.253C361.844 502.125 362.03 502.035 362.23 501.99L369.84 500.3C370.181 500.221 370.54 500.278 370.84 500.46L376.34 503.85C376.583 503.997 376.772 504.219 376.88 504.481C376.988 504.744 377.009 505.035 376.94 505.31C376.868 505.582 376.712 505.825 376.495 506.004C376.278 506.183 376.011 506.29 375.73 506.31L363.89 507.15L363.79 507.19ZM364.5 504.24L364.59 504.43L371.37 503.95L369.9 503.05L364.5 504.24Z" fill="#0F6CF4"/>
<path d="M314.05 491.51H307.88L306.57 487.18L300.14 485V480L305.81 479.13L308.94 473.32L316.32 479.32L317.32 484.6L312.41 486L316.14 487.36L314.05 491.51ZM308.62 490.51H313.44L314.74 487.91L309.17 485.91L316.17 483.91L315.44 479.91L309.29 474.91L306.5 480.09L301.18 480.91V484.35L307.42 486.43L308.62 490.51Z" fill="#2CAAFF"/>
<path d="M471.34 60.08L470.63 63.28L462.81 63.99V62.21L455.69 67.19L452.49 75.72L447.51 76.79L447.87 78.92L452.85 79.64V84.26L454.63 87.81L458.54 88.17L460.67 81.77L464.58 81.41V84.97L470.99 79.99L467.79 72.52L473.12 69.68L474.19 63.63L477.74 61.14L474.19 57.23L471.34 60.08Z" fill="#2CAAFF"/>
<path d="M458.54 89.5199H458.42L454.51 89.1599C454.281 89.1409 454.061 89.0639 453.87 88.9362C453.679 88.8085 453.524 88.6342 453.42 88.4299L451.64 84.8699C451.549 84.6829 451.501 84.4779 451.5 84.2699V80.7999L447.68 80.2599C447.398 80.2166 447.137 80.0863 446.932 79.8874C446.728 79.6884 446.591 79.4306 446.54 79.1499L446.19 76.9999C446.132 76.6644 446.202 76.3193 446.388 76.0337C446.573 75.7481 446.86 75.5432 447.19 75.4599L451.45 74.5499L454.39 66.7099C454.485 66.455 454.656 66.2353 454.88 66.0799L461.99 61.0799C462.192 60.9397 462.428 60.8573 462.673 60.8415C462.919 60.8258 463.163 60.8773 463.382 60.9905C463.6 61.1037 463.783 61.2743 463.911 61.4839C464.04 61.6935 464.108 61.9341 464.11 62.1799V62.4799L469.49 61.9999L469.99 59.7599C470.042 59.5093 470.167 59.2796 470.35 59.0999L473.19 56.2499C473.321 56.1205 473.478 56.0191 473.65 55.9521C473.822 55.885 474.005 55.8537 474.19 55.8599C474.379 55.8549 474.566 55.8918 474.739 55.9679C474.912 56.0439 475.066 56.1573 475.19 56.2999L478.75 60.2099C478.871 60.3449 478.964 60.5031 479.023 60.675C479.081 60.8469 479.104 61.0289 479.09 61.2099C479.076 61.4086 479.017 61.6017 478.919 61.7748C478.82 61.9478 478.684 62.0966 478.52 62.2099L475.43 64.3799L474.43 69.8699C474.402 70.0792 474.325 70.2788 474.205 70.4526C474.085 70.6264 473.925 70.7694 473.74 70.8699L469.5 73.1299L472.21 79.4599C472.326 79.7331 472.348 80.037 472.274 80.3244C472.2 80.6118 472.033 80.8668 471.8 81.0499L465.4 86.0499C465.202 86.2027 464.966 86.2973 464.718 86.323C464.469 86.3487 464.219 86.3045 463.994 86.1953C463.769 86.0861 463.58 85.9163 463.446 85.7051C463.313 85.4939 463.242 85.2496 463.24 84.9999V82.8899L461.67 83.0299L459.82 88.5999C459.728 88.8672 459.556 89.0994 459.327 89.2643C459.097 89.4291 458.822 89.5185 458.54 89.5199V89.5199ZM455.54 86.5199L457.64 86.7099L459.43 81.3199C459.516 81.0734 459.671 80.8568 459.877 80.6956C460.082 80.5343 460.33 80.4352 460.59 80.4099L464.5 80.0499C464.686 80.0333 464.874 80.0555 465.051 80.1153C465.228 80.175 465.391 80.2709 465.529 80.3969C465.668 80.5229 465.778 80.6762 465.854 80.8471C465.93 81.0181 465.969 81.2029 465.97 81.3899V82.1999L469.38 79.5499L466.59 73.0299C466.455 72.7218 466.442 72.3742 466.554 72.0569C466.665 71.7396 466.892 71.4763 467.19 71.3199L471.95 68.7799L472.9 63.3799C472.93 63.2058 472.994 63.0393 473.088 62.89C473.182 62.7407 473.305 62.6115 473.45 62.5099L475.76 60.8999L474.18 59.1599L472.61 60.7299L471.98 63.5499C471.919 63.8289 471.771 64.0811 471.557 64.27C471.343 64.4589 471.074 64.5745 470.79 64.5999L462.97 65.3099C462.788 65.3244 462.605 65.3008 462.433 65.2405C462.261 65.1802 462.103 65.0847 461.97 64.9599C461.87 64.8685 461.782 64.7643 461.71 64.6499L456.88 68.0299L453.82 76.1799C453.738 76.3931 453.603 76.582 453.428 76.7289C453.253 76.8758 453.044 76.9759 452.82 77.0199L449.39 77.7499L453.08 78.2799C453.401 78.3277 453.695 78.4892 453.908 78.735C454.121 78.9808 454.239 79.2948 454.24 79.6199V83.9199L455.54 86.5199Z" fill="#0F6CF4"/>
</svg>
