<svg width="847" height="525" viewBox="0 0 847 525" fill="none" xmlns="http://www.w3.org/2000/svg">
<circle cx="313.5" cy="88.4995" r="6.5" fill="#FF002E"/>
<circle cx="428.5" cy="93.5" r="6.5" fill="#FF002E"/>
<path d="M323.5 84.5C350.058 61.6761 395 63.9997 419 89.4999" stroke="#FF002E" stroke-width="5" stroke-linecap="round" stroke-linejoin="round" stroke-dasharray="10 10"/>
<circle cx="313.5" cy="88.4995" r="3.5" fill="white"/>
<circle cx="428.5" cy="93.5" r="3.5" fill="white"/>
<path d="M423.067 75.6734C423.457 73.4184 425.206 71.6275 427.405 71.1281C427.648 71.0726 427.657 71.0524 428.023 71.0221C428.389 70.9919 428.606 70.9969 428.868 71.012C429.13 71.0272 429.189 71.0524 429.348 71.0827C431.22 71.4257 432.609 72.4548 433.444 74.1953C434.057 75.4666 434.2 76.7883 433.686 78.1453C433.311 79.1442 432.807 80.0724 432.248 80.9653C431.304 82.4788 430.237 83.8963 429.105 85.2685C428.908 85.5107 428.7 85.7478 428.493 86C428.433 85.9344 428.389 85.889 428.349 85.8386C427.381 84.7035 426.462 83.523 425.607 82.2921C424.816 81.152 424.08 79.9816 423.516 78.7002C423.091 77.7316 422.884 76.7429 423.067 75.6734ZM428.502 79.2552C430.148 79.2552 431.492 77.9334 431.576 76.2737C431.581 76.2182 431.581 76.1678 431.581 76.1123C431.581 76.0568 431.581 76.0063 431.576 75.9508C431.492 74.2911 430.148 72.9694 428.502 72.9694C426.857 72.9694 425.513 74.2911 425.429 75.9508C425.424 76.0063 425.424 76.0568 425.424 76.1123C425.424 76.1678 425.424 76.2182 425.429 76.2737C425.508 77.9334 426.852 79.2552 428.502 79.2552Z" fill="#FF002E"/>
<circle cx="173.5" cy="307.726" r="6.5" fill="#FF002E"/>
<circle cx="358.5" cy="418.5" r="6.5" fill="#FF002E"/>
<path d="M184.5 314.5C208 344 318 340 351 411.5" stroke="#FF002E" stroke-width="5" stroke-linecap="round" stroke-linejoin="round" stroke-dasharray="10 10"/>
<circle cx="173.5" cy="307.726" r="3.5" fill="white"/>
<circle cx="358.5" cy="418.5" r="3.5" fill="white"/>
<path d="M353.067 400.674C353.457 398.419 355.206 396.628 357.405 396.129C357.648 396.073 357.657 396.053 358.023 396.023C358.389 395.992 358.606 395.997 358.868 396.013C359.13 396.028 359.189 396.053 359.348 396.083C361.22 396.426 362.609 397.455 363.444 399.196C364.057 400.467 364.2 401.789 363.686 403.146C363.311 404.145 362.807 405.073 362.248 405.966C361.304 407.479 360.237 408.897 359.105 410.269C358.908 410.511 358.7 410.748 358.493 411C358.433 410.935 358.389 410.89 358.349 410.839C357.381 409.704 356.462 408.524 355.607 407.293C354.816 406.152 354.08 404.982 353.516 403.701C353.091 402.732 352.884 401.743 353.067 400.674ZM358.502 404.256C360.148 404.256 361.492 402.934 361.576 401.274C361.581 401.219 361.581 401.168 361.581 401.113C361.581 401.057 361.581 401.007 361.576 400.951C361.492 399.292 360.148 397.97 358.502 397.97C356.857 397.97 355.513 399.292 355.429 400.951C355.424 401.007 355.424 401.057 355.424 401.113C355.424 401.168 355.424 401.219 355.429 401.274C355.508 402.934 356.852 404.256 358.502 404.256Z" fill="#FF002E"/>
<circle cx="344.5" cy="178.725" r="6.5" fill="#FF002E"/>
<circle cx="415.5" cy="124.5" r="6.5" fill="#FF002E"/>
<path d="M354.5 174.726C381.058 151.902 397.5 139.5 406.5 131.5" stroke="#FF002E" stroke-width="5" stroke-linecap="round" stroke-linejoin="round" stroke-dasharray="10 10"/>
<circle cx="344.5" cy="178.725" r="3.5" fill="white"/>
<circle cx="415.5" cy="124.5" r="3.5" fill="white"/>
<path d="M410.067 106.673C410.457 104.418 412.206 102.627 414.405 102.128C414.648 102.073 414.657 102.052 415.023 102.022C415.389 101.992 415.606 101.997 415.868 102.012C416.13 102.027 416.189 102.052 416.348 102.083C418.22 102.426 419.609 103.455 420.444 105.195C421.057 106.467 421.2 107.788 420.686 109.145C420.311 110.144 419.807 111.072 419.248 111.965C418.304 113.479 417.237 114.896 416.105 116.269C415.908 116.511 415.7 116.748 415.493 117C415.433 116.934 415.389 116.889 415.349 116.839C414.381 115.703 413.462 114.523 412.607 113.292C411.816 112.152 411.08 110.982 410.516 109.7C410.091 108.732 409.884 107.743 410.067 106.673ZM415.502 110.255C417.148 110.255 418.492 108.933 418.576 107.274C418.581 107.218 418.581 107.168 418.581 107.112C418.581 107.057 418.581 107.006 418.576 106.951C418.492 105.291 417.148 103.969 415.502 103.969C413.857 103.969 412.513 105.291 412.429 106.951C412.424 107.006 412.424 107.057 412.424 107.112C412.424 107.168 412.424 107.218 412.429 107.274C412.508 108.933 413.852 110.255 415.502 110.255Z" fill="#FF002E"/>
<circle cx="297.5" cy="457.5" r="6.5" fill="#FF002E"/>
<circle cx="370.5" cy="466.5" r="6.5" fill="#FF002E"/>
<path d="M307.5 461.5C333.5 468.5 352.5 445.226 361 459.725" stroke="#FF002E" stroke-width="5" stroke-linecap="round" stroke-linejoin="round" stroke-dasharray="10 10"/>
<circle cx="297.5" cy="457.5" r="3.5" fill="white"/>
<circle cx="370.5" cy="466.5" r="3.5" fill="white"/>
<path d="M365.067 448.673C365.457 446.418 367.206 444.627 369.405 444.128C369.648 444.073 369.657 444.052 370.023 444.022C370.389 443.992 370.606 443.997 370.868 444.012C371.13 444.027 371.189 444.052 371.348 444.083C373.22 444.426 374.609 445.455 375.444 447.195C376.057 448.467 376.2 449.788 375.686 451.145C375.311 452.144 374.807 453.072 374.248 453.965C373.304 455.479 372.237 456.896 371.105 458.269C370.908 458.511 370.7 458.748 370.493 459C370.433 458.934 370.389 458.889 370.349 458.839C369.381 457.703 368.462 456.523 367.607 455.292C366.816 454.152 366.08 452.982 365.516 451.7C365.091 450.732 364.884 449.743 365.067 448.673ZM370.502 452.255C372.148 452.255 373.492 450.933 373.576 449.274C373.581 449.218 373.581 449.168 373.581 449.112C373.581 449.057 373.581 449.006 373.576 448.951C373.492 447.291 372.148 445.969 370.502 445.969C368.857 445.969 367.513 447.291 367.429 448.951C367.424 449.006 367.424 449.057 367.424 449.112C367.424 449.168 367.424 449.218 367.429 449.274C367.508 450.933 368.852 452.255 370.502 452.255Z" fill="#FF002E"/>
<circle cx="552.5" cy="90.5" r="6.5" fill="#FF002E"/>
<circle cx="418.5" cy="165.5" r="6.5" fill="#FF002E"/>
<path d="M429 160.225C455.558 137.401 474 88 541 90.9998" stroke="#FF002E" stroke-width="5" stroke-linecap="round" stroke-linejoin="round" stroke-dasharray="10 10"/>
<circle cx="552.5" cy="90.5" r="3.5" fill="white"/>
<circle cx="418.5" cy="165.5" r="3.5" fill="white"/>
<path d="M413.067 147.673C413.457 145.418 415.206 143.627 417.405 143.128C417.648 143.073 417.657 143.052 418.023 143.022C418.389 142.992 418.606 142.997 418.868 143.012C419.13 143.027 419.189 143.052 419.348 143.083C421.22 143.426 422.609 144.455 423.444 146.195C424.057 147.467 424.2 148.788 423.686 150.145C423.311 151.144 422.807 152.072 422.248 152.965C421.304 154.479 420.237 155.896 419.105 157.269C418.908 157.511 418.7 157.748 418.493 158C418.433 157.934 418.389 157.889 418.349 157.839C417.381 156.703 416.462 155.523 415.607 154.292C414.816 153.152 414.08 151.982 413.516 150.7C413.091 149.732 412.884 148.743 413.067 147.673ZM418.502 151.255C420.148 151.255 421.492 149.933 421.576 148.274C421.581 148.218 421.581 148.168 421.581 148.112C421.581 148.057 421.581 148.006 421.576 147.951C421.492 146.291 420.148 144.969 418.502 144.969C416.857 144.969 415.513 146.291 415.429 147.951C415.424 148.006 415.424 148.057 415.424 148.112C415.424 148.168 415.424 148.218 415.429 148.274C415.508 149.933 416.852 151.255 418.502 151.255Z" fill="#FF002E"/>
<circle cx="697.5" cy="339.5" r="6.5" fill="#FF002E"/>
<circle cx="481.5" cy="369.5" r="6.5" fill="#FF002E"/>
<path d="M492 364.226C530 333 649.5 374.5 690 349.5" stroke="#FF002E" stroke-width="5" stroke-linecap="round" stroke-linejoin="round" stroke-dasharray="10 10"/>
<circle cx="697.5" cy="339.5" r="3.5" fill="white"/>
<circle cx="481.5" cy="369.5" r="3.5" fill="white"/>
<path d="M476.067 351.673C476.457 349.418 478.206 347.627 480.405 347.128C480.648 347.073 480.657 347.052 481.023 347.022C481.389 346.992 481.606 346.997 481.868 347.012C482.13 347.027 482.189 347.052 482.348 347.083C484.22 347.426 485.609 348.455 486.444 350.195C487.057 351.467 487.2 352.788 486.686 354.145C486.311 355.144 485.807 356.072 485.248 356.965C484.304 358.479 483.237 359.896 482.105 361.269C481.908 361.511 481.7 361.748 481.493 362C481.433 361.934 481.389 361.889 481.349 361.839C480.381 360.703 479.462 359.523 478.607 358.292C477.816 357.152 477.08 355.982 476.516 354.7C476.091 353.732 475.884 352.743 476.067 351.673ZM481.502 355.255C483.148 355.255 484.492 353.933 484.576 352.274C484.581 352.218 484.581 352.168 484.581 352.112C484.581 352.057 484.581 352.006 484.576 351.951C484.492 350.291 483.148 348.969 481.502 348.969C479.857 348.969 478.513 350.291 478.429 351.951C478.424 352.006 478.424 352.057 478.424 352.112C478.424 352.168 478.424 352.218 478.429 352.274C478.508 353.933 479.852 355.255 481.502 355.255Z" fill="#FF002E"/>
<circle cx="502.5" cy="456.5" r="6.5" fill="#FF002E"/>
<circle cx="418.5" cy="470.5" r="6.5" fill="#FF002E"/>
<path d="M429 465.225C464.5 427.5 461 479 492.5 463" stroke="#FF002E" stroke-width="5" stroke-linecap="round" stroke-linejoin="round" stroke-dasharray="10 10"/>
<circle cx="502.5" cy="456.5" r="3.5" fill="white"/>
<circle cx="418.5" cy="470.5" r="3.5" fill="white"/>
<path d="M413.067 452.673C413.457 450.418 415.206 448.627 417.405 448.128C417.648 448.073 417.657 448.052 418.023 448.022C418.389 447.992 418.606 447.997 418.868 448.012C419.13 448.027 419.189 448.052 419.348 448.083C421.22 448.426 422.609 449.455 423.444 451.195C424.057 452.467 424.2 453.788 423.686 455.145C423.311 456.144 422.807 457.072 422.248 457.965C421.304 459.479 420.237 460.896 419.105 462.269C418.908 462.511 418.7 462.748 418.493 463C418.433 462.934 418.389 462.889 418.349 462.839C417.381 461.703 416.462 460.523 415.607 459.292C414.816 458.152 414.08 456.982 413.516 455.7C413.091 454.732 412.884 453.743 413.067 452.673ZM418.502 456.255C420.148 456.255 421.492 454.933 421.576 453.274C421.581 453.218 421.581 453.168 421.581 453.112C421.581 453.057 421.581 453.006 421.576 452.951C421.492 451.291 420.148 449.969 418.502 449.969C416.857 449.969 415.513 451.291 415.429 452.951C415.424 453.006 415.424 453.057 415.424 453.112C415.424 453.168 415.424 453.218 415.429 453.274C415.508 454.933 416.852 456.255 418.502 456.255Z" fill="#FF002E"/>
<circle cx="555.499" cy="254.5" r="6.5" fill="#FF002E"/>
<circle cx="499.498" cy="343.5" r="6.5" fill="#FF002E"/>
<path d="M489.499 341C452.499 312.499 475.999 251.5 542.999 254.5" stroke="#FF002E" stroke-width="5" stroke-linecap="round" stroke-linejoin="round" stroke-dasharray="10 10"/>
<circle cx="555.499" cy="254.5" r="3.5" fill="white"/>
<circle cx="499.498" cy="343.5" r="3.5" fill="white"/>
<path d="M494.065 325.673C494.455 323.418 496.204 321.627 498.403 321.128C498.646 321.073 498.656 321.052 499.021 321.022C499.387 320.992 499.604 320.997 499.866 321.012C500.128 321.027 500.187 321.052 500.346 321.083C502.218 321.426 503.607 322.455 504.442 324.195C505.055 325.467 505.198 326.788 504.684 328.145C504.309 329.144 503.805 330.072 503.246 330.965C502.302 332.479 501.235 333.896 500.103 335.269C499.906 335.511 499.698 335.748 499.491 336C499.431 335.934 499.387 335.889 499.347 335.839C498.379 334.703 497.46 333.523 496.605 332.292C495.814 331.152 495.078 329.982 494.514 328.7C494.089 327.732 493.882 326.743 494.065 325.673ZM499.501 329.255C501.146 329.255 502.49 327.933 502.574 326.274C502.579 326.218 502.579 326.168 502.579 326.112C502.579 326.057 502.579 326.006 502.574 325.951C502.49 324.291 501.146 322.969 499.501 322.969C497.855 322.969 496.511 324.291 496.427 325.951C496.422 326.006 496.422 326.057 496.422 326.112C496.422 326.168 496.422 326.218 496.427 326.274C496.506 327.933 497.85 329.255 499.501 329.255Z" fill="#FF002E"/>
</svg>
