<svg width="847" height="525" viewBox="0 0 847 525" fill="none" xmlns="http://www.w3.org/2000/svg">
<path d="M817 0H30C13.4315 0 0 13.4315 0 30V495C0 511.569 13.4315 525 30 525H817C833.569 525 847 511.569 847 495V30C847 13.4315 833.569 0 817 0Z" fill="#2CAAFF"/>
<g opacity="0.5">
<path opacity="0.5" d="M817 0H449.85L443.78 11C443.69 11.1604 443.563 11.2974 443.41 11.4L435.7 16.54C435.495 16.6773 435.34 16.8768 435.257 17.1091C435.174 17.3413 435.168 17.5941 435.24 17.83L437.69 25.83C437.746 26.0164 437.755 26.2139 437.714 26.4044C437.674 26.5949 437.587 26.7722 437.46 26.92L425.08 41.29C424.958 41.438 424.872 41.6127 424.83 41.8L389.65 209.8C389.621 209.951 389.561 210.094 389.473 210.219C389.385 210.345 389.272 210.451 389.14 210.53L342.81 239.76L342.58 239.95L317.06 267.59C316.954 267.707 316.824 267.8 316.679 267.864C316.535 267.928 316.378 267.961 316.22 267.96H310.88C310.679 267.961 310.482 268.012 310.307 268.11C310.132 268.208 309.985 268.349 309.88 268.52L306.04 274.94C305.941 275.095 305.808 275.225 305.65 275.32L296.6 280.89L296.42 280.98L267.74 292.45L267.59 292.5L231.77 301.1H231.45L215.2 300.39H214.86L198.55 304.64H198.33L174.93 306.06C174.742 306.071 174.559 306.129 174.4 306.23L166.14 311.3C165.901 311.448 165.615 311.502 165.338 311.453C165.061 311.403 164.813 311.252 164.64 311.03L160.46 305.67C160.303 305.467 160.218 305.217 160.22 304.96V300.27C160.222 300.065 160.278 299.864 160.384 299.688C160.489 299.512 160.64 299.368 160.82 299.27L166.88 295.96C167.031 295.877 167.162 295.761 167.263 295.621C167.363 295.481 167.431 295.32 167.461 295.15C167.49 294.98 167.482 294.805 167.435 294.639C167.388 294.473 167.304 294.319 167.19 294.19L162.9 289.36C162.746 289.189 162.545 289.069 162.322 289.014C162.1 288.958 161.865 288.971 161.65 289.05L149.43 293.55C149.21 293.633 149.021 293.781 148.887 293.973C148.753 294.166 148.681 294.395 148.68 294.63V298.72V299.02L146.9 305.53C146.857 305.689 146.781 305.837 146.676 305.964C146.572 306.09 146.441 306.193 146.293 306.265C146.145 306.337 145.984 306.377 145.819 306.381C145.655 306.385 145.491 306.354 145.34 306.29L136.78 302.62C136.573 302.53 136.343 302.502 136.12 302.54L128.66 304H128.33L116.91 302.72C116.632 302.691 116.375 302.559 116.19 302.35L111.12 296.83C110.95 296.641 110.722 296.514 110.472 296.47C110.221 296.427 109.963 296.469 109.74 296.59L107 298.05C106.844 298.126 106.673 298.165 106.5 298.165C106.327 298.165 106.156 298.126 106 298.05L99.39 294.75C99.1254 294.616 98.9225 294.386 98.8238 294.106C98.725 293.827 98.738 293.52 98.86 293.25L99.01 292.89C99.0726 292.751 99.1066 292.601 99.1102 292.449C99.1138 292.296 99.0869 292.145 99.0309 292.003C98.975 291.862 98.8912 291.733 98.7846 291.624C98.6779 291.515 98.5506 291.429 98.41 291.37L93.86 289.47C93.6163 289.367 93.415 289.184 93.2895 288.952C93.164 288.719 93.1219 288.45 93.17 288.19L94.17 283.28C94.1984 283.124 94.1948 282.965 94.1593 282.811C94.1237 282.657 94.0571 282.512 93.9635 282.384C93.8698 282.257 93.7511 282.15 93.6147 282.07C93.4782 281.99 93.3269 281.939 93.17 281.92H93C92.7569 281.886 92.5092 281.932 92.2945 282.051C92.0798 282.17 91.9097 282.356 91.81 282.58C91.6978 282.818 91.5075 283.01 91.2708 283.125C91.034 283.239 90.7652 283.269 90.509 283.21C90.2528 283.15 90.0249 283.004 89.8631 282.797C89.7013 282.59 89.6155 282.333 89.62 282.07L89.7 279.07C89.7023 278.842 89.637 278.619 89.5124 278.429C89.3878 278.238 89.2095 278.089 89 278L79 273.69C78.8476 273.622 78.6823 273.589 78.5155 273.592C78.3488 273.595 78.1848 273.635 78.0351 273.708C77.8854 273.782 77.7537 273.887 77.6491 274.017C77.5445 274.147 77.4698 274.298 77.43 274.46L77.11 275.73C77.0615 275.932 77.0674 276.142 77.1271 276.341C77.1868 276.54 77.2983 276.719 77.45 276.86L79.83 279L80.01 279.19L81.74 281.69C81.9105 281.936 81.9787 282.238 81.9302 282.533C81.8816 282.828 81.7202 283.092 81.48 283.27L80.73 283.83C80.5694 283.952 80.3792 284.029 80.1789 284.054C79.9786 284.079 79.7754 284.05 79.59 283.97L72.26 280.9C72.0684 280.82 71.9021 280.689 71.7789 280.522C71.6556 280.354 71.58 280.157 71.56 279.95L70.56 270.15C70.5453 269.983 70.4938 269.82 70.4091 269.675C70.3244 269.53 70.2086 269.405 70.07 269.31L50.58 256.05C50.4503 255.969 50.3408 255.86 50.26 255.73L46.53 250C46.4122 249.829 46.3463 249.628 46.34 249.42L46.12 243.83C46.1099 243.593 46.0266 243.364 45.8816 243.176C45.7366 242.988 45.5369 242.85 45.31 242.78L33.31 239.1C33.074 239.015 32.816 239.015 32.58 239.1L21.92 243H21.87L0 249.74V495C0 502.956 3.16071 510.587 8.7868 516.213C14.4129 521.839 22.0435 525 30 525H110.86L89.86 498.64L91.22 495V490.45L90.3 485.9L93 484.08L91.63 481.35L102.71 469.82C102.907 469.619 103.07 469.385 103.19 469.13L105.95 463.21C106.107 462.868 106.189 462.496 106.19 462.12V460C106.189 459.367 105.958 458.756 105.54 458.28L103.29 455.75C103.058 455.488 102.882 455.182 102.772 454.851C102.662 454.519 102.62 454.168 102.65 453.82L102.87 451.13C102.909 450.633 103.093 450.157 103.398 449.763C103.704 449.369 104.118 449.072 104.59 448.91L111.7 446.42C111.972 446.32 112.26 446.269 112.55 446.27H114.03C114.403 446.272 114.772 446.356 115.11 446.514C115.448 446.672 115.748 446.901 115.989 447.186C116.231 447.471 116.407 447.805 116.508 448.165C116.608 448.524 116.629 448.901 116.57 449.27V449.27C116.464 449.833 116.549 450.415 116.812 450.924C117.074 451.434 117.5 451.84 118.02 452.08L121.11 453.5C121.431 453.648 121.718 453.86 121.953 454.123C122.189 454.387 122.368 454.695 122.48 455.03L124.03 459.69C124.148 460.038 124.19 460.408 124.152 460.774C124.114 461.14 123.997 461.493 123.81 461.81L122.13 464.69C121.852 465.153 121.727 465.692 121.772 466.23C121.817 466.768 122.03 467.279 122.38 467.69L130.77 477.69L132.42 486.69C132.534 487.317 132.417 487.963 132.09 488.51L129.21 493.42C128.886 493.969 128.771 494.616 128.887 495.243C129.002 495.87 129.341 496.433 129.84 496.83L133.78 499.99C134.117 500.258 134.384 500.603 134.558 500.997C134.733 501.39 134.809 501.82 134.78 502.25L134.55 505.46C134.513 505.983 134.631 506.506 134.891 506.962C135.151 507.417 135.541 507.786 136.01 508.02V508.02C136.366 508.202 136.677 508.46 136.921 508.777C137.164 509.093 137.335 509.46 137.42 509.85L138.8 516.43C138.918 516.957 139.189 517.437 139.58 517.81L147.15 524.94H386.26L388.41 521.84L392.08 520.43L396.31 513.94L407.64 507.74L410.4 513.66L404.2 523.81L404.41 524.94H817C824.956 524.94 832.587 521.779 838.213 516.153C843.839 510.527 847 502.896 847 494.94V30C847 22.0435 843.839 14.4129 838.213 8.7868C832.587 3.16071 824.956 0 817 0V0ZM116.42 431.15L115.25 414.75C115.233 414.528 115.162 414.314 115.043 414.126C114.925 413.938 114.762 413.781 114.57 413.67L110.85 411.54C110.678 411.443 110.53 411.309 110.416 411.149C110.302 410.988 110.225 410.804 110.19 410.61L109.36 406.14C109.309 405.865 109.174 405.612 108.974 405.416C108.773 405.221 108.517 405.093 108.24 405.05L105.04 404.57C104.828 404.54 104.612 404.56 104.41 404.63V404.63C104.119 404.727 103.869 404.92 103.704 405.179C103.538 405.437 103.466 405.745 103.5 406.05L103.63 407.22C103.653 407.428 103.628 407.638 103.556 407.835C103.483 408.031 103.367 408.208 103.214 408.352C103.062 408.495 102.879 408.601 102.678 408.662C102.478 408.722 102.266 408.735 102.06 408.7L100.78 408.49C100.496 408.439 100.235 408.3 100.036 408.091C99.836 407.883 99.708 407.616 99.67 407.33L99.4 405.28C99.3674 405.077 99.2924 404.882 99.18 404.71L97.89 402.77C97.7879 402.617 97.6553 402.486 97.5005 402.386C97.3456 402.286 97.1718 402.22 96.99 402.19L90.38 401.06C90.1817 401.026 89.9935 400.948 89.8292 400.832C89.6648 400.717 89.5284 400.565 89.43 400.39C88.91 399.46 87.9 397.64 87.73 397.15C87.51 396.48 86.17 396.25 86.17 396.25L84.6 391.79L86.6 389.79L85.7 385.1L89.5 383.1L91.07 379.3L89.5 374.16L91.74 373.71L93.3 379.08L92.12 382.77C92.0139 383.106 92.0359 383.47 92.1817 383.791C92.3275 384.113 92.5869 384.368 92.91 384.51L93.33 384.7C93.6025 384.82 93.83 385.023 93.98 385.28L94.78 386.61C94.8795 386.771 94.9451 386.951 94.9726 387.138C95.0001 387.326 94.989 387.517 94.94 387.7L94.55 389.28C94.5071 389.464 94.5011 389.654 94.5323 389.841C94.5635 390.027 94.6312 390.205 94.7316 390.365C94.832 390.525 94.9631 390.663 95.1173 390.772C95.2715 390.881 95.4457 390.959 95.63 391L96.44 391.18C96.6506 391.23 96.8696 391.231 97.0808 391.184C97.292 391.137 97.49 391.044 97.66 390.91L98.04 390.6C98.174 390.499 98.3223 390.418 98.48 390.36C98.7909 390.256 99.128 390.264 99.4342 390.38C99.7404 390.497 99.9968 390.716 100.16 391L101.81 393.8L102.81 400.71C102.846 400.975 102.96 401.224 103.138 401.423C103.317 401.623 103.551 401.764 103.81 401.83L112.38 403.93C112.567 403.976 112.742 404.061 112.894 404.18C113.046 404.299 113.171 404.449 113.26 404.62L117.09 412.08C117.179 412.254 117.231 412.445 117.24 412.64L118.09 431.3L116.42 431.15ZM469.54 304.07L460.76 301.15L460.28 296.76L456.86 294.81V289.45L462.23 284.57L469.08 287.04L470.48 294.04L473.48 299.16L469.54 304.07ZM486.25 226.18L485.94 233.18C485.882 234.407 485.503 235.596 484.84 236.63V236.63C484.132 237.732 483.748 239.01 483.73 240.32L483.53 259.32C483.51 259.613 483.51 259.907 483.53 260.2L484.88 271.88L478.82 278.17L475.1 277.93L474.16 272.81L469.5 276.53L469.04 279.8L467.41 281.19L462.19 279.68L459.75 274.32L464.14 271.39L460.72 267.5L463.65 263.6L461.21 260.18L461.7 252.87L461.22 246.3C461.153 245.342 461.289 244.381 461.62 243.48L461.79 243.01C461.959 242.53 462.08 242.034 462.15 241.53L462.57 238.15C462.688 237.194 463.009 236.273 463.51 235.45L465.59 232.04C465.868 231.573 466.204 231.143 466.59 230.76L467.88 229.47C469.082 228.274 469.795 226.673 469.88 224.98V224.98C469.956 223.515 470.499 222.113 471.43 220.98L474.43 217.37L488.17 214.81C488.669 215.804 488.921 216.904 488.906 218.016C488.89 219.128 488.607 220.22 488.08 221.2L487.08 223.2C486.576 224.116 486.292 225.136 486.25 226.18V226.18Z" fill="white"/>
</g>
<path d="M498.78 22.3501L490.98 20.8901L486.6 18.4501L481.24 19.4301L479.29 33.5601L473.92 42.3401L469.54 41.3601L461.25 46.2301L452.48 45.7501L451.5 41.8501L442.24 42.8201L431.52 42.3401L424.83 41.8001L421.77 54.5201V60.8601L418.85 72.0701L416.41 77.9201L405.2 81.3301L402.28 94.9701L397.89 99.3601L400.81 104.72L396.92 120.32L392.53 131.53L389.12 137.87L388.63 143.23L385.7 155.9L380.34 171.01L374.01 186.12L369.62 193.92L368.16 199.77L360.36 211.95L353.54 225.11L341.84 238.27L350.12 243.15L349.64 251.43L344.27 251.92L333.55 260.69L328.19 267.52L326.24 277.26L313.08 285.55L316.49 295.3L315.52 300.17L321.37 311.87L326.24 320.15L327.22 331.37L346.71 365.48L347.69 377.18L352.07 382.06L351.59 391.31L353.54 397.17L360.85 400.09L382.29 461.01L388.14 475.15L389.6 483.92L391.55 489.28L392.53 504.88L395.45 514.63L407.64 507.81L413 488.31L416.9 485.38L414.95 472.22L418.85 464.43L422.26 445.9L432.5 434.69L432.98 428.85L428.11 420.07L429.57 414.22L432.5 411.3L430.55 406.43L436.39 402.53V398.63L430.55 391.8L433.96 383.52V377.67L437.86 370.85L444.68 359.15L450.04 352.32L446.63 347.94L449.55 343.55L454.92 342.58V339.16L452.97 333.8L460.28 326.49L463.2 324.54L465.15 319.67L463.2 313.82L469.54 304.07L460.76 301.15L460.28 296.76L456.87 294.81V289.45L462.23 284.57V279.7L459.79 274.34L464.18 271.42L460.76 267.52L463.69 263.62L461.25 260.2L461.74 252.89L444.68 262.15L437.86 268L421.77 268.98L406.66 270.44L394.96 268L395.45 261.18L402.28 254.84L401.3 242.66L406.18 238.76L406.66 231.94L416.9 229.01L425.18 220.72L441.75 216.83L443.7 214.88L416.41 205.13L414.46 198.31L409.1 193.92L407.64 190.51L409.59 187.58L410.07 175.88L407.64 172.47L408.61 166.14L405.2 161.26V158.82L414.46 152.98L412.02 148.1V139.33L417.87 138.35L417.38 124.71L428.11 121.3L433.96 115.45L436.88 113.01L441.75 114.47L444.19 118.37L460.28 117.88L464.18 125.68L461.74 129.09L464.18 132.02H470.02L482.21 134.94L485.62 127.14V119.83L483.19 110.08L489.52 99.3601V90.1001L493.42 89.1301L495.37 77.9201L490.01 65.7301L491.47 56.9601L487.08 51.1101L490.01 47.7001H493.42L496.83 37.4601L499.27 35.0201L496.83 29.6601L498.78 22.3501Z" fill="white"/>
<path d="M395.45 516C395.279 516 395.11 515.97 394.95 515.91C394.762 515.833 394.593 515.715 394.457 515.564C394.32 515.414 394.219 515.235 394.16 515.04L391.24 505.3C391.209 505.199 391.189 505.095 391.18 504.99L390.18 489.59L388.3 484.41C388.27 484.332 388.247 484.252 388.23 484.17L386.8 475.55L381.01 461.55L359.74 401.13L353 398.43C352.816 398.361 352.651 398.251 352.516 398.109C352.381 397.967 352.28 397.797 352.22 397.61L350.27 391.76C350.212 391.6 350.188 391.43 350.2 391.26L350.66 382.56L346.66 378.1C346.46 377.882 346.337 377.604 346.31 377.31L345.36 365.91L326.05 332C325.95 331.832 325.888 331.644 325.87 331.45L324.93 320.54L320.21 312.54L314.31 300.76C314.179 300.493 314.14 300.191 314.2 299.9L315.1 295.38L311.81 285.98C311.709 285.693 311.708 285.381 311.808 285.094C311.908 284.807 312.102 284.562 312.36 284.4L325.03 276.4L326.87 267.22C326.911 267.012 327 266.817 327.13 266.65L332.49 259.83C332.549 259.75 332.62 259.679 332.7 259.62L343.42 250.85C343.627 250.678 343.882 250.573 344.15 250.55L348.36 250.16L348.73 243.86L341.16 239.4C340.981 239.296 340.828 239.151 340.715 238.978C340.602 238.804 340.532 238.606 340.51 238.4C340.476 238.204 340.487 238.004 340.542 237.813C340.598 237.622 340.696 237.447 340.83 237.3L352.42 224.3L359.16 211.3C359.18 211.264 359.203 211.231 359.23 211.2L366.9 199.2L368.31 193.56C368.34 193.444 368.387 193.333 368.45 193.23L372.79 185.5L379.1 170.5L384.41 155.5L387.3 143L387.77 137.73C387.788 137.551 387.842 137.377 387.93 137.22L391.3 131L395.63 119.95L399.38 104.95L396.71 100.05C396.567 99.7951 396.512 99.5003 396.554 99.2111C396.595 98.9219 396.731 98.6544 396.94 98.45L401 94.3L403.84 81.05C403.893 80.8162 404.007 80.6005 404.17 80.4249C404.333 80.2492 404.54 80.1199 404.77 80.05L415.37 76.82L417.53 71.65L420.39 60.65V54.52C420.379 54.417 420.379 54.3131 420.39 54.21L423.45 41.49C423.533 41.1839 423.72 40.9165 423.979 40.7339C424.239 40.5512 424.554 40.465 424.87 40.49L431.56 41.02L442.13 41.5L451.29 40.5C451.611 40.4634 451.936 40.5445 452.202 40.7283C452.469 40.9122 452.66 41.1863 452.74 41.5L453.47 44.44L460.85 44.85L468.78 40.18C469.081 40.0024 469.44 39.9486 469.78 40.03L473.23 40.79L478 33.1L479.91 19.24C479.95 18.9603 480.077 18.7002 480.273 18.4959C480.468 18.2916 480.722 18.1532 481 18.1L486.37 17.1C486.675 17.0439 486.99 17.097 487.26 17.25L491.46 19.58L499 21C499.182 21.0345 499.356 21.1065 499.509 21.2115C499.662 21.3165 499.792 21.4522 499.89 21.61C499.989 21.7657 500.055 21.9405 500.082 22.1231C500.11 22.3057 500.099 22.492 500.05 22.67L498.23 29.52L500.47 34.44C500.582 34.6904 500.615 34.969 500.565 35.2387C500.515 35.5085 500.384 35.7566 500.19 35.95L498 38.19L494.69 48.12C494.6 48.3881 494.428 48.6212 494.198 48.7863C493.968 48.9513 493.693 49.0401 493.41 49.04H490.62L488.8 51.17L492.54 56.17C492.752 56.4572 492.842 56.8168 492.79 57.17L491.39 65.55L496.59 77.36C496.697 77.6051 496.732 77.8758 496.69 78.14L494.74 89.35C494.694 89.6057 494.575 89.8426 494.397 90.0324C494.22 90.2222 493.992 90.3568 493.74 90.42L490.86 91.14V99.35C490.857 99.5926 490.792 99.8304 490.67 100.04L484.62 110.28L486.92 119.5C486.935 119.606 486.935 119.714 486.92 119.82V127.13C486.919 127.316 486.882 127.499 486.81 127.67L483.39 135.47C483.266 135.76 483.043 135.997 482.761 136.138C482.479 136.279 482.156 136.315 481.85 136.24L469.85 133.35H464.16C463.969 133.345 463.781 133.3 463.608 133.217C463.436 133.135 463.283 133.016 463.16 132.87L460.7 130C460.512 129.769 460.404 129.483 460.393 129.185C460.382 128.887 460.469 128.594 460.64 128.35L462.64 125.6L459.49 119.3L444.26 119.76C444.023 119.774 443.787 119.722 443.578 119.609C443.37 119.496 443.197 119.326 443.08 119.12L440.91 115.66L437.22 114.55L434.9 116.48L429.09 122.29C428.937 122.439 428.752 122.552 428.55 122.62L418.8 125.72L419.25 138.35C419.259 138.676 419.15 138.995 418.942 139.247C418.734 139.499 418.442 139.667 418.12 139.72L413.4 140.51V147.82L415.7 152.41C415.85 152.709 415.883 153.053 415.792 153.375C415.702 153.697 415.494 153.973 415.21 154.15L406.58 159.61V160.88L409.75 165.4C409.95 165.692 410.028 166.051 409.97 166.4L409.08 172.2L411.2 175.2C411.37 175.446 411.458 175.741 411.45 176.04L410.96 187.74C410.946 187.985 410.871 188.223 410.74 188.43L409.19 190.75L410.19 193.18L415.29 197.36C415.503 197.534 415.66 197.767 415.74 198.03L417.5 204.19L444.14 213.71C444.357 213.788 444.551 213.922 444.701 214.097C444.852 214.272 444.955 214.483 445 214.71C445.048 214.932 445.04 215.162 444.978 215.38C444.915 215.599 444.799 215.798 444.64 215.96L442.64 217.91C442.461 218.088 442.236 218.213 441.99 218.27L425.87 222L417.87 230C417.71 230.165 417.51 230.285 417.29 230.35L407.94 233L407.52 238.88C407.512 239.073 407.463 239.261 407.377 239.434C407.291 239.606 407.169 239.758 407.02 239.88L402.7 243.33L403.62 254.81C403.634 255.012 403.603 255.215 403.528 255.404C403.454 255.592 403.338 255.762 403.19 255.9L396.76 261.9L396.39 267.02L406.74 269.17L421.64 267.73L437.32 266.78L443.8 261.22C443.861 261.142 443.928 261.068 444 261L461.06 251.74C461.271 251.619 461.512 251.558 461.756 251.564C461.999 251.57 462.237 251.642 462.442 251.773C462.648 251.903 462.814 252.087 462.923 252.306C463.032 252.524 463.079 252.767 463.06 253.01L462.61 259.84L464.76 262.84C464.931 263.07 465.023 263.349 465.023 263.635C465.023 263.922 464.931 264.2 464.76 264.43L462.49 267.43L465.18 270.51C465.304 270.654 465.397 270.823 465.452 271.006C465.508 271.189 465.524 271.381 465.5 271.57C465.477 271.761 465.412 271.944 465.31 272.106C465.208 272.269 465.071 272.407 464.91 272.51L461.48 274.8L463.48 279.12C463.558 279.296 463.599 279.487 463.6 279.68V284.55C463.6 284.738 463.561 284.924 463.485 285.097C463.41 285.269 463.299 285.423 463.16 285.55L458.21 290V294L460.95 295.56C461.131 295.664 461.286 295.808 461.402 295.981C461.519 296.155 461.593 296.353 461.62 296.56L462.01 300.09L469.96 302.74C470.152 302.807 470.327 302.916 470.472 303.06C470.616 303.203 470.727 303.378 470.795 303.57C470.863 303.762 470.887 303.966 470.865 304.169C470.844 304.372 470.777 304.567 470.67 304.74L464.67 313.94L466.42 319.17C466.53 319.47 466.53 319.8 466.42 320.1L464.45 325C464.348 325.251 464.174 325.467 463.95 325.62L461.13 327.5L454.52 334.11L456.18 338.66C456.231 338.808 456.258 338.963 456.26 339.12V342.54C456.26 342.854 456.15 343.158 455.949 343.4C455.748 343.641 455.469 343.804 455.16 343.86L450.36 344.73L448.29 347.84L451.1 351.46C451.285 351.697 451.385 351.989 451.385 352.29C451.385 352.591 451.285 352.883 451.1 353.12L445.8 359.87L439 371.52L435.3 378V383.49C435.301 383.665 435.267 383.839 435.2 384L432.11 391.52L437.42 397.72C437.629 397.965 437.742 398.278 437.74 398.6V402.5C437.741 402.722 437.687 402.941 437.582 403.136C437.477 403.332 437.325 403.498 437.14 403.62L432.2 406.91L433.75 410.77C433.848 411.014 433.872 411.282 433.818 411.54C433.765 411.798 433.637 412.035 433.45 412.22L430.79 414.88L429.54 419.88L434.16 428.19C434.291 428.424 434.347 428.693 434.32 428.96L433.84 434.81C433.81 435.104 433.687 435.381 433.49 435.6L423.49 446.53L420.15 464.67C420.129 464.796 420.089 464.917 420.03 465.03L416.32 472.45L418.21 485.19C418.245 485.429 418.215 485.673 418.123 485.896C418.032 486.119 417.882 486.314 417.69 486.46L414.15 489.11L408.92 508.16C408.821 508.506 408.591 508.8 408.28 508.98L396.09 515.8C395.898 515.923 395.677 515.992 395.45 516V516ZM393.86 504.67L396.26 512.67L406.49 506.94L411.7 488C411.778 487.712 411.951 487.459 412.19 487.28L415.45 484.84L413.62 472.47C413.579 472.197 413.621 471.919 413.74 471.67L417.56 464.04L420.93 445.71C420.976 445.463 421.09 445.235 421.26 445.05L431.19 434.18L431.61 429.18L426.93 420.77C426.758 420.466 426.711 420.108 426.8 419.77L428.26 413.92C428.321 413.682 428.445 413.464 428.62 413.29L430.91 410.99L429.29 406.99C429.176 406.702 429.165 406.385 429.258 406.09C429.351 405.795 429.542 405.541 429.8 405.37L435.05 401.87V399.18L429.52 392.74C429.359 392.551 429.253 392.321 429.214 392.076C429.175 391.831 429.205 391.58 429.3 391.35L432.61 383.35V377.77C432.607 377.534 432.67 377.303 432.79 377.1L436.69 370.28L443.52 358.57C443.547 358.513 443.581 358.46 443.62 358.41L448.33 352.41L445.57 348.85C445.396 348.628 445.296 348.357 445.286 348.075C445.275 347.793 445.353 347.515 445.51 347.28L448.43 342.89C448.636 342.589 448.952 342.381 449.31 342.31L453.57 341.54V339.4L451.7 334.26C451.611 334.02 451.594 333.76 451.649 333.51C451.704 333.26 451.829 333.031 452.01 332.85L459.32 325.54L459.53 325.37L462.11 323.65L463.72 319.65L461.92 314.26C461.858 314.068 461.839 313.864 461.865 313.663C461.891 313.463 461.961 313.27 462.07 313.1L467.46 304.82L460.34 302.44C460.095 302.363 459.878 302.216 459.717 302.017C459.555 301.818 459.455 301.575 459.43 301.32L459.01 297.61L456.2 296C455.993 295.882 455.822 295.712 455.703 295.506C455.583 295.301 455.52 295.068 455.52 294.83V289.47C455.52 289.282 455.559 289.096 455.635 288.924C455.711 288.752 455.821 288.597 455.96 288.47L460.88 284V280L458.56 274.91C458.428 274.619 458.403 274.29 458.491 273.982C458.579 273.674 458.774 273.408 459.04 273.23L462.15 271.16L459.75 268.41C459.545 268.179 459.427 267.884 459.417 267.576C459.406 267.268 459.502 266.965 459.69 266.72L462 263.6L460.16 261C459.974 260.746 459.886 260.434 459.91 260.12L460.23 255.25L445.45 263.25L438.73 269C438.508 269.189 438.231 269.301 437.94 269.32L421.85 270.32L406.79 271.78C406.657 271.8 406.522 271.8 406.39 271.78L394.69 269.34C394.37 269.275 394.086 269.096 393.889 268.837C393.692 268.577 393.596 268.255 393.62 267.93L394.11 261.1C394.133 260.759 394.287 260.44 394.54 260.21L400.88 254.32L400 242.77C399.98 242.55 400.016 242.329 400.103 242.127C400.191 241.924 400.327 241.747 400.5 241.61L404.91 238.08L405.36 231.84C405.381 231.561 405.489 231.296 405.669 231.081C405.848 230.866 406.089 230.712 406.36 230.64L416.26 227.81L424.26 219.81C424.441 219.635 424.665 219.511 424.91 219.45L441.1 215.64L441.28 215.47L415.99 206.47C415.788 206.399 415.606 206.28 415.459 206.123C415.313 205.966 415.207 205.777 415.15 205.57L413.31 199.15L408.31 195.03C408.142 194.893 408.008 194.718 407.92 194.52L406.4 191C406.31 190.794 406.274 190.568 406.295 190.345C406.316 190.121 406.393 189.906 406.52 189.72L408.26 187.11L408.71 176.25L406.54 173.25C406.334 172.96 406.252 172.601 406.31 172.25L407.2 166.45L404.1 162C403.937 161.776 403.85 161.507 403.85 161.23V158.79C403.85 158.564 403.908 158.341 404.018 158.143C404.128 157.946 404.287 157.779 404.48 157.66L412.71 152.46L410.82 148.67C410.728 148.483 410.68 148.278 410.68 148.07V139.3C410.685 138.987 410.8 138.685 411.004 138.447C411.209 138.21 411.49 138.051 411.8 138L416.48 137.22L416 124.76C415.99 124.465 416.076 124.175 416.246 123.933C416.415 123.691 416.659 123.511 416.94 123.42L427.35 120.11L432.96 114.49L433.05 114.41L436 112C436.171 111.859 436.375 111.762 436.593 111.718C436.811 111.675 437.037 111.686 437.25 111.75L442.12 113.21C442.436 113.303 442.706 113.51 442.88 113.79L444.88 117.03L460.2 116.57C460.456 116.557 460.711 116.62 460.932 116.752C461.153 116.884 461.329 117.078 461.44 117.31L465.34 125.11C465.449 125.33 465.496 125.575 465.476 125.82C465.457 126.065 465.372 126.3 465.23 126.5L463.44 129L464.81 130.64H470C470.106 130.625 470.214 130.625 470.32 130.64L481.41 133.3L484.25 126.79V120L481.86 110.41C481.777 110.071 481.827 109.713 482 109.41L488.17 99V90.1C488.168 89.8019 488.266 89.5117 488.447 89.2747C488.628 89.0378 488.882 88.8673 489.17 88.79L492.22 88.03L494 78.09L488.81 66.27C488.702 66.0322 488.667 65.7677 488.71 65.51L490.08 57.31L486.08 51.92C485.894 51.6747 485.798 51.3735 485.807 51.0662C485.817 50.7589 485.93 50.4639 486.13 50.23L489 46.82C489.123 46.6746 489.276 46.5574 489.449 46.4763C489.621 46.3952 489.809 46.3521 490 46.35H492.44L495.54 37.04C495.608 36.8406 495.721 36.6594 495.87 36.51L497.65 34.73L495.6 30.22C495.469 29.9386 495.441 29.6202 495.52 29.32L497.1 23.41L490.72 22.21C490.579 22.1877 490.444 22.1403 490.32 22.07L486.32 19.86L482.4 20.58L480.58 33.75C480.553 33.9315 480.488 34.1052 480.39 34.26L475.07 43C474.923 43.2386 474.705 43.4255 474.447 43.5348C474.189 43.6441 473.903 43.6704 473.63 43.61L469.76 42.75L461.93 47.36C461.702 47.4896 461.442 47.552 461.18 47.54L452.4 47.05C452.115 47.0374 451.841 46.9334 451.619 46.7533C451.398 46.5732 451.24 46.3267 451.17 46.05L450.48 43.29L442.38 44.14H442.18L431.46 43.65L425.87 43.21L423.12 54.65V60.83C423.129 60.9432 423.129 61.0569 423.12 61.17L420.19 72.38L420.13 72.56L417.69 78.4C417.618 78.5857 417.503 78.7519 417.356 78.8856C417.208 79.0192 417.032 79.1166 416.84 79.17L406.39 82.36L403.63 95.23C403.575 95.4827 403.45 95.7148 403.27 95.9L399.59 99.57L402.04 104.05C402.206 104.356 402.249 104.714 402.16 105.05L398.26 120.65C398.248 120.705 398.231 120.758 398.21 120.81L393.78 132C393.761 132.052 393.737 132.102 393.71 132.15L390.43 138.24L389.97 143.33V143.51L387 156.2C387 156.25 387 156.3 387 156.35L381.64 171.46L375.28 186.64C375.26 186.689 375.237 186.735 375.21 186.78L370.91 194.42L369.49 200.09C369.458 200.233 369.401 200.368 369.32 200.49L361.56 212.63L354.76 225.73C354.709 225.831 354.645 225.926 354.57 226.01L343.96 237.94L350.84 241.94C351.051 242.068 351.225 242.251 351.341 242.469C351.457 242.687 351.512 242.933 351.5 243.18L351.01 251.47C350.992 251.792 350.859 252.096 350.635 252.327C350.41 252.559 350.111 252.702 349.79 252.73L344.84 253.18L334.55 261.6L329.48 268.06L327.59 277.49C327.555 277.669 327.484 277.838 327.381 277.988C327.277 278.137 327.144 278.264 326.99 278.36L314.74 286.08L317.79 294.81C317.871 295.038 317.888 295.283 317.84 295.52L316.96 299.94L322.6 311.23L327.43 319.43C327.534 319.603 327.596 319.798 327.61 320L328.56 330.91L347.91 364.78C348.009 364.947 348.068 365.136 348.08 365.33L349.02 376.58L353.1 381.11C353.222 381.245 353.316 381.403 353.376 381.575C353.436 381.746 353.461 381.928 353.45 382.11L352.97 391.11L354.65 396.11L361.38 398.8C361.557 398.871 361.718 398.979 361.851 399.117C361.984 399.255 362.085 399.42 362.15 399.6L383.59 460.53L389.42 474.59C389.42 474.69 389.48 474.79 389.5 474.89L390.94 483.54L392.85 488.78C392.892 488.903 392.919 489.031 392.93 489.16L393.86 504.67Z" fill="#0F6CF4"/>
<path d="M487.67 69.53L479.96 72.97L478.06 76.89L481.97 80.44L483.75 87.56L489.52 90.1L493.42 89.13L495.37 77.92L490.01 65.73L487.67 69.53Z" fill="#2CAAFF"/>
<path d="M489.52 91.45C489.333 91.4495 489.149 91.4085 488.98 91.33L483.21 88.79C483.022 88.709 482.856 88.5856 482.724 88.4294C482.592 88.2733 482.498 88.0886 482.45 87.89L480.77 81.17L477.15 77.88C476.936 77.6845 476.791 77.4249 476.736 77.14C476.682 76.8551 476.722 76.5603 476.85 76.3L478.74 72.38C478.883 72.0963 479.12 71.8704 479.41 71.74L486.74 68.47L488.86 65C488.991 64.7938 489.176 64.6267 489.394 64.5159C489.612 64.4051 489.856 64.3547 490.1 64.37C490.345 64.3849 490.582 64.4676 490.783 64.6088C490.984 64.75 491.142 64.9443 491.24 65.17L496.6 77.35C496.707 77.5951 496.742 77.8658 496.7 78.13L494.75 89.34C494.704 89.5956 494.585 89.8326 494.407 90.0224C494.23 90.2122 494.002 90.3467 493.75 90.41L489.85 91.41C489.741 91.4331 489.631 91.4465 489.52 91.45V91.45ZM484.9 86.59L489.64 88.68L492.24 88.03L494 78.09L489.84 68.62L488.84 70.24C488.699 70.468 488.494 70.649 488.25 70.76L481 74L479.76 76.57L482.93 79.45C483.129 79.6266 483.269 79.8607 483.33 80.12L484.9 86.59Z" fill="#0F6CF4"/>
</svg>
