<svg width="847" height="525" viewBox="0 0 847 525" fill="none" xmlns="http://www.w3.org/2000/svg">
<circle cx="341.5" cy="43.7251" r="6.5" fill="#FF002E"/>
<circle cx="434.5" cy="68.4995" r="6.5" fill="#FF002E"/>
<path d="M351.5 39.7253C378.058 16.9014 400.5 41.4997 424.5 67" stroke="#FF002E" stroke-width="5" stroke-linecap="round" stroke-linejoin="round" stroke-dasharray="10 10"/>
<circle cx="341.5" cy="43.7251" r="3.5" fill="white"/>
<circle cx="434.5" cy="68.4995" r="3.5" fill="white"/>
<path d="M429.067 50.6729C429.457 48.4179 431.206 46.627 433.405 46.1276C433.648 46.0721 433.657 46.0519 434.023 46.0216C434.389 45.9914 434.606 45.9964 434.868 46.0115C435.13 46.0267 435.189 46.0519 435.348 46.0822C437.22 46.4252 438.609 47.4543 439.444 49.1948C440.057 50.4661 440.2 51.7878 439.686 53.1448C439.311 54.1437 438.807 55.0719 438.248 55.9648C437.304 57.4783 436.237 58.8958 435.105 60.268C434.908 60.5102 434.7 60.7473 434.493 60.9995C434.433 60.9339 434.389 60.8885 434.349 60.8381C433.381 59.703 432.462 58.5225 431.607 57.2916C430.816 56.1515 430.08 54.9811 429.516 53.6998C429.091 52.7312 428.884 51.7424 429.067 50.6729ZM434.502 54.2547C436.148 54.2547 437.492 52.9329 437.576 51.2732C437.581 51.2177 437.581 51.1673 437.581 51.1118C437.581 51.0563 437.581 51.0059 437.576 50.9504C437.492 49.2906 436.148 47.9689 434.502 47.9689C432.857 47.9689 431.513 49.2906 431.429 50.9504C431.424 51.0059 431.424 51.0563 431.424 51.1118C431.424 51.1673 431.424 51.2177 431.429 51.2732C431.508 52.9329 432.852 54.2547 434.502 54.2547Z" fill="#FF002E"/>
<circle r="6.5" transform="matrix(-1 0 0 1 583.5 73.4995)" fill="#FF002E"/>
<circle r="6.5" transform="matrix(-1 0 0 1 471.5 75.8145)" fill="#FF002E"/>
<path d="M572.5 71.5004C545.942 48.6765 505.5 48.8144 481.5 74.3147" stroke="#FF002E" stroke-width="5" stroke-linecap="round" stroke-linejoin="round" stroke-dasharray="10 10"/>
<circle r="3.5" transform="matrix(-1 0 0 1 583.5 73.4995)" fill="white"/>
<circle r="3.5" transform="matrix(-1 0 0 1 471.5 75.8145)" fill="white"/>
<path d="M476.933 57.9878C476.543 55.7328 474.794 53.9419 472.595 53.4425C472.352 53.387 472.343 53.3668 471.977 53.3366C471.611 53.3063 471.394 53.3114 471.132 53.3265C470.87 53.3416 470.811 53.3668 470.652 53.3971C468.78 53.7402 467.391 54.7693 466.556 56.5097C465.943 57.781 465.8 59.1027 466.314 60.4598C466.689 61.4586 467.193 62.3869 467.752 63.2798C468.696 64.7932 469.763 66.2108 470.895 67.583C471.092 67.8251 471.3 68.0622 471.507 68.3145C471.567 68.2489 471.611 68.2035 471.651 68.153C472.619 67.018 473.538 65.8375 474.393 64.6066C475.184 63.4664 475.92 62.2961 476.484 61.0147C476.909 60.0461 477.116 59.0573 476.933 57.9878ZM471.498 61.5696C469.852 61.5696 468.508 60.2479 468.424 58.5882C468.419 58.5327 468.419 58.4822 468.419 58.4267C468.419 58.3712 468.419 58.3208 468.424 58.2653C468.508 56.6056 469.852 55.2839 471.498 55.2839C473.143 55.2839 474.487 56.6056 474.571 58.2653C474.576 58.3208 474.576 58.3712 474.576 58.4267C474.576 58.4822 474.576 58.5327 474.571 58.5882C474.492 60.2479 473.148 61.5696 471.498 61.5696Z" fill="#FF002E"/>
<circle r="6.5" transform="matrix(-1 0 0 1 521.5 211.186)" fill="#FF002E"/>
<circle r="6.5" transform="matrix(-1 0 0 1 450.5 268.5)" fill="#FF002E"/>
<path d="M510.5 209.187C472.5 214.5 470.5 257 459 262.5" stroke="#FF002E" stroke-width="5" stroke-linecap="round" stroke-linejoin="round" stroke-dasharray="10 10"/>
<circle r="3.5" transform="matrix(-1 0 0 1 521.5 211.186)" fill="white"/>
<circle r="3.5" transform="matrix(-1 0 0 1 450.5 268.5)" fill="white"/>
<path d="M455.933 250.673C455.543 248.418 453.794 246.627 451.595 246.128C451.352 246.073 451.343 246.052 450.977 246.022C450.611 245.992 450.394 245.997 450.132 246.012C449.87 246.027 449.811 246.052 449.652 246.083C447.78 246.426 446.391 247.455 445.556 249.195C444.943 250.467 444.8 251.788 445.314 253.145C445.689 254.144 446.193 255.072 446.752 255.965C447.696 257.479 448.763 258.896 449.895 260.269C450.092 260.511 450.3 260.748 450.507 261C450.567 260.934 450.611 260.889 450.651 260.839C451.619 259.703 452.538 258.523 453.393 257.292C454.184 256.152 454.92 254.982 455.484 253.7C455.909 252.732 456.116 251.743 455.933 250.673ZM450.498 254.255C448.852 254.255 447.508 252.933 447.424 251.274C447.419 251.218 447.419 251.168 447.419 251.112C447.419 251.057 447.419 251.006 447.424 250.951C447.508 249.291 448.852 247.969 450.498 247.969C452.143 247.969 453.487 249.291 453.571 250.951C453.576 251.006 453.576 251.057 453.576 251.112C453.576 251.168 453.576 251.218 453.571 251.274C453.492 252.933 452.148 254.255 450.498 254.255Z" fill="#FF002E"/>
<circle cx="324.5" cy="223.186" r="6.5" fill="#FF002E"/>
<circle cx="388.5" cy="178.5" r="6.5" fill="#FF002E"/>
<path d="M335.5 221.186C362.058 198.362 377 212 385.5 189" stroke="#FF002E" stroke-width="5" stroke-linecap="round" stroke-linejoin="round" stroke-dasharray="10 10"/>
<circle cx="324.5" cy="223.186" r="3.5" fill="white"/>
<circle cx="388.5" cy="178.5" r="3.5" fill="white"/>
<path d="M383.067 160.673C383.457 158.418 385.206 156.627 387.405 156.128C387.648 156.073 387.657 156.052 388.023 156.022C388.389 155.992 388.606 155.997 388.868 156.012C389.13 156.027 389.189 156.052 389.348 156.083C391.22 156.426 392.609 157.455 393.444 159.195C394.057 160.467 394.2 161.788 393.686 163.145C393.311 164.144 392.807 165.072 392.248 165.965C391.304 167.479 390.237 168.896 389.105 170.269C388.908 170.511 388.7 170.748 388.493 171C388.433 170.934 388.389 170.889 388.349 170.839C387.381 169.703 386.462 168.523 385.607 167.292C384.816 166.152 384.08 164.982 383.516 163.7C383.091 162.732 382.884 161.743 383.067 160.673ZM388.502 164.255C390.148 164.255 391.492 162.933 391.576 161.274C391.581 161.218 391.581 161.168 391.581 161.112C391.581 161.057 391.581 161.006 391.576 160.951C391.492 159.291 390.148 157.969 388.502 157.969C386.857 157.969 385.513 159.291 385.429 160.951C385.424 161.006 385.424 161.057 385.424 161.112C385.424 161.168 385.424 161.218 385.429 161.274C385.508 162.933 386.852 164.255 388.502 164.255Z" fill="#FF002E"/>
<circle r="6.5" transform="matrix(-1 0 0 1 510.5 363.5)" fill="#FF002E"/>
<circle r="6.5" transform="matrix(-1 0 0 1 376.5 341.5)" fill="#FF002E"/>
<path d="M500 359C473.442 336.176 388 373.5 380 350.5" stroke="#FF002E" stroke-width="5" stroke-linecap="round" stroke-linejoin="round" stroke-dasharray="10 10"/>
<circle r="3.5" transform="matrix(-1 0 0 1 510.5 363.5)" fill="white"/>
<circle r="3.5" transform="matrix(-1 0 0 1 376.5 341.5)" fill="white"/>
<path d="M381.933 323.673C381.543 321.418 379.794 319.627 377.595 319.128C377.352 319.073 377.343 319.052 376.977 319.022C376.611 318.992 376.394 318.997 376.132 319.012C375.87 319.027 375.811 319.052 375.652 319.083C373.78 319.426 372.391 320.455 371.556 322.195C370.943 323.467 370.8 324.788 371.314 326.145C371.689 327.144 372.193 328.072 372.752 328.965C373.696 330.479 374.763 331.896 375.895 333.269C376.092 333.511 376.3 333.748 376.507 334C376.567 333.934 376.611 333.889 376.651 333.839C377.619 332.703 378.538 331.523 379.393 330.292C380.184 329.152 380.92 327.982 381.484 326.7C381.909 325.732 382.116 324.743 381.933 323.673ZM376.498 327.255C374.852 327.255 373.508 325.933 373.424 324.274C373.419 324.218 373.419 324.168 373.419 324.112C373.419 324.057 373.419 324.006 373.424 323.951C373.508 322.291 374.852 320.969 376.498 320.969C378.143 320.969 379.487 322.291 379.571 323.951C379.576 324.006 379.576 324.057 379.576 324.112C379.576 324.168 379.576 324.218 379.571 324.274C379.492 325.933 378.148 327.255 376.498 327.255Z" fill="#FF002E"/>
<circle cx="304.5" cy="445.5" r="6.5" fill="#FF002E"/>
<circle cx="402.5" cy="493.5" r="6.5" fill="#FF002E"/>
<path d="M315 441C341.558 418.176 363.5 512.999 395.5 504.5" stroke="#FF002E" stroke-width="5" stroke-linecap="round" stroke-linejoin="round" stroke-dasharray="10 10"/>
<circle cx="304.5" cy="445.5" r="3.5" fill="white"/>
<circle cx="402.5" cy="493.5" r="3.5" fill="white"/>
<path d="M397.067 475.673C397.457 473.418 399.206 471.627 401.405 471.128C401.648 471.073 401.657 471.052 402.023 471.022C402.389 470.992 402.606 470.997 402.868 471.012C403.13 471.027 403.189 471.052 403.348 471.083C405.22 471.426 406.609 472.455 407.444 474.195C408.057 475.467 408.2 476.788 407.686 478.145C407.311 479.144 406.807 480.072 406.248 480.965C405.304 482.479 404.237 483.896 403.105 485.269C402.908 485.511 402.7 485.748 402.493 486C402.433 485.934 402.389 485.889 402.349 485.839C401.381 484.703 400.462 483.523 399.607 482.292C398.816 481.152 398.08 479.982 397.516 478.7C397.091 477.732 396.884 476.743 397.067 475.673ZM402.502 479.255C404.148 479.255 405.492 477.933 405.576 476.274C405.581 476.218 405.581 476.168 405.581 476.112C405.581 476.057 405.581 476.006 405.576 475.951C405.492 474.291 404.148 472.969 402.502 472.969C400.857 472.969 399.513 474.291 399.429 475.951C399.424 476.006 399.424 476.057 399.424 476.112C399.424 476.168 399.424 476.218 399.429 476.274C399.508 477.933 400.852 479.255 402.502 479.255Z" fill="#FF002E"/>
<circle cx="163.5" cy="280.057" r="6.5" fill="#FF002E"/>
<circle cx="387.5" cy="312.5" r="6.5" fill="#FF002E"/>
<path d="M173.5 287C230.5 341.5 342 297 377.5 310.5" stroke="#FF002E" stroke-width="5" stroke-linecap="round" stroke-linejoin="round" stroke-dasharray="10 10"/>
<circle cx="163.5" cy="280.057" r="3.5" fill="white"/>
<circle cx="387.5" cy="312.5" r="3.5" fill="white"/>
<path d="M382.067 294.673C382.457 292.418 384.206 290.627 386.405 290.128C386.648 290.073 386.657 290.052 387.023 290.022C387.389 289.992 387.606 289.997 387.868 290.012C388.13 290.027 388.189 290.052 388.348 290.083C390.22 290.426 391.609 291.455 392.444 293.195C393.057 294.467 393.2 295.788 392.686 297.145C392.311 298.144 391.807 299.072 391.248 299.965C390.304 301.479 389.237 302.896 388.105 304.269C387.908 304.511 387.7 304.748 387.493 305C387.433 304.934 387.389 304.889 387.349 304.839C386.381 303.703 385.462 302.523 384.607 301.292C383.816 300.152 383.08 298.982 382.516 297.7C382.091 296.732 381.884 295.743 382.067 294.673ZM387.502 298.255C389.148 298.255 390.492 296.933 390.576 295.274C390.581 295.218 390.581 295.168 390.581 295.112C390.581 295.057 390.581 295.006 390.576 294.951C390.492 293.291 389.148 291.969 387.502 291.969C385.857 291.969 384.513 293.291 384.429 294.951C384.424 295.006 384.424 295.057 384.424 295.112C384.424 295.168 384.424 295.218 384.429 295.274C384.508 296.933 385.852 298.255 387.502 298.255Z" fill="#FF002E"/>
<circle cx="180.5" cy="99.5" r="6.5" fill="#FF002E"/>
<circle cx="404.5" cy="131.943" r="6.5" fill="#FF002E"/>
<path d="M190.5 106.443C247.5 160.943 359 116.443 394.5 129.943" stroke="#FF002E" stroke-width="5" stroke-linecap="round" stroke-linejoin="round" stroke-dasharray="10 10"/>
<circle cx="180.5" cy="99.5" r="3.5" fill="white"/>
<circle cx="404.5" cy="131.943" r="3.5" fill="white"/>
<path d="M399.067 114.117C399.457 111.862 401.206 110.071 403.405 109.571C403.648 109.516 403.657 109.496 404.023 109.465C404.389 109.435 404.606 109.44 404.868 109.455C405.13 109.471 405.189 109.496 405.348 109.526C407.22 109.869 408.609 110.898 409.444 112.639C410.057 113.91 410.2 115.232 409.686 116.589C409.311 117.588 408.807 118.516 408.248 119.409C407.304 120.922 406.237 122.34 405.105 123.712C404.908 123.954 404.7 124.191 404.493 124.443C404.433 124.378 404.389 124.332 404.349 124.282C403.381 123.147 402.462 121.966 401.607 120.735C400.816 119.595 400.08 118.425 399.516 117.144C399.091 116.175 398.884 115.186 399.067 114.117ZM404.502 117.699C406.148 117.699 407.492 116.377 407.576 114.717C407.581 114.662 407.581 114.611 407.581 114.556C407.581 114.5 407.581 114.45 407.576 114.394C407.492 112.734 406.148 111.413 404.502 111.413C402.857 111.413 401.513 112.734 401.429 114.394C401.424 114.45 401.424 114.5 401.424 114.556C401.424 114.611 401.424 114.662 401.429 114.717C401.508 116.377 402.852 117.699 404.502 117.699Z" fill="#FF002E"/>
</svg>
