<svg width="847" height="525" viewBox="0 0 847 525" fill="none" xmlns="http://www.w3.org/2000/svg">
<path d="M817 0H30C13.4315 0 0 13.4315 0 30V495C0 511.569 13.4315 525 30 525H817C833.569 525 847 511.569 847 495V30C847 13.4315 833.569 0 817 0Z" fill="#2CAAFF"/>
<g opacity="0.5">
<path opacity="0.5" d="M73.2804 9.4L86.1604 16.88L91.1404 13.56L86.9804 5.25L86.3304 0H63.9404L72.0404 5.67L73.2804 9.4Z" fill="white"/>
</g>
<path d="M615.82 175.63L616.32 169.63L624.83 168.01L623.75 165.11L625.46 155.28L632.11 148.63L632.6 146.33H661.18V141.4L668.53 143.03L675.42 150.83L656.42 155.14L651.42 159.74L643.55 160.15L638.61 165.48L623.87 174.69L615.82 175.63ZM617.24 170.5L616.91 174.5L623.67 173.75L638.05 164.75L643.13 159.26L651.04 158.84L656.04 154.3L673.62 150.3L668 144L662.17 142.71V147.4H633.4L633.01 149.2L626.38 155.83L624.77 165.1L626.17 168.84L617.24 170.5Z" fill="#2CAAFF"/>
<g opacity="0.5">
<path opacity="0.5" d="M843.07 32.91C843.07 32.604 843.01 32.3011 842.893 32.0184C842.776 31.7357 842.604 31.4788 842.388 31.2625C842.171 31.0461 841.914 30.8745 841.632 30.7574C841.349 30.6403 841.046 30.58 840.74 30.58H839.56C839.223 30.5795 838.891 30.5064 838.585 30.3656C838.279 30.2249 838.008 30.0198 837.788 29.7645C837.569 29.5092 837.408 29.2095 837.315 28.886C837.222 28.5625 837.2 28.2228 837.25 27.89V27.61C837.298 27.2969 837.281 26.9772 837.201 26.6707C837.121 26.3642 836.979 26.0773 836.785 25.8274C836.59 25.5775 836.346 25.3699 836.069 25.2173C835.791 25.0648 835.485 24.9704 835.17 24.94L831.7 24.59C831.088 24.515 830.53 24.2002 830.15 23.7147C829.769 23.2291 829.597 22.6125 829.67 22L830.74 13.72C830.816 13.1243 830.66 12.5222 830.305 12.0383C829.949 11.5543 829.421 11.2255 828.83 11.12L824 10.24C824 10.24 821.51 13.56 821.51 14.8C821.51 16.04 822.34 18.12 821.09 17.71C819.84 17.3 816.09 15.22 816.09 15.22L811.09 16.88L803.2 17.71L797.8 21.86C797.397 21.5461 797.079 21.1361 796.874 20.6675C796.67 20.1989 796.587 19.6867 796.632 19.1775C796.676 18.6684 796.848 18.1786 797.131 17.7528C797.413 17.327 797.798 16.9788 798.25 16.74L808.18 11.48H818.18L824 4.42002L827.62 1.93002C824.226 0.649896 820.628 -0.00401986 817 1.85916e-05H794.94L793.24 4.42002L785.77 11.48L777.49 26C777.492 26.0267 777.492 26.0534 777.49 26.08L772.98 32.65L772.92 32.73L767.92 41.41L765.54 45.77C765.462 45.9049 765.414 46.055 765.4 46.21L765.06 49.29C765.025 49.5617 764.902 49.8144 764.71 50.01L757.47 57.25C757.248 57.4738 757.123 57.7751 757.12 58.09V63.72C757.119 63.8847 757.085 64.0474 757.019 64.1986C756.954 64.3497 756.859 64.4862 756.74 64.6L738.86 81.26C738.728 81.3839 738.569 81.4761 738.396 81.5298C738.222 81.5835 738.039 81.5973 737.86 81.57V81.57C737.646 81.5355 737.445 81.4435 737.278 81.3038C737.112 81.1641 736.987 80.9819 736.916 80.7766C736.845 80.5713 736.832 80.3507 736.876 80.1382C736.921 79.9257 737.022 79.7294 737.17 79.57L752.17 64.21C752.286 64.0901 752.377 63.9473 752.435 63.7906C752.494 63.634 752.519 63.467 752.51 63.3L752.16 57.3C752.15 57.1354 752.174 56.9705 752.231 56.8156C752.288 56.6608 752.376 56.5193 752.49 56.4L761 47.5C761.171 47.3211 761.282 47.0943 761.32 46.85L762.46 39.27C762.491 39.0434 762.588 38.831 762.74 38.66L767.67 32.96C767.825 32.79 767.926 32.5776 767.96 32.35L769.11 24.26C769.141 24.0735 769.213 23.896 769.32 23.74L776.22 14V5.67002L781.67 1.85916e-05H96L97.83 7.33002C209.58 74 356.37 91.65 516.06 75.53L628.09 199L676.76 167.47L816.08 71.27L819 68.36L833.53 65.87L829.38 60.87L827.3 56.3L824 53.42L829.4 52.59L833.13 60.47L841.02 57.57L843.51 50.09L847 47.22V37.54C847 37.0185 846.826 36.5119 846.505 36.1007C846.185 35.6894 845.736 35.3971 845.23 35.27L844.83 35.17C844.327 35.0431 843.881 34.7518 843.562 34.3424C843.243 33.933 843.07 33.4289 843.07 32.91V32.91Z" fill="white"/>
</g>
<g opacity="0.5">
<path opacity="0.5" d="M416.45 504.64L411.44 499L323.74 354.3L117.01 323.6L99.4697 333.62L100.1 344.9L103.86 352.42L101.35 358.05L104.69 364.89H128.94L131.42 358.68L138.31 356.17L148.81 365.15L214.47 430.87H284.79L347.05 493.13V525H413.51L411.44 510.91L416.45 504.64Z" fill="white"/>
</g>
<path d="M812.76 68.7796V63.3796L808.61 63.7996L798.64 35.1496L792 33.0696L784.94 39.7196L785.77 35.5596H781.2L775.8 50.5096L774.14 60.8896L776.63 69.6096L769.14 73.0196L771.65 79.9896L763.76 83.3096L762.52 88.7096L714.36 101.17L708.54 113.62L696.92 118.6L695.25 126.08L684.04 125.66L667.85 131.89L660.79 136.04V141.85L670.16 145.06L674.5 150.57L656.23 154.73L651.24 159.29L643.36 159.71L623.84 174.24L614.41 174.5L615.03 172L625.5 168.43L624.43 161.35L625.92 155.56L634.45 145.06L628.82 130.65L632.58 118.75L632.56 112.79H638.37L639.47 119.38L650.41 120.26L653.25 114.37L648.75 109.47L643.23 101.21L636.3 94.9396L630.07 97.4496L624.26 93.2796L596.02 95.3496L590.6 91.1896L583.09 89.9396L582.74 82.8996L584.97 75.5296L578.58 72.9296L574.32 67.3796L558.65 66.1296L557.4 55.4796L552.01 54.6596L544.87 60.4896L541.63 52.1696L532.97 53.5996L531.09 61.1196H524.2L523.78 66.2896L516.06 75.5296L509.79 73.0196L501.02 68.6396L493.5 71.1396L487.87 65.4996L470.95 59.8696L468.45 62.9996L462.18 63.6296L450.28 57.3596V46.7096H445.89L444.01 54.2296L407.68 53.5996L269.86 44.1996L141.44 19.1496L97.7796 7.32959L103.23 16.6396L97.5896 20.3996L101.35 29.1696L95.7096 31.0496L88.8196 21.0296L78.1696 19.1496L70.6596 11.6296L67.5196 12.8796L72.5296 36.0596L75.6696 39.1896L72.5296 42.9496L69.3996 47.3396L72.5296 50.4696L71.2796 54.8496H68.1496L66.2696 69.2596L48.0996 106.85L40.5896 111.86L41.8396 132.53L39.9596 141.93L39.3296 147.57L29.3096 160.1L30.5596 167.62L35.5696 169.49V175.76L32.4396 183.9L39.9596 200.19L37.4496 206.45L45.5996 213.97L41.2096 220.24L44.3396 230.88L48.0996 232.76L48.7296 239.03L43.0896 242.16L56.8696 272.23L56.2496 284.13L61.2596 287.89H70.0296L75.6696 299.79L83.8096 302.93L85.6896 308.56L94.4596 312.32L99.4696 333.62L137.06 338.01L136.43 343.02L189.68 374.97L236.04 381.23V373.09L265.48 378.1L269.86 379.35L272.37 386.24L280.51 393.76L283.65 398.15L289.91 399.4L294.92 410.05L292.42 418.19L301.81 428.21L305.57 427.59L310.58 432.6L317.47 435.11L323.74 420.07H330.63L331.88 423.2L349.42 425.08L360.07 436.36L362.58 450.77L371.35 457.66L373.85 469.56L377.61 478.33L382 488.98L411.44 499L408.94 481.46L413.95 467.06L412.69 462.04L421.46 457.66L447.15 441.37V434.48L470.95 425.71H487.24L491 429.47H497.89L498.52 423.83L509.17 423.2L513.55 431.97H518.56V434.48L519.82 437.61L522.95 436.99L531.72 431.35L536.73 428.84L539.24 432.6L548.63 433.85L549.88 430.1L539.86 426.34L547.38 423.2L543.62 419.44H540.49L535.48 420.07L536.1 413.18L542.37 411.3L552.39 410.68H561.79L563.67 406.29L569.93 405.04L571.18 408.8H579.95L589.98 406.92L608.77 411.3L611.28 416.31H618.17L627.56 410.68L629.44 406.29L639.47 408.17L643.23 413.81L657.63 423.2L660.14 433.23V442L668.91 445.76L669.53 448.26L662.64 452.02L673.29 470.81L679.56 470.19L682.06 480.21L691.46 481.46L697.1 493.99L708.38 488.98L706.5 480.84L710.88 477.7L709.63 460.79L694.59 438.87L695.85 430.72L683.32 413.81L673.29 388.75L675.17 366.2L698.35 338.63L700.23 332.37L707.75 319.84L715.89 318.59L719.65 307.94L730.93 299.79L741.58 299.17L739.07 292.28L734.06 291.02L732.18 283.51L740.32 285.39L744.71 274.74L740.32 260.95L735.31 255.32L730.3 257.2V249.68L726.54 245.29L729.67 239.03L714.64 232.76L714.01 229.63L722.78 231.51L724.04 227.13L720.28 222.74L719.65 211.47L727.79 208.96L727.17 222.74L730.3 231.51L736.57 234.02L734.68 247.8L738.44 249.68L741.58 235.9L743.46 225.87L745.34 219.61L738.44 214.6L730.3 203.32L734.68 198.94L737.19 202.07L734.68 204.57L743.46 209.59L750.35 202.69L752.85 188.91L746.59 183.28V178.89L764.13 178.26L774.78 168.24L772.27 166.36L762.88 172.63H752.85L754.73 168.87L762.25 161.98L781.04 156.97L784.8 150.07L787.93 146.94L790.44 148.19V150.7L804.85 145.06L802.97 137.54H799.84L800.46 142.56L793.57 144.44L788.56 138.17L782.92 137.54L787.31 127.52L784.8 119.38L787.31 104.97L792.95 101.84L804.85 96.8296L803.59 89.3096L810.49 86.1796L823.64 78.0296L818.99 68.3596L812.76 68.7796Z" fill="white"/>
<path d="M411.44 500.33C411.293 500.331 411.148 500.307 411.01 500.26L381.57 490.26C381.39 490.199 381.226 490.101 381.088 489.972C380.95 489.842 380.841 489.685 380.77 489.51L376.38 478.86L372.63 470.1C372.597 470.018 372.57 469.935 372.55 469.85L370.15 458.43L361.76 451.83C361.497 451.63 361.321 451.336 361.27 451.01L358.83 437.01L348.83 426.38L331.78 424.56C331.54 424.533 331.312 424.442 331.12 424.296C330.928 424.15 330.779 423.954 330.69 423.73L329.77 421.43H324.67L318.74 435.65C318.608 435.965 318.361 436.218 318.048 436.356C317.735 436.494 317.381 436.506 317.06 436.39L310.17 433.88C309.987 433.812 309.82 433.706 309.68 433.57L305.11 429L302.03 429.52C301.813 429.555 301.591 429.536 301.383 429.464C301.175 429.393 300.989 429.271 300.84 429.11L291.45 419.11C291.287 418.94 291.173 418.73 291.12 418.501C291.067 418.272 291.078 418.033 291.15 417.81L293.5 410.16L289 400.57L283.39 399.45C283.061 399.379 282.769 399.19 282.57 398.92L279.52 394.64L271.52 387.22C271.36 387.08 271.239 386.9 271.17 386.7L268.9 380.45L265.23 379.4L237.42 374.66V381.23C237.418 381.419 237.377 381.606 237.298 381.779C237.219 381.951 237.104 382.105 236.962 382.229C236.819 382.354 236.651 382.447 236.47 382.503C236.289 382.558 236.098 382.574 235.91 382.55L189.55 376.29C189.373 376.262 189.204 376.2 189.05 376.11L135.8 344.16C135.579 344.026 135.401 343.831 135.288 343.599C135.174 343.366 135.13 343.107 135.16 342.85L135.62 339.17L99.3697 334.94C99.0994 334.912 98.8445 334.801 98.6403 334.622C98.436 334.442 98.2925 334.204 98.2297 333.94L93.3697 313.29L85.2197 309.8C85.0468 309.726 84.8915 309.617 84.764 309.479C84.6364 309.341 84.5395 309.178 84.4797 309L82.7997 303.95L75.1897 301C74.8706 300.871 74.6105 300.629 74.4597 300.32L69.1897 289.18H61.2597C60.972 289.181 60.6915 289.09 60.4597 288.92L55.4597 285.16C55.2842 285.028 55.1439 284.855 55.0515 284.656C54.959 284.457 54.9172 284.239 54.9297 284.02L55.5397 272.45L41.8797 242.71C41.7402 242.406 41.7215 242.06 41.8274 241.742C41.9332 241.425 42.1556 241.159 42.4497 241L47.3197 238.29L46.8497 233.63L43.7497 232.08C43.5856 231.998 43.4404 231.883 43.3233 231.741C43.2062 231.6 43.1198 231.436 43.0697 231.26L39.9397 220.61C39.8814 220.419 39.8673 220.217 39.8985 220.019C39.9297 219.822 40.0053 219.634 40.1197 219.47L43.8397 214.16L36.5497 207.43C36.3525 207.247 36.2154 207.008 36.1565 206.746C36.0975 206.484 36.1196 206.209 36.2197 205.96L38.5097 200.23L31.2297 184.46C31.1006 184.139 31.1006 183.781 31.2297 183.46L34.2297 175.55V170.46L30.0897 168.9C29.8741 168.82 29.6827 168.686 29.5339 168.511C29.385 168.336 29.2837 168.125 29.2397 167.9L27.9997 160.32C27.9766 160.144 27.9886 159.964 28.035 159.793C28.0813 159.621 28.1611 159.461 28.2697 159.32L38.0497 147L38.6397 141.74C38.6397 141.74 38.6397 141.67 38.6397 141.63L40.4897 132.4L39.2497 111.9C39.2351 111.667 39.2819 111.435 39.3855 111.226C39.489 111.017 39.6457 110.839 39.8397 110.71L47.0497 105.9L64.9997 68.8798L66.8497 54.6798C66.893 54.3599 67.0505 54.0663 67.293 53.8532C67.5355 53.6401 67.8468 53.5217 68.1697 53.5198H70.2997L70.9997 50.8598L68.4197 48.2798C68.1975 48.0555 68.0616 47.76 68.0359 47.4453C68.0103 47.1307 68.0966 46.817 68.2797 46.5598L71.4097 42.1798L73.8297 39.2798L71.5897 36.9998C71.4109 36.8174 71.2863 36.5889 71.2297 36.3398L66.2297 13.1598C66.1643 12.8579 66.2053 12.5427 66.3456 12.2676C66.4859 11.9924 66.717 11.7742 66.9997 11.6498L70.1297 10.3898C70.373 10.2952 70.6385 10.2732 70.8941 10.3265C71.1497 10.3797 71.3844 10.5059 71.5697 10.6898L78.7897 17.9098L89.0197 19.7198C89.1938 19.7496 89.3603 19.8135 89.5096 19.9079C89.6589 20.0023 89.7881 20.1253 89.8897 20.2698L96.2097 29.4698L99.5297 28.3698L96.3397 20.9198C96.2189 20.6345 96.2008 20.3162 96.2883 20.019C96.3758 19.7218 96.5636 19.4641 96.8197 19.2898L101.42 16.2298L96.6297 7.9998C96.4803 7.77121 96.405 7.50219 96.4138 7.22929C96.4227 6.95639 96.5153 6.69282 96.6791 6.47438C96.843 6.25595 97.07 6.09322 97.3296 6.00832C97.5891 5.92341 97.8684 5.92044 98.1297 5.9998L141.79 17.8198L270 42.8798L407.73 52.2698L442.94 52.8798L444.56 46.3898C444.635 46.1043 444.802 45.8515 445.035 45.6707C445.268 45.4899 445.555 45.3911 445.85 45.3898H450.24C450.592 45.3924 450.928 45.5334 451.177 45.7822C451.426 46.0311 451.567 46.3679 451.57 46.7198V56.5698L462.41 62.2698L467.72 61.7398L469.91 58.9998C470.079 58.7867 470.31 58.6305 470.571 58.5519C470.832 58.4733 471.11 58.476 471.37 58.5598L488.29 64.1998C488.482 64.2712 488.659 64.3799 488.81 64.5198L493.86 69.5798L500.6 67.3298C500.931 67.226 501.289 67.2547 501.6 67.4098L510.32 71.7698L515.63 73.8898L522.47 65.7198L522.85 60.9698C522.88 60.6373 523.032 60.328 523.278 60.1023C523.524 59.8767 523.846 59.7509 524.18 59.7498H530.03L531.66 53.2398C531.721 52.9867 531.854 52.757 532.045 52.5793C532.235 52.4015 532.473 52.2835 532.73 52.2398L541.39 50.8098C541.691 50.7591 542.001 50.814 542.267 50.9652C542.533 51.1164 542.739 51.3546 542.85 51.6398L545.43 58.2598L551.15 53.5798C551.288 53.4669 551.448 53.3838 551.621 53.3356C551.793 53.2874 551.973 53.2752 552.15 53.2998L557.54 54.1198C557.828 54.1638 558.093 54.3011 558.296 54.5107C558.498 54.7203 558.626 54.9905 558.66 55.2798L559.79 64.8398L574.36 66.0098C574.553 66.0181 574.743 66.0679 574.915 66.1559C575.088 66.2439 575.239 66.368 575.36 66.5198L579.36 71.7798L585.41 74.2498C585.716 74.3731 585.965 74.6069 586.108 74.905C586.251 75.203 586.276 75.5438 586.18 75.8598L584.02 83.0098L584.3 88.7498L590.76 89.8298C590.975 89.8604 591.178 89.9466 591.35 90.0798L596.35 93.9398L624.08 91.9398C624.391 91.9105 624.702 91.9998 624.95 92.1898L630.25 95.9998L635.8 93.7498C636.032 93.6579 636.285 93.6326 636.53 93.6768C636.776 93.721 637.004 93.8328 637.19 93.9998L644.12 100.28C644.2 100.35 644.271 100.431 644.33 100.52L649.8 108.69L654.23 113.52C654.409 113.715 654.525 113.959 654.564 114.221C654.603 114.483 654.564 114.751 654.45 114.99L651.61 120.89C651.496 121.133 651.31 121.335 651.078 121.469C650.845 121.604 650.577 121.663 650.31 121.64L639.36 120.75C639.064 120.729 638.783 120.609 638.564 120.41C638.344 120.21 638.198 119.942 638.15 119.65L637.25 114.17H633.89V118.8C633.89 118.935 633.87 119.07 633.83 119.2L630.22 130.66L635.68 144.66C635.767 144.878 635.794 145.115 635.759 145.347C635.724 145.579 635.627 145.797 635.48 145.98L627.12 156.25L625.78 161.5L626.78 168.31C626.825 168.619 626.76 168.934 626.598 169.2C626.435 169.467 626.185 169.668 625.89 169.77L616.15 173V173.11L623.41 172.9L642.59 158.62C642.8 158.459 643.055 158.368 643.32 158.36L650.73 157.97L655.36 153.72C655.531 153.568 655.737 153.462 655.96 153.41L672.18 149.72L669.39 146.17L660.39 143.09C660.126 143.001 659.897 142.832 659.736 142.606C659.574 142.379 659.488 142.108 659.49 141.83V136C659.489 135.768 659.55 135.541 659.666 135.341C659.782 135.141 659.949 134.975 660.15 134.86L667.21 130.7L667.4 130.61L683.6 124.38C683.765 124.315 683.942 124.285 684.12 124.29L694.23 124.67L695.65 118.28C695.694 118.073 695.787 117.88 695.921 117.717C696.055 117.553 696.226 117.424 696.42 117.34L707.58 112.56L713.18 100.56C713.263 100.383 713.384 100.227 713.534 100.103C713.685 99.9784 713.861 99.8886 714.05 99.8398L761.4 87.6198L762.47 82.9998C762.517 82.794 762.612 82.6023 762.747 82.4406C762.883 82.2789 763.055 82.1518 763.25 82.0698L770 79.2498L767.92 73.4698C767.807 73.1557 767.816 72.8107 767.946 72.5032C768.075 72.1957 768.316 71.9482 768.62 71.8098L775 68.8698L772.82 61.2498C772.78 61.0619 772.78 60.8677 772.82 60.6798L774.48 50.2998C774.495 50.2187 774.515 50.1385 774.54 50.0598L779.94 35.0598C780.032 34.8024 780.202 34.5797 780.426 34.4223C780.649 34.2648 780.916 34.1801 781.19 34.1798H785.76C785.956 34.1804 786.15 34.2245 786.327 34.3089C786.504 34.3933 786.661 34.5159 786.785 34.6679C786.909 34.8199 786.998 34.9976 787.046 35.1881C787.093 35.3786 787.098 35.5772 787.06 35.7698V35.8398L791.06 32.0498C791.231 31.8897 791.441 31.7777 791.669 31.725C791.898 31.6723 792.136 31.6809 792.36 31.7498L799 33.8798C799.198 33.9407 799.38 34.0477 799.529 34.1919C799.678 34.3361 799.792 34.5135 799.86 34.7098L809.48 62.3698L812.58 62.0598C812.765 62.0386 812.953 62.057 813.131 62.1137C813.309 62.1705 813.473 62.2643 813.612 62.3891C813.751 62.5139 813.861 62.6667 813.937 62.8374C814.012 63.0082 814.051 63.1931 814.05 63.3798V67.3798L818.9 66.9998C819.164 66.9808 819.428 67.0422 819.656 67.1761C819.885 67.31 820.067 67.51 820.18 67.7498L824.84 77.4198C824.982 77.7147 825.01 78.052 824.917 78.3662C824.825 78.6803 824.619 78.9489 824.34 79.1198L811.19 87.2698L811.04 87.3498L805.04 90.0598L806.13 96.5698C806.178 96.8648 806.125 97.1673 805.979 97.4286C805.834 97.6898 805.605 97.8946 805.33 98.0098L793.5 103.01L788.5 105.79L786.16 119.26L788.57 127.1C788.659 127.407 788.641 127.734 788.52 128.03L784.85 136.39L788.7 136.82C789.049 136.861 789.368 137.037 789.59 137.31L794.05 142.89L798.99 141.55L798.51 137.68C798.487 137.493 798.504 137.304 798.56 137.124C798.616 136.944 798.71 136.779 798.835 136.638C798.959 136.497 799.112 136.384 799.284 136.307C799.456 136.23 799.642 136.19 799.83 136.19H803C803.295 136.189 803.583 136.288 803.816 136.469C804.05 136.65 804.216 136.903 804.29 137.19L806.17 144.71C806.248 145.024 806.208 145.356 806.059 145.643C805.91 145.93 805.661 146.153 805.36 146.27L790.95 151.91C790.749 151.99 790.532 152.019 790.317 151.994C790.103 151.97 789.897 151.893 789.72 151.77C789.541 151.647 789.395 151.483 789.294 151.291C789.193 151.1 789.14 150.886 789.14 150.67V149L788.23 148.54L785.91 150.86L782.24 157.58C782.154 157.74 782.037 157.881 781.894 157.993C781.751 158.105 781.586 158.185 781.41 158.23L762.94 163.16L755.84 169.66L755 171.3H762.47L771.53 165.3C771.754 165.139 772.023 165.052 772.3 165.052C772.576 165.052 772.845 165.139 773.07 165.3L775.58 167.18C775.735 167.299 775.862 167.449 775.954 167.622C776.045 167.795 776.098 167.985 776.11 168.18C776.114 168.367 776.08 168.553 776.007 168.725C775.935 168.897 775.827 169.052 775.69 169.18L765.04 179.18C764.806 179.4 764.5 179.527 764.18 179.54L747.92 180.12V182.63L753.74 187.88C753.907 188.031 754.034 188.222 754.108 188.435C754.181 188.649 754.199 188.878 754.16 189.1L751.65 202.88C751.606 203.148 751.48 203.396 751.29 203.59L744.4 210.48C744.193 210.685 743.924 210.817 743.635 210.855C743.346 210.893 743.053 210.835 742.8 210.69L734.03 205.69C733.852 205.588 733.7 205.447 733.586 205.277C733.471 205.107 733.397 204.914 733.369 204.711C733.341 204.508 733.36 204.302 733.424 204.107C733.489 203.913 733.596 203.736 733.74 203.59L735.41 201.93L734.57 200.93L732 203.46L739.36 213.65L746.08 218.53C746.3 218.694 746.466 218.922 746.553 219.183C746.641 219.444 746.647 219.726 746.57 219.99L744.71 226.19L742.84 236.14L739.74 250C739.696 250.197 739.607 250.382 739.481 250.54C739.354 250.698 739.193 250.824 739.01 250.91C738.829 250.996 738.63 251.041 738.43 251.041C738.229 251.041 738.031 250.996 737.85 250.91L734.09 249C733.842 248.875 733.639 248.676 733.51 248.43C733.381 248.185 733.332 247.905 733.37 247.63L735.11 234.88L729.81 232.76C729.634 232.689 729.476 232.582 729.345 232.446C729.214 232.31 729.114 232.148 729.05 231.97L725.92 223.2C725.858 223.037 725.831 222.863 725.84 222.69L726.38 210.8L721 212.43L721.54 222.22L725.01 226.22C725.153 226.387 725.251 226.587 725.297 226.802C725.342 227.017 725.333 227.239 725.27 227.45L724.02 231.84C723.926 232.164 723.713 232.44 723.423 232.613C723.134 232.785 722.789 232.841 722.46 232.77L715.67 231.32L715.76 231.77L730.15 237.77C730.318 237.841 730.47 237.946 730.595 238.078C730.721 238.211 730.818 238.368 730.88 238.54C730.945 238.709 730.973 238.89 730.963 239.071C730.952 239.252 730.903 239.429 730.82 239.59L728.09 245.07L731.27 248.78C731.478 249.022 731.592 249.331 731.59 249.65V255.25L734.8 254.04C735.053 253.946 735.328 253.93 735.59 253.994C735.852 254.059 736.089 254.2 736.27 254.4L741.27 260.04C741.39 260.181 741.482 260.344 741.54 260.52L746 274.33C746.105 274.624 746.105 274.946 746 275.24L741.61 285.89C741.491 286.183 741.272 286.424 740.991 286.569C740.711 286.714 740.387 286.753 740.08 286.68L734.08 285.29L735.24 289.93L739.47 290.99C739.681 291.041 739.877 291.143 740.039 291.288C740.201 291.433 740.325 291.616 740.4 291.82L742.91 298.71C742.98 298.906 743.004 299.115 742.979 299.322C742.954 299.528 742.882 299.726 742.767 299.9C742.653 300.073 742.499 300.218 742.319 300.322C742.139 300.426 741.937 300.487 741.73 300.5L731.47 301.1L720.85 308.77L717.15 319C717.068 319.227 716.926 319.428 716.739 319.581C716.553 319.734 716.328 319.834 716.09 319.87L708.57 321.03L701.46 332.88L699.63 339C699.573 339.171 699.485 339.331 699.37 339.47L676.46 366.71L674.65 388.53L684.49 413.13L696.91 429.91C697.017 430.051 697.095 430.212 697.138 430.384C697.181 430.556 697.188 430.735 697.16 430.91L696 438.55L710.72 460C710.859 460.189 710.939 460.415 710.95 460.65L712.21 477.57C712.225 477.798 712.181 478.026 712.083 478.233C711.985 478.439 711.836 478.617 711.65 478.75L708 481.4L709.68 488.68C709.748 488.982 709.71 489.299 709.571 489.576C709.433 489.853 709.203 490.073 708.92 490.2L697.65 495.2C697.328 495.339 696.965 495.347 696.638 495.222C696.311 495.096 696.046 494.848 695.9 494.53L690.56 482.67L681.9 481.52C681.635 481.483 681.387 481.368 681.188 481.19C680.988 481.012 680.846 480.779 680.78 480.52L678.56 471.61L673.44 472.13C673.183 472.155 672.924 472.106 672.695 471.987C672.466 471.868 672.277 471.685 672.15 471.46L661.5 452.67C661.414 452.519 661.36 452.354 661.339 452.182C661.318 452.01 661.332 451.836 661.38 451.67C661.424 451.498 661.503 451.336 661.614 451.197C661.724 451.057 661.862 450.942 662.02 450.86L668.02 447.6L667.8 446.73L659.63 443.23C659.393 443.125 659.191 442.955 659.049 442.738C658.907 442.522 658.831 442.269 658.83 442.01V433.4L656.47 424L642.47 414.89C642.317 414.792 642.187 414.663 642.09 414.51L638.64 409.34L630.22 407.76L628.76 411.17C628.648 411.427 628.459 411.644 628.22 411.79L618.82 417.42C618.616 417.546 618.38 417.612 618.14 417.61H611.25C611.003 417.613 610.76 417.546 610.549 417.417C610.339 417.287 610.169 417.101 610.06 416.88L607.83 412.42L590 408.27L580.25 410.1C580.167 410.11 580.083 410.11 580 410.1H571.23C570.951 410.099 570.679 410.011 570.453 409.848C570.227 409.685 570.058 409.454 569.97 409.19L569.09 406.54L564.66 407.43L563 411.2C562.897 411.438 562.727 411.641 562.51 411.784C562.293 411.926 562.039 412.001 561.78 412H552.38L542.59 412.62L537.34 414.2L536.94 418.55L540.31 418.13H543.61C543.96 418.132 544.296 418.268 544.55 418.51L548.31 422.27C548.463 422.425 548.576 422.616 548.639 422.825C548.701 423.034 548.712 423.256 548.67 423.47C548.635 423.69 548.544 423.898 548.406 424.073C548.267 424.248 548.086 424.385 547.88 424.47L543.47 426.31L550.34 428.89C550.662 429.012 550.926 429.253 551.075 429.564C551.224 429.875 551.247 430.232 551.14 430.56L549.88 434.31C549.784 434.603 549.589 434.854 549.328 435.019C549.066 435.183 548.756 435.251 548.45 435.21L539.05 433.96C538.862 433.936 538.682 433.872 538.521 433.772C538.361 433.672 538.224 433.538 538.12 433.38L536.26 430.6L532.37 432.54L523.66 438.14C523.52 438.232 523.364 438.296 523.2 438.33L520.07 438.96C519.764 439.02 519.448 438.972 519.174 438.824C518.901 438.676 518.687 438.438 518.57 438.15L517.33 435C517.261 434.846 517.227 434.678 517.23 434.51V433.3H513.55C513.303 433.299 513.062 433.231 512.852 433.102C512.642 432.973 512.472 432.789 512.36 432.57L508.36 424.57L499.7 425.08L499.2 429.61C499.165 429.935 499.011 430.236 498.767 430.454C498.523 430.672 498.207 430.792 497.88 430.79H491C490.647 430.79 490.309 430.649 490.06 430.4L486.69 427H471.19L448.48 435.37V441.37C448.479 441.594 448.422 441.814 448.313 442.009C448.205 442.205 448.049 442.37 447.86 442.49L422.18 458.78L422.06 458.85L414.24 462.76L415.24 466.76C415.315 467.008 415.315 467.272 415.24 467.52L410.34 481.62L412.8 498.85C412.83 499.075 412.803 499.304 412.721 499.516C412.639 499.727 412.504 499.914 412.33 500.06C412.076 500.255 411.759 500.351 411.44 500.33ZM383 487.92L409.82 497.05L407.62 481.65C407.59 481.441 407.61 481.229 407.68 481.03L412.56 467.03L411.4 462.41C411.327 462.115 411.356 461.803 411.483 461.527C411.61 461.251 411.828 461.026 412.1 460.89L420.81 456.54L445.81 440.68V434.52C445.809 434.247 445.892 433.981 446.048 433.758C446.204 433.534 446.424 433.364 446.68 433.27L470.48 424.5C470.628 424.449 470.783 424.422 470.94 424.42H487.23C487.582 424.42 487.92 424.56 488.17 424.81L491.54 428.18H496.69L497.18 423.72C497.218 423.409 497.364 423.12 497.593 422.905C497.821 422.69 498.117 422.561 498.43 422.54L509.08 421.92C509.339 421.908 509.596 421.97 509.821 422.099C510.046 422.229 510.23 422.42 510.35 422.65L514.35 430.65H518.54C518.892 430.65 519.231 430.79 519.48 431.039C519.73 431.289 519.87 431.627 519.87 431.98V434.23L520.62 436.1L522.42 435.74L530.98 430.24L531.1 430.17L536.1 427.66C536.391 427.517 536.725 427.483 537.039 427.566C537.353 427.649 537.626 427.842 537.81 428.11L539.98 431.37L547.69 432.37L548.19 430.87L539.36 427.56C539.113 427.461 538.901 427.291 538.752 427.071C538.603 426.85 538.523 426.591 538.523 426.325C538.523 426.059 538.603 425.799 538.752 425.579C538.901 425.359 539.113 425.188 539.36 425.09L545.04 422.72L543.04 420.72H540.54L535.61 421.33C535.413 421.355 535.212 421.336 535.024 421.273C534.835 421.211 534.663 421.107 534.52 420.97C534.378 420.83 534.269 420.661 534.2 420.474C534.131 420.288 534.103 420.088 534.12 419.89L534.75 413C534.773 412.736 534.875 412.485 535.043 412.28C535.21 412.075 535.436 411.925 535.69 411.85L542 410C542.094 409.969 542.191 409.949 542.29 409.94L552.29 409.32H560.89L562.42 405.75C562.508 405.547 562.646 405.369 562.821 405.233C562.995 405.097 563.201 405.006 563.42 404.97L569.68 403.71C569.998 403.647 570.328 403.703 570.608 403.867C570.888 404.031 571.098 404.292 571.2 404.6L572.15 407.45H579.84L589.74 405.59C589.921 405.555 590.108 405.555 590.29 405.59L609.07 410C609.261 410.042 609.44 410.128 609.594 410.249C609.748 410.37 609.873 410.524 609.96 410.7L612.1 415H617.8L626.51 409.78L628.22 405.78C628.338 405.5 628.548 405.269 628.815 405.126C629.083 404.982 629.391 404.934 629.69 404.99L639.69 406.87C639.864 406.903 640.029 406.971 640.177 407.069C640.324 407.167 640.451 407.293 640.55 407.44L644.16 412.85L658.34 422.1C658.619 422.283 658.819 422.565 658.9 422.89L661.41 432.89C661.424 432.999 661.424 433.11 661.41 433.22V441.11L669.41 444.52C669.598 444.602 669.764 444.726 669.898 444.882C670.031 445.037 670.128 445.221 670.18 445.42L670.81 447.93C670.879 448.216 670.852 448.517 670.732 448.787C670.613 449.056 670.408 449.279 670.15 449.42L664.45 452.53L674 469.4L679.41 468.86C679.727 468.826 680.046 468.909 680.307 469.093C680.568 469.277 680.754 469.55 680.83 469.86L683.12 479L691.62 480.13C691.838 480.167 692.043 480.258 692.218 480.394C692.392 480.53 692.53 480.707 692.62 480.91L697.72 492.23L706.78 488.23L705.15 481.16C705.09 480.903 705.107 480.634 705.2 480.386C705.292 480.139 705.456 479.924 705.67 479.77L709.45 477.08L708.28 461.27L693.5 439.62C693.398 439.476 693.326 439.314 693.288 439.142C693.25 438.97 693.247 438.793 693.28 438.62L694.45 431.03L682.25 414.56C682.178 414.469 682.12 414.368 682.08 414.26L672.08 389.2C672 389.01 671.97 388.804 671.99 388.6L673.87 366.05C673.891 365.775 673.995 365.513 674.17 365.3L697.17 337.95L698.97 331.95C698.998 331.841 699.042 331.737 699.1 331.64L706.62 319.12C706.719 318.951 706.856 318.807 707.018 318.698C707.181 318.589 707.366 318.518 707.56 318.49L714.91 317.35L718.41 307.46C718.496 307.203 718.661 306.979 718.88 306.82L730.16 298.68C730.363 298.529 730.607 298.441 730.86 298.43L739.73 297.91L738.07 293.36L733.75 292.27C733.505 292.216 733.28 292.094 733.103 291.916C732.926 291.739 732.803 291.515 732.75 291.27L730.87 283.75C730.814 283.529 730.816 283.297 730.876 283.077C730.936 282.857 731.051 282.656 731.21 282.494C731.37 282.331 731.569 282.212 731.787 282.149C732.006 282.085 732.238 282.078 732.46 282.13L739.46 283.76L743.23 274.6L739.08 261.55L734.86 256.8L730.71 258.36C730.508 258.435 730.29 258.46 730.076 258.434C729.862 258.408 729.658 258.331 729.48 258.21C729.304 258.087 729.16 257.924 729.061 257.735C728.962 257.545 728.91 257.334 728.91 257.12V250.12L725.47 246.12C725.299 245.921 725.192 245.677 725.159 245.417C725.127 245.157 725.173 244.894 725.29 244.66L727.79 239.66L714.13 234C713.924 233.914 713.743 233.777 713.605 233.602C713.467 233.427 713.375 233.22 713.34 233L712.71 229.86C712.665 229.645 712.675 229.422 712.74 229.212C712.805 229.002 712.922 228.812 713.08 228.66C713.235 228.504 713.427 228.389 713.639 228.326C713.85 228.263 714.074 228.254 714.29 228.3L721.85 229.92L722.56 227.42L719.27 223.58C719.081 223.358 718.968 223.081 718.95 222.79L718.32 211.51C718.304 211.212 718.388 210.918 718.558 210.674C718.728 210.429 718.975 210.248 719.26 210.16L727.4 207.66C727.603 207.597 727.819 207.584 728.029 207.622C728.238 207.66 728.436 207.748 728.605 207.879C728.773 208.009 728.908 208.178 728.998 208.371C729.087 208.565 729.129 208.777 729.12 208.99L728.51 222.51L731.35 230.51L737.06 232.79C737.335 232.901 737.566 233.101 737.715 233.358C737.863 233.616 737.921 233.916 737.88 234.21L736.13 247L737.52 247.69L740.28 235.56L742.15 225.56V225.42L743.76 220.06L737.63 215.6C737.519 215.519 737.421 215.421 737.34 215.31L729.19 204.03C729.007 203.773 728.92 203.459 728.946 203.144C728.972 202.83 729.107 202.534 729.33 202.31L733.71 197.93C733.84 197.799 733.996 197.697 734.169 197.629C734.341 197.562 734.525 197.532 734.71 197.54C734.903 197.543 735.094 197.589 735.267 197.676C735.44 197.762 735.591 197.887 735.71 198.04L738.22 201.17C738.424 201.426 738.526 201.747 738.508 202.074C738.489 202.4 738.351 202.709 738.12 202.94L736.85 204.21L743.22 207.86L749.1 201.98L751.4 189.34L745.69 184.19C745.549 184.064 745.437 183.91 745.361 183.737C745.285 183.565 745.247 183.378 745.25 183.19V178.8C745.249 178.456 745.383 178.125 745.621 177.877C745.86 177.629 746.186 177.483 746.53 177.47L763.53 176.86L772.66 168.27L772.18 167.9L763.56 173.64C763.345 173.789 763.091 173.869 762.83 173.87H752.83C752.603 173.87 752.381 173.812 752.183 173.701C751.985 173.591 751.819 173.432 751.7 173.24C751.583 173.045 751.516 172.824 751.505 172.597C751.495 172.37 751.541 172.144 751.64 171.94L753.52 168.18C753.593 168.037 753.691 167.908 753.81 167.8L761.33 160.91C761.489 160.763 761.681 160.657 761.89 160.6L780.13 155.74L783.61 149.35C783.672 149.236 783.749 149.132 783.84 149.04L787 146C787.198 145.803 787.453 145.672 787.73 145.628C788.006 145.583 788.289 145.625 788.54 145.75L791 147C791.222 147.109 791.41 147.278 791.541 147.488C791.672 147.699 791.74 147.942 791.74 148.19V148.74L803.24 144.24L801.9 138.87H801.31L801.75 142.38C801.789 142.702 801.708 143.027 801.524 143.294C801.34 143.561 801.065 143.752 800.75 143.83L793.86 145.71C793.609 145.777 793.345 145.771 793.098 145.691C792.851 145.611 792.633 145.461 792.47 145.26L787.81 139.42L782.71 138.86C782.503 138.836 782.304 138.765 782.13 138.65C781.957 138.535 781.813 138.381 781.71 138.2C781.605 138.019 781.545 137.816 781.533 137.608C781.52 137.4 781.557 137.191 781.64 137L785.83 127.43L783.47 119.76C783.42 119.556 783.42 119.343 783.47 119.14L786 104.74C786.033 104.545 786.11 104.361 786.224 104.2C786.338 104.039 786.487 103.906 786.66 103.81L792.3 100.68L792.43 100.61L803.36 95.9998L802.28 89.5198C802.232 89.2372 802.276 88.9468 802.406 88.6913C802.536 88.4357 802.744 88.2284 803 88.0998L809.82 84.9998L821.88 77.5298L818.14 69.7498L812.81 70.1098C812.627 70.12 812.445 70.0934 812.273 70.0315C812.101 69.9697 811.944 69.8739 811.81 69.7498C811.673 69.6224 811.565 69.4673 811.492 69.2949C811.42 69.1225 811.385 68.9367 811.39 68.7498V64.8498L808.7 65.1198C808.401 65.1515 808.101 65.0806 807.848 64.9188C807.596 64.7571 807.406 64.514 807.31 64.2298L797.56 36.2298L792.3 34.5798L785.81 40.6898C785.605 40.8847 785.343 41.0091 785.062 41.0451C784.782 41.0811 784.497 41.0267 784.25 40.8898C784.004 40.7505 783.808 40.5376 783.69 40.281C783.571 40.0245 783.536 39.7372 783.59 39.4598L784.11 36.8998H782.11L777.11 50.8998L775.51 60.8998L777.92 69.3298C778.009 69.6357 777.985 69.9635 777.853 70.2535C777.721 70.5435 777.489 70.7764 777.2 70.9098L770.82 73.8098L772.91 79.6298C773.026 79.9486 773.015 80.3 772.879 80.611C772.743 80.922 772.493 81.1687 772.18 81.2998L764.92 84.3598L763.81 88.9998C763.753 89.2431 763.629 89.4657 763.452 89.6425C763.276 89.8192 763.053 89.9429 762.81 89.9998L715.25 102.3L709.71 114.18C709.572 114.476 709.33 114.711 709.03 114.84L698.03 119.56L696.51 126.37C696.44 126.667 696.267 126.931 696.022 127.114C695.777 127.297 695.475 127.387 695.17 127.37L684.27 127L668.43 133.09L662.12 136.8V140.9L670.59 143.8C670.833 143.886 671.048 144.038 671.21 144.24L675.54 149.75C675.678 149.927 675.769 150.136 675.806 150.358C675.842 150.58 675.823 150.807 675.75 151.02C675.671 151.236 675.537 151.428 675.362 151.577C675.187 151.726 674.976 151.827 674.75 151.87L656.83 155.94L652.1 160.27C651.872 160.479 651.579 160.603 651.27 160.62L643.79 161.01L624.6 175.31C624.377 175.469 624.113 175.56 623.84 175.57L614.41 175.83C614.203 175.847 613.995 175.811 613.806 175.725C613.617 175.639 613.453 175.507 613.33 175.34C613.202 175.179 613.113 174.99 613.069 174.789C613.026 174.588 613.03 174.379 613.08 174.18L613.7 171.68C613.756 171.463 613.864 171.264 614.016 171.1C614.168 170.936 614.358 170.812 614.57 170.74L623.98 167.53L623.08 161.53C623.045 161.355 623.045 161.175 623.08 161L624.57 155.21C624.616 155.024 624.701 154.85 624.82 154.7L632.82 144.81L627.47 131.12C627.37 130.832 627.37 130.518 627.47 130.23L631.16 118.53V112.77C631.16 112.417 631.3 112.079 631.549 111.829C631.799 111.58 632.137 111.44 632.49 111.44H638.3C638.615 111.438 638.92 111.549 639.16 111.753C639.4 111.956 639.56 112.239 639.61 112.55L640.54 118.12L649.54 118.84L651.54 114.58L647.65 110.35L647.53 110.19L642.09 102.07L636 96.4798L630.55 98.6898C630.34 98.773 630.113 98.8019 629.889 98.774C629.665 98.746 629.452 98.662 629.27 98.5298L623.85 94.6398L596.1 96.6398C595.774 96.6638 595.45 96.5678 595.19 96.3698L590.04 92.3698L582.85 91.1698C582.566 91.1193 582.306 90.9779 582.109 90.7669C581.913 90.5559 581.79 90.2866 581.76 89.9998L581.41 82.9998C581.401 82.8481 581.418 82.696 581.46 82.5498L583.34 76.3398L578.08 74.1998C577.861 74.1134 577.671 73.968 577.53 73.7798L573.62 68.6998L558.55 67.4998C558.243 67.4746 557.954 67.3445 557.732 67.1314C557.51 66.9184 557.368 66.6353 557.33 66.3298L556.2 56.6798L552.39 56.1098L545.71 61.5598C545.548 61.6939 545.356 61.7875 545.151 61.8327C544.946 61.878 544.733 61.8735 544.53 61.8198C544.328 61.7645 544.142 61.6636 543.986 61.5248C543.83 61.3861 543.708 61.2133 543.63 61.0198L540.78 53.6998L534.05 54.8098L532.38 61.4798C532.305 61.7653 532.138 62.018 531.905 62.1989C531.671 62.3797 531.385 62.4784 531.09 62.4798H525.43L525.1 66.4798C525.077 66.7511 524.972 67.009 524.8 67.2198L517.08 76.4598C516.898 76.6746 516.654 76.8269 516.381 76.8951C516.108 76.9633 515.821 76.9439 515.56 76.8398L509.3 74.3398L509.2 74.2898L500.92 70.1498L493.92 72.4798C493.686 72.559 493.434 72.571 493.194 72.5145C492.953 72.4579 492.734 72.335 492.56 72.1598L487.15 66.7498L471.41 61.4998L469.49 63.9098C469.379 64.0485 469.241 64.1634 469.085 64.2476C468.928 64.3318 468.756 64.3835 468.58 64.3998L462.31 65.0298C462.05 65.0549 461.789 65.0027 461.56 64.8798L449.66 58.6198C449.445 58.5066 449.265 58.3368 449.14 58.1288C449.015 57.9208 448.949 57.6825 448.95 57.4398V47.9998H446.95L445.33 54.5098C445.252 54.7994 445.08 55.0549 444.841 55.236C444.602 55.417 444.31 55.5134 444.01 55.5098L407.68 54.8798L269.79 45.4798H269.63L141.19 20.4498L100.57 9.4498L104.38 15.9998C104.549 16.2933 104.601 16.6402 104.525 16.9705C104.449 17.3008 104.25 17.59 103.97 17.7798L99.2497 20.9198L102.57 28.6798C102.646 28.8478 102.686 29.0302 102.686 29.2148C102.686 29.3994 102.646 29.5818 102.57 29.7498C102.494 29.9164 102.385 30.0655 102.249 30.1878C102.113 30.31 101.953 30.4026 101.78 30.4598L96.1397 32.3398C95.8669 32.4327 95.5712 32.433 95.2982 32.3408C95.0252 32.2487 94.7902 32.069 94.6297 31.8298L87.9997 22.2398L77.8997 20.4598C77.6312 20.4105 77.3839 20.2816 77.1897 20.0898L70.2897 13.1898L69.0197 13.6998L73.7097 35.3998L76.5697 38.2498C76.7967 38.4784 76.9338 38.781 76.9558 39.1024C76.9778 39.4238 76.8834 39.7424 76.6897 39.9998L73.5597 43.7998L71.1397 47.1898L73.4697 49.5298C73.6403 49.6943 73.7623 49.9027 73.8223 50.132C73.8823 50.3614 73.8779 50.6028 73.8097 50.8298L72.5597 55.2198C72.4883 55.5053 72.3236 55.7588 72.0917 55.94C71.8598 56.1212 71.574 56.2197 71.2797 56.2198H69.2797L67.5897 69.4298C67.571 69.5718 67.5306 69.7101 67.4697 69.8398L49.2997 107.43C49.195 107.643 49.0364 107.826 48.8397 107.96L41.9997 112.54L43.2097 132.45C43.2249 132.563 43.2249 132.677 43.2097 132.79L41.3397 142.13L40.7197 147.71C40.6992 147.963 40.6015 148.204 40.4397 148.4L30.7897 160.46L31.7897 166.64L35.9997 168.25C36.2526 168.344 36.4706 168.513 36.6243 168.735C36.7781 168.956 36.8602 169.22 36.8597 169.49V175.76C36.8575 175.923 36.8305 176.085 36.7797 176.24L33.8397 183.86L41.1297 199.63C41.2015 199.796 41.2386 199.974 41.2386 200.155C41.2386 200.335 41.2015 200.514 41.1297 200.68L38.9997 206.1L46.4997 213C46.7365 213.218 46.8863 213.514 46.9212 213.834C46.9562 214.154 46.8739 214.476 46.6897 214.74L42.6897 220.48L45.4597 230L48.6997 231.63C48.8933 231.725 49.061 231.865 49.1881 232.04C49.3153 232.214 49.3982 232.416 49.4297 232.63L50.0497 238.9C50.0765 239.157 50.0273 239.416 49.9082 239.645C49.7891 239.875 49.6054 240.064 49.3797 240.19L44.8097 242.73L58.0797 271.73C58.1693 271.924 58.2104 272.136 58.1997 272.35L57.6097 283.54L61.6997 286.61H69.9997C70.2508 286.611 70.4965 286.683 70.7087 286.818C70.9208 286.952 71.091 287.143 71.1997 287.37L76.6097 298.79L84.2597 301.74C84.4431 301.809 84.6085 301.918 84.7436 302.06C84.8787 302.202 84.9799 302.373 85.0397 302.56L86.7297 307.63L94.9997 311.1C95.1916 311.181 95.3614 311.307 95.4952 311.467C95.6291 311.627 95.7231 311.817 95.7697 312.02L100.57 332.41L137.23 336.69C137.404 336.709 137.573 336.763 137.726 336.849C137.879 336.935 138.013 337.051 138.12 337.19C138.231 337.329 138.312 337.49 138.36 337.662C138.409 337.833 138.422 338.013 138.4 338.19L137.88 342.34L190.15 373.71L234.73 379.71V373.09C234.732 372.899 234.775 372.711 234.856 372.539C234.937 372.366 235.054 372.213 235.2 372.09C235.347 371.965 235.521 371.875 235.707 371.825C235.894 371.775 236.089 371.766 236.28 371.8L265.72 376.8H265.86L270.25 378.05C270.452 378.109 270.637 378.215 270.79 378.359C270.942 378.503 271.059 378.682 271.13 378.88L273.53 385.47L281.44 392.76L281.62 392.97L284.44 396.97L290.19 398.12C290.393 398.159 290.583 398.246 290.747 398.373C290.91 398.5 291.041 398.663 291.13 398.85L296.13 409.5C296.279 409.813 296.301 410.171 296.19 410.5L293.91 417.91L302.3 426.85L305.35 426.34C305.559 426.303 305.773 426.317 305.975 426.382C306.177 426.446 306.361 426.559 306.51 426.71L311.32 431.51L316.73 433.51L322.51 419.65C322.611 419.407 322.781 419.199 323 419.053C323.219 418.907 323.477 418.829 323.74 418.83H330.63C330.895 418.83 331.155 418.91 331.374 419.06C331.594 419.21 331.763 419.422 331.86 419.67L332.86 422.06L349.6 423.85C349.917 423.882 350.212 424.027 350.43 424.26L361 435.45C361.18 435.636 361.299 435.874 361.34 436.13L363.8 450L372.17 456.57C372.412 456.764 372.582 457.036 372.65 457.34L375.13 469.12L378.83 477.77L383 487.92Z" fill="#0F6CF4"/>
<path d="M703.08 115.96L696.92 118.6L695.25 126.08L684.04 125.66L667.85 131.89L660.79 136.04V141.85L670.16 145.06L674.5 150.57L656.23 154.73L651.24 159.29L643.36 159.71L623.84 174.24L614.41 174.5L615.03 172L625.5 168.43L624.43 161.35L625.92 155.56L634.45 145.06L628.82 130.65L632.58 118.75L632.56 112.79H638.37L639.47 119.38L650.41 120.26L653.25 114.37L648.75 109.47L643.23 101.21L636.3 94.9399L630.07 97.4499L624.26 93.2799L596.02 95.3499L590.6 91.1899L583.09 89.9399L582.74 82.8999L584.97 75.5299L578.58 72.9299L574.32 67.3799L558.65 66.1299L557.4 55.4799L552.01 54.6599L544.87 60.4899L541.63 52.1699L532.97 53.5999L531.09 61.1199H524.2L523.78 66.2899L516.06 75.5299L511.54 74.0499L499.18 80.5199V84.9399L485.35 95.5299V98.1799L488.59 98.7699L494.18 96.9999L501.83 92.8799L503.6 93.7599L501.24 96.9999L502.71 98.4699L509.78 99.3599L517.13 92.5899L520.96 93.4699L538.32 79.3399L541.85 79.9299L539.5 83.7599L534.2 85.5199L533.02 91.6999L535.08 92.5899L537.73 90.8199L543.91 92.2899L547.15 96.4099L558.63 97.2999L562.75 93.1699H572.46L578.05 89.9399L579.52 94.6499H583.35L586.58 93.7599L591 95.2299L590.41 98.7699L592.76 100.24V101.42L581.88 103.47L575.4 102L572.16 103.77L565.39 105.83L563.34 109.66H554.21L542.44 135.55L544.21 136.43L555.1 121.43L556.27 123.19L552.15 136.43L551.86 140.85L549.21 145.26L548.91 153.5L547.74 157.92L550.98 174.1L548.62 177.04L555.1 187.93L556.27 191.17L563.92 190.29L569.81 182.64L573.05 166.45L569.81 159.68L566.28 151.15L568.63 147.62L566.57 140.55L568.63 128.49L576.58 120.25L577.17 124.96L579.52 124.37L580.4 117.31L584.23 116.42L583.64 112.89L580.7 112.01L583.35 108.77L585.99 107.89L597.47 110.83L605.42 115.54L605.12 119.07L603.65 119.95L607.18 124.96L607.48 132.9L602.77 139.97L603.95 141.14L600.41 143.79L603.65 146.73L610.13 144.09L610.71 138.49L618.95 140.55L621.31 155.56L620.13 163.8L611.01 171.45L612.19 178.22L613.36 183.22L624.84 185.58L625.72 187.64L648.09 179.1L649.56 171.75L664.86 165.27L672.81 154.09L678.1 151.74L671.34 144.09L687.52 140.26L689.88 141.14L699.88 138.49L702.82 133.49L706.94 132.31L706.65 123.49L703.08 115.96Z" fill="#2CAAFF"/>
<path d="M556.27 192.5C555.996 192.5 555.73 192.415 555.506 192.257C555.282 192.1 555.113 191.877 555.02 191.62L553.89 188.5L547.48 177.72C547.341 177.488 547.276 177.219 547.294 176.949C547.312 176.68 547.412 176.422 547.58 176.21L549.58 173.75L546.46 158.18C546.415 157.979 546.415 157.771 546.46 157.57L547.6 153.3L547.89 145.21C547.898 144.987 547.963 144.77 548.08 144.58L550.56 140.44L550.84 136.35C550.825 136.247 550.825 136.143 550.84 136.04L554.41 124.59L545.24 137.22C545.054 137.473 544.784 137.652 544.478 137.726C544.173 137.799 543.851 137.761 543.57 137.62L541.81 136.74C541.501 136.587 541.264 136.32 541.149 135.995C541.033 135.671 541.048 135.314 541.19 135L553 109.1C553.107 108.869 553.278 108.674 553.492 108.538C553.707 108.401 553.956 108.329 554.21 108.33H562.54L564.22 105.2C564.388 104.89 564.672 104.66 565.01 104.56L571.65 102.56L574.76 100.86C575.042 100.699 575.375 100.653 575.69 100.73L581.9 102.14L590.62 100.49L589.7 99.9099C589.479 99.7711 589.303 99.5696 589.197 99.331C589.09 99.0925 589.056 98.8276 589.1 98.5699L589.5 96.1599L586.5 95.1599L583.66 95.9399C583.544 95.9538 583.426 95.9538 583.31 95.9399H579.48C579.196 95.9396 578.919 95.8481 578.69 95.6789C578.462 95.5098 578.293 95.2718 578.21 94.9999L577.21 91.8799L573.05 94.2899C572.848 94.404 572.622 94.4658 572.39 94.4699H563.3L559.57 98.1999C559.432 98.3345 559.267 98.438 559.086 98.5036C558.905 98.5691 558.712 98.5951 558.52 98.5799L547.05 97.6999C546.865 97.6859 546.685 97.6333 546.521 97.5455C546.357 97.4577 546.214 97.3365 546.1 97.1899L543.1 93.4399L538 92.2499L535.83 93.6899C535.647 93.8139 535.435 93.8898 535.215 93.9108C534.995 93.9317 534.773 93.8971 534.57 93.8099L532.51 92.9299C532.231 92.8083 532.002 92.5955 531.861 92.3266C531.719 92.0576 531.673 91.7485 531.73 91.4499L532.86 85.5099L521.81 94.5099C521.653 94.6383 521.469 94.7293 521.271 94.7761C521.074 94.8229 520.868 94.8242 520.67 94.7799L517.52 93.9999L510.68 100.29C510.538 100.422 510.368 100.521 510.183 100.579C509.998 100.638 509.802 100.655 509.61 100.63L502.55 99.7499C502.254 99.7155 501.979 99.5815 501.77 99.3699L500.3 97.8999C500.076 97.6765 499.939 97.3798 499.915 97.0641C499.891 96.7483 499.982 96.4345 500.17 96.1799L501.28 94.6499L494.81 98.1299L494.58 98.2299L489 99.9999C488.79 100.05 488.57 100.05 488.36 99.9999L485.12 99.4099C484.822 99.3611 484.549 99.213 484.346 98.9897C484.143 98.7665 484.021 98.4811 484 98.1799V95.5299C484.001 95.3254 484.048 95.1237 484.138 94.9401C484.228 94.7564 484.359 94.5957 484.52 94.4699L497.83 84.2799V80.5199C497.831 80.2764 497.899 80.0378 498.026 79.8299C498.153 79.622 498.334 79.4526 498.55 79.3399L510.9 72.8699C511.209 72.7115 511.568 72.6792 511.9 72.7799L515.55 73.9799L522.43 65.7599L522.81 61.0099C522.84 60.6774 522.993 60.3681 523.239 60.1424C523.485 59.9168 523.806 59.7911 524.14 59.7899H529.99L531.62 53.2799C531.681 53.0268 531.815 52.7971 532.005 52.6194C532.195 52.4416 532.433 52.3236 532.69 52.2799L541.35 50.8499C541.652 50.7992 541.962 50.8541 542.228 51.0053C542.494 51.1565 542.699 51.3948 542.81 51.6799L545.39 58.2999L551.11 53.6199C551.248 53.507 551.409 53.4239 551.581 53.3757C551.753 53.3276 551.933 53.3154 552.11 53.3399L557.5 54.1599C557.788 54.2039 558.054 54.3413 558.256 54.5508C558.458 54.7604 558.586 55.0306 558.62 55.3199L559.75 64.8799L574.32 66.0499C574.514 66.0582 574.703 66.1081 574.876 66.1961C575.048 66.284 575.2 66.4081 575.32 66.5599L579.32 71.8199L585.37 74.2899C585.677 74.4132 585.926 74.647 586.068 74.9451C586.211 75.2432 586.236 75.5839 586.14 75.8999L583.98 83.0499L584.26 88.7899L590.72 89.8699C590.935 89.9006 591.138 89.9867 591.31 90.1199L596.31 93.9799L624.04 91.9799C624.351 91.9506 624.662 92.0399 624.91 92.2299L630.25 95.9999L635.8 93.7499C636.032 93.658 636.285 93.6328 636.531 93.6769C636.776 93.7211 637.005 93.833 637.19 93.9999L644.12 100.28C644.2 100.35 644.271 100.431 644.33 100.52L649.8 108.69L654.23 113.52C654.409 113.715 654.525 113.959 654.565 114.221C654.604 114.483 654.564 114.751 654.45 114.99L651.61 120.89C651.496 121.133 651.311 121.335 651.078 121.47C650.846 121.604 650.577 121.663 650.31 121.64L639.36 120.75C639.064 120.729 638.784 120.609 638.564 120.41C638.345 120.21 638.199 119.943 638.15 119.65L637.25 114.17H633.89V118.8C633.89 118.936 633.87 119.07 633.83 119.2L630.22 130.66L635.68 144.66C635.767 144.878 635.794 145.115 635.759 145.347C635.724 145.579 635.628 145.798 635.48 145.98L627.12 156.25L625.78 161.5L626.78 168.31C626.823 168.619 626.758 168.933 626.596 169.199C626.433 169.465 626.184 169.667 625.89 169.77L616.15 173V173.11L623.41 172.9L642.59 158.62C642.8 158.459 643.056 158.368 643.32 158.36L650.73 157.97L655.36 153.72C655.531 153.568 655.737 153.462 655.96 153.41L672.18 149.72L669.39 146.17L660.39 143.09C660.128 142.999 659.901 142.829 659.74 142.603C659.578 142.377 659.491 142.107 659.49 141.83V136C659.49 135.767 659.551 135.539 659.666 135.337C659.782 135.135 659.949 134.967 660.15 134.85L667.21 130.7L667.4 130.61L683.6 124.38C683.766 124.316 683.942 124.286 684.12 124.29L694.23 124.67L695.65 118.28C695.694 118.073 695.787 117.88 695.921 117.717C696.055 117.553 696.226 117.424 696.42 117.34L702.59 114.7C702.906 114.563 703.264 114.554 703.586 114.675C703.909 114.797 704.172 115.038 704.32 115.35L707.88 122.88C707.958 123.043 708.002 123.22 708.01 123.4L708.3 132.23C708.311 132.531 708.217 132.827 708.035 133.068C707.853 133.308 707.593 133.479 707.3 133.55L703.69 134.55L701 139.17C700.82 139.471 700.529 139.69 700.19 139.78L690.19 142.43C689.927 142.515 689.643 142.515 689.38 142.43L687.38 141.69L673.75 144.91L679.05 150.91C679.187 151.067 679.285 151.253 679.337 151.455C679.389 151.657 679.392 151.868 679.347 152.071C679.303 152.274 679.211 152.464 679.079 152.626C678.948 152.787 678.78 152.915 678.59 153L673.59 155.21L666 166C665.853 166.2 665.657 166.359 665.43 166.46L650.77 172.66L649.44 179.33C649.397 179.553 649.298 179.762 649.153 179.936C649.008 180.111 648.821 180.247 648.61 180.33L626.25 188.86C625.929 188.986 625.571 188.981 625.253 188.847C624.935 188.712 624.683 188.458 624.55 188.14L623.94 186.72L613.15 184.51C612.907 184.452 612.685 184.328 612.509 184.151C612.332 183.975 612.208 183.753 612.15 183.51L610.97 178.51L609.78 171.66C609.74 171.43 609.76 171.194 609.839 170.975C609.918 170.756 610.053 170.561 610.23 170.41L618.97 163.09L620.04 155.55L617.86 141.61L611.96 140.14L611.53 144.21C611.502 144.448 611.412 144.675 611.268 144.866C611.124 145.058 610.931 145.207 610.71 145.3L604.15 148C603.918 148.092 603.665 148.117 603.419 148.073C603.174 148.029 602.945 147.917 602.76 147.75L599.52 144.81C599.376 144.677 599.264 144.514 599.189 144.332C599.115 144.151 599.081 143.956 599.09 143.76C599.095 143.564 599.145 143.371 599.237 143.198C599.329 143.024 599.46 142.874 599.62 142.76L601.92 141.03L601.83 140.94C601.612 140.723 601.475 140.437 601.444 140.13C601.413 139.824 601.489 139.516 601.66 139.26L606.13 132.55L605.87 125.43L602.56 120.75C602.46 120.606 602.39 120.443 602.354 120.271C602.318 120.099 602.317 119.922 602.35 119.75C602.389 119.57 602.464 119.401 602.57 119.251C602.677 119.101 602.813 118.975 602.97 118.88L603.85 118.35L604.02 116.35L597 112.07L586 109.28L584.09 109.91L582.95 111.31L583.95 111.62C584.183 111.684 584.393 111.811 584.557 111.988C584.721 112.165 584.833 112.383 584.88 112.62L585.47 116.15C585.528 116.483 585.456 116.825 585.271 117.108C585.085 117.39 584.799 117.591 584.47 117.67L581.55 118.34L580.78 124.48C580.749 124.748 580.636 125 580.457 125.202C580.279 125.404 580.042 125.546 579.78 125.61L577.43 126.2C577.246 126.245 577.055 126.25 576.869 126.216C576.682 126.181 576.506 126.108 576.35 126C576.195 125.895 576.064 125.757 575.967 125.597C575.871 125.436 575.81 125.256 575.79 125.07L575.54 123.13L569.81 129.07L567.87 140.43L569.87 147.19C569.925 147.376 569.938 147.572 569.909 147.764C569.88 147.956 569.808 148.139 569.7 148.3L567.7 151.3L570.96 159.17L574.17 165.88C574.292 166.138 574.327 166.43 574.27 166.71L571.03 182.9C570.993 183.101 570.907 183.29 570.78 183.45L565 191.1C564.779 191.382 564.455 191.565 564.1 191.61L556.45 192.49L556.27 192.5ZM550.27 177.16L556.27 187.25C556.313 187.324 556.349 187.4 556.38 187.48L557.19 189.73L563.24 189.03L568.6 182.03L571.68 166.58L568.68 160.22L565.12 151.62C565.037 151.417 565.005 151.198 565.026 150.98C565.047 150.762 565.12 150.553 565.24 150.37L567.24 147.37L565.36 140.91C565.315 140.712 565.315 140.507 565.36 140.31L567.42 128.25C567.466 127.988 567.588 127.744 567.77 127.55L575.77 119.31C575.933 119.161 576.131 119.054 576.346 119C576.561 118.946 576.785 118.946 577 119C577.236 119.081 577.445 119.225 577.604 119.418C577.763 119.61 577.865 119.843 577.9 120.09L578.3 123.31L579.07 117.15C579.103 116.882 579.216 116.631 579.394 116.429C579.573 116.228 579.808 116.085 580.07 116.02L582.68 115.42L582.43 113.94L580.29 113.29C580.08 113.229 579.889 113.117 579.733 112.963C579.578 112.809 579.463 112.619 579.4 112.41C579.336 112.201 579.324 111.979 579.366 111.765C579.408 111.55 579.502 111.349 579.64 111.18L582.29 107.94C582.451 107.747 582.662 107.601 582.9 107.52L585.54 106.64C585.785 106.57 586.045 106.57 586.29 106.64L597.77 109.58C597.892 109.615 598.01 109.666 598.12 109.73L606.12 114.44C606.333 114.568 606.505 114.753 606.618 114.974C606.732 115.194 606.781 115.443 606.76 115.69L606.47 119.22C606.447 119.424 606.377 119.621 606.266 119.794C606.155 119.967 606.006 120.113 605.83 120.22L605.58 120.37L608.29 124.2C608.439 124.411 608.522 124.662 608.53 124.92L608.83 132.86C608.84 133.141 608.759 133.418 608.6 133.65L604.5 139.81L604.91 140.21C605.039 140.341 605.14 140.498 605.205 140.67C605.27 140.842 605.299 141.026 605.29 141.21C605.28 141.405 605.227 141.596 605.136 141.769C605.044 141.941 604.916 142.092 604.76 142.21L602.52 143.89L603.94 145.19L608.94 143.19L609.44 138.38C609.458 138.197 609.513 138.02 609.603 137.859C609.693 137.699 609.815 137.559 609.961 137.448C610.108 137.337 610.276 137.258 610.455 137.215C610.633 137.172 610.819 137.167 611 137.2L619.24 139.26C619.494 139.326 619.724 139.464 619.901 139.657C620.079 139.85 620.196 140.091 620.24 140.35L622.59 155.35C622.61 155.479 622.61 155.611 622.59 155.74L621.45 164C621.404 164.324 621.24 164.619 620.99 164.83L612.45 172L613.45 178L614.45 182.1L625.1 184.29C625.309 184.33 625.506 184.422 625.671 184.556C625.837 184.691 625.967 184.863 626.05 185.06L626.43 185.95L646.92 178.13L648.24 171.5C648.278 171.281 648.371 171.075 648.508 170.9C648.646 170.725 648.826 170.588 649.03 170.5L664.03 164.18L671.75 153.3C671.892 153.106 672.081 152.951 672.3 152.85L674.3 151.97L656.91 155.92L652.18 160.25C651.952 160.46 651.659 160.583 651.35 160.6L643.87 160.99L624.68 175.29C624.458 175.449 624.193 175.54 623.92 175.55L614.49 175.81C614.283 175.827 614.075 175.791 613.886 175.705C613.697 175.619 613.533 175.487 613.41 175.32C613.282 175.159 613.193 174.97 613.15 174.769C613.106 174.568 613.11 174.359 613.16 174.16L613.78 171.66C613.836 171.443 613.945 171.244 614.096 171.08C614.248 170.916 614.439 170.792 614.65 170.72L624.06 167.51L623.16 161.51C623.125 161.335 623.125 161.155 623.16 160.98L624.65 155.19C624.696 155.004 624.781 154.83 624.9 154.68L632.9 144.79L627.55 131.1C627.45 130.812 627.45 130.498 627.55 130.21L631.24 118.51V112.75C631.24 112.397 631.38 112.059 631.63 111.809C631.879 111.56 632.217 111.42 632.57 111.42H638.38C638.695 111.418 639 111.529 639.24 111.733C639.48 111.936 639.64 112.219 639.69 112.53L640.62 118.1L649.62 118.83L651.62 114.56L647.73 110.33L647.61 110.17L642.17 102.05L636 96.4799L630.55 98.6899C630.341 98.774 630.113 98.8035 629.889 98.7755C629.665 98.7475 629.452 98.663 629.27 98.5299L623.85 94.6399L596.1 96.6399C595.774 96.664 595.45 96.5679 595.19 96.3699L590.04 92.3699L582.85 91.1699C582.566 91.1195 582.306 90.9781 582.11 90.767C581.913 90.556 581.79 90.2867 581.76 89.9999L581.41 82.9999C581.402 82.8482 581.419 82.6961 581.46 82.5499L583.34 76.3399L578.08 74.1999C577.861 74.1135 577.671 73.9681 577.53 73.7799L573.62 68.6999L558.55 67.4999C558.243 67.4747 557.954 67.3446 557.732 67.1316C557.51 66.9185 557.368 66.6354 557.33 66.3299L556.2 56.6799L552.39 56.1099L545.71 61.5599C545.548 61.6946 545.356 61.7887 545.151 61.8342C544.945 61.8797 544.732 61.8753 544.528 61.8215C544.325 61.7677 544.137 61.6659 543.981 61.5247C543.824 61.3835 543.704 61.207 543.63 61.0099L540.78 53.6999L534.05 54.8099L532.38 61.4799C532.305 61.7654 532.138 62.0182 531.905 62.199C531.672 62.3798 531.385 62.4786 531.09 62.4799H525.43L525.1 66.4799C525.077 66.7512 524.972 67.0091 524.8 67.2199L517.08 76.4599C516.909 76.6649 516.68 76.8137 516.423 76.8868C516.166 76.9599 515.893 76.954 515.64 76.8699L511.64 75.5699L500.49 81.4099V85.0199C500.483 85.2146 500.432 85.4053 500.342 85.5782C500.252 85.7511 500.125 85.9019 499.97 86.0199L486.66 96.2199V97.0999L488.48 97.4299L493.64 95.7999L501.18 91.7399C501.37 91.6417 501.581 91.5905 501.795 91.5905C502.009 91.5905 502.22 91.6417 502.41 91.7399L504.17 92.6199C504.347 92.7057 504.503 92.8297 504.626 92.983C504.749 93.1363 504.837 93.315 504.883 93.5064C504.929 93.6977 504.932 93.8968 504.892 94.0893C504.851 94.2819 504.769 94.4631 504.65 94.6199L503 96.8599L503.34 97.2099L509.34 97.9599L516.24 91.6099C516.398 91.4622 516.591 91.3558 516.8 91.3C517.009 91.2442 517.229 91.2407 517.44 91.2899L520.63 92.0299L537.49 78.3099C537.636 78.1894 537.806 78.102 537.989 78.0537C538.172 78.0054 538.364 77.9972 538.55 78.0299L542.08 78.6199C542.293 78.6577 542.494 78.7466 542.665 78.8788C542.836 79.011 542.973 79.1828 543.063 79.3793C543.154 79.5758 543.195 79.7913 543.184 80.0074C543.173 80.2234 543.11 80.4336 543 80.6199L540.64 84.4399C540.48 84.7093 540.228 84.9117 539.93 85.0099L535.37 86.5299L534.54 90.8899L534.96 91.0699L536.96 89.6999C537.257 89.511 537.616 89.4463 537.96 89.5199L544.22 90.9999C544.512 91.0692 544.773 91.2347 544.96 91.4699L547.83 95.1299L558.12 95.9199L561.81 92.2399C561.933 92.1159 562.08 92.0176 562.241 91.9507C562.402 91.8837 562.575 91.8495 562.75 91.8499H572.1L577.38 88.7899C577.553 88.6891 577.746 88.6284 577.945 88.6125C578.144 88.5965 578.344 88.6256 578.531 88.6977C578.717 88.7697 578.885 88.8829 579.021 89.0287C579.158 89.1745 579.26 89.3492 579.32 89.5399L580.5 93.3199H583.17L586.23 92.4799C586.481 92.4046 586.749 92.4046 587 92.4799L591.42 93.9999C591.72 94.1003 591.975 94.3045 592.138 94.5758C592.301 94.8471 592.362 95.1677 592.31 95.4799L591.87 98.1399L593.47 99.1399C593.661 99.2596 593.819 99.4263 593.927 99.6241C594.036 99.8219 594.092 100.044 594.09 100.27V101.44C594.091 101.75 593.983 102.05 593.786 102.29C593.589 102.529 593.314 102.692 593.01 102.75L582.12 104.81C581.942 104.845 581.758 104.845 581.58 104.81L575.58 103.45L572.78 104.98C572.701 105.023 572.617 105.057 572.53 105.08L566.29 106.98L564.49 110.33C564.375 110.54 564.205 110.715 564 110.838C563.794 110.961 563.56 111.028 563.32 111.03H555.05L545.05 133.03L554 120.65C554.123 120.474 554.288 120.331 554.48 120.235C554.672 120.139 554.885 120.093 555.1 120.1C555.314 120.104 555.524 120.16 555.712 120.262C555.9 120.365 556.061 120.512 556.18 120.69L557.36 122.45C557.469 122.616 557.54 122.805 557.568 123.002C557.595 123.199 557.579 123.4 557.52 123.59L553.45 136.68L553.17 140.94C553.153 141.149 553.088 141.35 552.98 141.53L550.51 145.65L550.22 153.55C550.235 153.646 550.235 153.744 550.22 153.84L549.1 158L552.28 173.88C552.319 174.07 552.315 174.267 552.269 174.456C552.222 174.644 552.134 174.82 552.01 174.97L550.27 177.16ZM675.76 151.06C675.711 151.196 675.636 151.322 675.54 151.43L675.94 151.26L675.76 151.06ZM662.12 140.9L670.12 143.63C670.193 143.422 670.318 143.236 670.482 143.089C670.647 142.943 670.845 142.84 671.06 142.79L687.21 139C687.464 138.92 687.736 138.92 687.99 139L689.99 139.74L699.06 137.34L701.73 132.81C701.901 132.513 702.181 132.294 702.51 132.2L705.63 131.31L705.38 123.8L702.48 117.68L698.12 119.55L696.6 126.35C696.532 126.649 696.359 126.913 696.114 127.096C695.868 127.28 695.566 127.369 695.26 127.35L684.27 127L668.43 133.09L662.12 136.8V140.9ZM538.69 80.7499L534.8 83.9199L538.62 82.6499L539.68 80.9199L538.69 80.7499Z" fill="#0F6CF4"/>
<path d="M97.1794 490.6L96.1094 495.15L100.659 495.42L107.359 491.67L101.199 486.85L97.1794 490.6Z" fill="white"/>
<path d="M100.66 496.75H100.59L95.9998 496.48C95.8051 496.467 95.6153 496.414 95.443 496.322C95.2706 496.231 95.1196 496.104 94.9998 495.95C94.8847 495.794 94.8046 495.615 94.7649 495.425C94.7252 495.235 94.7269 495.039 94.7698 494.85L95.8498 490.29C95.9098 490.035 96.0417 489.802 96.2298 489.62L100.23 485.87C100.464 485.657 100.766 485.534 101.082 485.521C101.398 485.508 101.709 485.607 101.96 485.8L108.12 490.62C108.293 490.755 108.43 490.931 108.518 491.131C108.607 491.332 108.645 491.552 108.628 491.771C108.611 491.989 108.54 492.201 108.422 492.385C108.304 492.57 108.141 492.723 107.95 492.83L101.25 496.58C101.069 496.682 100.867 496.74 100.66 496.75V496.75ZM97.7698 493.92L100.35 494.07L104.97 491.48L101.28 488.59L98.3798 491.29L97.7698 493.92Z" fill="#0F6CF4"/>
<path d="M51.3691 453.89L55.9191 456.57L59.1391 453.89L52.1691 448.8L51.3691 453.89Z" fill="white"/>
<path d="M55.9196 457.9C55.6844 457.899 55.4534 457.837 55.2496 457.72L50.6996 455C50.468 454.867 50.2827 454.667 50.1683 454.425C50.0539 454.184 50.016 453.913 50.0596 453.65L50.8596 448.56C50.8971 448.338 50.9914 448.129 51.1333 447.954C51.2752 447.779 51.4599 447.643 51.6696 447.56C51.8795 447.473 52.1083 447.441 52.3341 447.467C52.56 447.493 52.7753 447.577 52.9596 447.71L59.9596 452.8C60.1202 452.915 60.2531 453.064 60.3483 453.238C60.4434 453.411 60.4986 453.603 60.5096 453.8C60.5152 454.003 60.475 454.205 60.3918 454.39C60.3087 454.575 60.1849 454.739 60.0296 454.87L56.8196 457.54C56.5761 457.77 56.2544 457.899 55.9196 457.9V457.9ZM52.8296 453.21L55.8296 454.95L56.9996 454L53.1696 451.2L52.8296 453.21Z" fill="#0F6CF4"/>
<path d="M50.0303 420.94L55.6603 427.64L58.0703 425.5L50.5703 418L50.0303 420.94Z" fill="white"/>
<path d="M55.6599 429H55.5599C55.2031 428.972 54.8721 428.803 54.6399 428.53L48.9999 421.8C48.875 421.649 48.7844 421.472 48.7344 421.282C48.6843 421.092 48.676 420.894 48.7099 420.7L49.2499 417.76C49.2974 417.527 49.407 417.311 49.5672 417.135C49.7274 416.959 49.9322 416.829 50.1599 416.76C50.3921 416.687 50.6398 416.68 50.8761 416.738C51.1123 416.796 51.3281 416.918 51.4999 417.09L58.9999 424.59C59.1308 424.721 59.2331 424.877 59.3003 425.049C59.3674 425.221 59.398 425.406 59.3899 425.59C59.3828 425.771 59.3393 425.948 59.262 426.111C59.1846 426.274 59.0751 426.42 58.9399 426.54L56.5299 428.68C56.2886 428.889 55.9792 429.003 55.6599 429V429ZM52.4699 421.81L55.7999 425.81L56.1299 425.51L52.4699 421.81Z" fill="#0F6CF4"/>
<path d="M36.6396 497.83L32.3496 500.24L33.4196 503.99L39.8496 503.72L39.5796 499.7L36.6396 497.83Z" fill="white"/>
<path d="M33.4196 505.32C33.1262 505.317 32.8421 505.217 32.6109 505.036C32.3796 504.856 32.2141 504.604 32.1396 504.32L31.0696 500.57C30.9864 500.281 31.0034 499.973 31.1178 499.695C31.2322 499.417 31.4373 499.187 31.6996 499.04L35.9996 496.67C36.2061 496.545 36.4431 496.479 36.6846 496.479C36.9262 496.479 37.1632 496.545 37.3696 496.67L40.3196 498.54C40.4894 498.651 40.6323 498.798 40.7378 498.971C40.8434 499.144 40.9089 499.339 40.9296 499.54L41.1996 503.54C41.2125 503.721 41.1891 503.903 41.1307 504.074C41.0723 504.246 40.9801 504.405 40.8596 504.54C40.7427 504.673 40.5999 504.78 40.44 504.856C40.2801 504.932 40.1064 504.974 39.9296 504.98L33.4996 505.25L33.4196 505.32ZM33.9196 500.88L34.4096 502.62L38.4096 502.45L38.2796 500.45L36.5696 499.36L33.9196 500.88Z" fill="#0F6CF4"/>
<path d="M22.9696 497.29L21.0996 501.31L27.2596 502.92L26.9896 498.9L22.9696 497.29Z" fill="white"/>
<path d="M27.2595 504.25C27.1467 504.265 27.0324 504.265 26.9195 504.25L20.7595 502.64C20.5706 502.591 20.3947 502.501 20.2443 502.377C20.094 502.253 19.9728 502.097 19.8895 501.92C19.8104 501.742 19.7695 501.55 19.7695 501.355C19.7695 501.16 19.8104 500.968 19.8895 500.79L21.7695 496.79C21.9118 496.481 22.1681 496.238 22.4849 496.113C22.8017 495.989 23.1545 495.991 23.4695 496.12L27.4695 497.73C27.7002 497.824 27.9 497.981 28.0466 498.182C28.1932 498.383 28.2808 498.622 28.2995 498.87L28.5695 502.87C28.5804 503.052 28.5541 503.234 28.4923 503.405C28.4305 503.576 28.3344 503.733 28.2099 503.866C28.0855 503.999 27.9352 504.105 27.7684 504.178C27.6016 504.251 27.4216 504.289 27.2395 504.29L27.2595 504.25ZM22.9995 500.43L25.8295 501.17L25.7395 499.83L23.6495 499L22.9995 500.43Z" fill="#0F6CF4"/>
<path d="M36.3701 444.51C36.094 444.51 35.8247 444.424 35.5992 444.265C35.3737 444.105 35.2028 443.88 35.1101 443.62L33.5101 439.07C33.4373 438.903 33.3996 438.723 33.3994 438.54C33.3992 438.358 33.4366 438.177 33.5091 438.01C33.5816 437.843 33.6878 437.692 33.821 437.568C33.9542 437.443 34.1116 437.347 34.2834 437.286C34.4552 437.225 34.6377 437.2 34.8197 437.212C35.0016 437.224 35.1791 437.274 35.341 437.358C35.503 437.442 35.6459 437.558 35.761 437.7C35.8761 437.841 35.9609 438.005 36.0101 438.18L37.6201 442.74C37.6786 442.904 37.704 443.078 37.6949 443.252C37.6858 443.426 37.6424 443.597 37.5671 443.754C37.4918 443.911 37.3861 444.052 37.2562 444.168C37.1263 444.284 36.9747 444.373 36.8101 444.43C36.6686 444.48 36.5201 444.507 36.3701 444.51V444.51Z" fill="#0F6CF4"/>
<path d="M312.49 489.26L304.45 486.04L300.54 482.36L297.78 483.97L299.85 488.34L295.48 492.01L300.08 499.83L298.7 506.5L303.3 509.49L308.36 503.74L312.95 503.28L318.47 498.68L312.95 494.08L312.49 489.26Z" fill="white"/>
<path d="M303.3 510.82C303.041 510.815 302.789 510.739 302.57 510.6L297.98 507.6C297.756 507.455 297.581 507.245 297.478 506.999C297.374 506.753 297.347 506.481 297.4 506.22L298.67 500.05L294.34 492.68C294.179 492.41 294.12 492.091 294.173 491.781C294.226 491.471 294.388 491.191 294.63 490.99L298.21 487.99L296.58 484.55C296.434 484.249 296.408 483.905 296.507 483.585C296.605 483.266 296.821 482.996 297.11 482.83L299.87 481.22C300.118 481.076 300.405 481.015 300.69 481.048C300.975 481.08 301.241 481.204 301.45 481.4L305.18 484.91L313 488C313.226 488.092 313.423 488.243 313.57 488.439C313.716 488.635 313.806 488.867 313.83 489.11L314.24 493.39L319.33 497.64C319.477 497.763 319.596 497.915 319.678 498.088C319.761 498.26 319.806 498.448 319.81 498.64C319.807 498.831 319.762 499.02 319.679 499.192C319.596 499.365 319.477 499.517 319.33 499.64L313.81 504.24C313.611 504.411 313.362 504.516 313.1 504.54L309 505L304.29 510.35C304.168 510.494 304.016 510.61 303.846 510.691C303.675 510.773 303.489 510.816 303.3 510.82V510.82ZM300.19 505.88L303.06 507.74L307.36 502.86C307.582 502.61 307.888 502.45 308.22 502.41L312.42 501.99L316.42 498.68L312.13 495.11C311.861 494.884 311.692 494.56 311.66 494.21L311.28 490.21L303.98 487.29C303.829 487.228 303.69 487.14 303.57 487.03L300.38 484.03L299.54 484.52L301.08 487.79C301.206 488.054 301.242 488.352 301.18 488.638C301.119 488.924 300.964 489.181 300.74 489.37L297.23 492.37L301.23 499.22C301.393 499.504 301.447 499.839 301.38 500.16L300.19 505.88Z" fill="#0F6CF4"/>
<path d="M278.47 474.27C278.117 474.283 277.774 474.156 277.515 473.916C277.256 473.676 277.103 473.343 277.09 472.99C277.077 472.637 277.204 472.294 277.444 472.035C277.684 471.776 278.017 471.623 278.37 471.61L281.37 471.38C281.544 471.365 281.72 471.385 281.886 471.438C282.053 471.491 282.207 471.577 282.34 471.691C282.473 471.804 282.582 471.943 282.661 472.099C282.74 472.255 282.787 472.425 282.8 472.6C282.825 472.952 282.709 473.3 282.479 473.568C282.249 473.836 281.922 474.002 281.57 474.03L278.57 474.26L278.47 474.27Z" fill="#0F6CF4"/>
<path d="M272.96 466.96L282.61 468.57L273.88 465.12L272.96 466.96Z" fill="white"/>
<path d="M282.61 469.9H282.39L272.74 468.29C272.528 468.261 272.326 468.182 272.152 468.058C271.978 467.934 271.836 467.77 271.74 467.58C271.646 467.394 271.597 467.188 271.597 466.98C271.597 466.771 271.646 466.566 271.74 466.38L272.66 464.55C272.805 464.251 273.058 464.018 273.367 463.898C273.677 463.778 274.021 463.778 274.33 463.9L283.07 467.35C283.36 467.462 283.601 467.673 283.752 467.945C283.903 468.217 283.954 468.533 283.895 468.839C283.837 469.145 283.674 469.42 283.433 469.617C283.193 469.815 282.891 469.922 282.58 469.92L282.61 469.9Z" fill="#0F6CF4"/>
<path d="M285.14 472.25L289.05 477.3L294.33 477.53L296.86 474.77L286.75 469.49L285.14 472.25Z" fill="white"/>
<path d="M294.33 478.86H294.28L288.99 478.63C288.797 478.622 288.607 478.572 288.435 478.484C288.262 478.396 288.11 478.272 287.99 478.12L284.09 473.06C283.928 472.851 283.832 472.599 283.815 472.335C283.797 472.072 283.858 471.809 283.99 471.58L285.6 468.82C285.77 468.524 286.049 468.305 286.377 468.21C286.705 468.115 287.058 468.151 287.36 468.31L297.48 473.6C297.661 473.694 297.817 473.828 297.937 473.992C298.058 474.156 298.138 474.345 298.173 474.546C298.208 474.746 298.196 474.952 298.138 475.147C298.08 475.342 297.978 475.521 297.84 475.67L295.31 478.43C295.187 478.568 295.036 478.677 294.867 478.751C294.698 478.826 294.515 478.863 294.33 478.86V478.86ZM289.72 476L293.72 476.18L294.66 475.18L287.21 471.28L286.69 472.17L289.72 476Z" fill="#0F6CF4"/>
<path d="M256.181 457.76L256.631 462.13L260.311 464.2H265.601L261.691 456.84L256.181 457.76Z" fill="white"/>
<path d="M265.6 465.53H260.31C260.083 465.53 259.859 465.471 259.66 465.36L256 463.29C255.819 463.187 255.664 463.042 255.548 462.869C255.431 462.695 255.357 462.497 255.33 462.29L254.87 457.92C254.835 457.582 254.931 457.244 255.137 456.975C255.344 456.705 255.645 456.525 255.98 456.47L261.49 455.55C261.767 455.505 262.05 455.547 262.301 455.67C262.552 455.794 262.758 455.993 262.89 456.24L266.79 463.6C266.9 463.802 266.955 464.029 266.95 464.258C266.945 464.488 266.88 464.712 266.762 464.909C266.644 465.106 266.477 465.269 266.276 465.381C266.076 465.494 265.85 465.552 265.62 465.55L265.6 465.53ZM260.66 462.87H263.39L261 458.31L257.66 458.87L257.92 461.31L260.66 462.87Z" fill="#0F6CF4"/>
<path d="M228.819 447.65L229.969 452.25L237.559 452.02L237.779 448.11L231.579 444.89L228.819 447.65Z" fill="white"/>
<path d="M230 453.58C229.704 453.579 229.418 453.48 229.185 453.299C228.951 453.118 228.784 452.866 228.71 452.58L227.56 447.98C227.505 447.758 227.509 447.525 227.57 447.304C227.632 447.084 227.748 446.883 227.91 446.72L230.67 443.96C230.868 443.76 231.126 443.628 231.405 443.585C231.684 443.542 231.969 443.589 232.22 443.72L238.43 446.94C238.657 447.059 238.845 447.242 238.971 447.465C239.097 447.689 239.155 447.944 239.14 448.2L238.91 452.11C238.89 452.44 238.748 452.751 238.511 452.982C238.274 453.214 237.96 453.348 237.63 453.36L230.04 453.59L230 453.58ZM230.32 448.06L231.03 450.89L236.33 450.72L236.44 448.89L231.86 446.52L230.32 448.06Z" fill="#0F6CF4"/>
<path d="M220.54 452.89C220.365 452.896 220.191 452.867 220.027 452.806C219.864 452.745 219.714 452.652 219.586 452.532C219.459 452.413 219.356 452.27 219.283 452.11C219.211 451.951 219.171 451.78 219.165 451.605C219.159 451.43 219.187 451.256 219.249 451.093C219.31 450.929 219.403 450.779 219.523 450.651C219.642 450.524 219.785 450.421 219.944 450.348C220.103 450.276 220.275 450.236 220.45 450.23L223.67 450C223.844 449.985 224.02 450.005 224.187 450.059C224.353 450.113 224.507 450.2 224.64 450.315C224.772 450.43 224.88 450.57 224.957 450.727C225.035 450.884 225.08 451.055 225.09 451.23C225.115 451.581 224.999 451.928 224.768 452.194C224.538 452.46 224.211 452.624 223.86 452.65L220.64 452.88L220.54 452.89Z" fill="#0F6CF4"/>
<g opacity="0.5">
<path opacity="0.5" d="M185.69 403.57H168.5L166.18 399.85L154.51 397.64L146.67 401.24L148.53 470.46L162 476.04L166.64 480.68L175.01 482.07L184.3 495.55L199.16 502.51L200.86 514.98L201.56 525H214.47V430.87L185.69 403.57Z" fill="white"/>
</g>
<path d="M78.9999 503.66C78.683 503.657 78.3778 503.54 78.1392 503.332C77.9007 503.123 77.7444 502.836 77.6986 502.523C77.6527 502.209 77.7204 501.889 77.8893 501.621C78.0582 501.353 78.3173 501.154 78.6199 501.06L81.4399 500.21C81.6073 500.16 81.7831 500.143 81.9571 500.16C82.1311 500.177 82.3 500.229 82.4542 500.311C82.6083 500.394 82.7447 500.506 82.8555 500.642C82.9663 500.777 83.0493 500.933 83.0999 501.1C83.1504 501.268 83.1675 501.443 83.1501 501.617C83.1328 501.791 83.0813 501.96 82.9987 502.114C82.916 502.269 82.8038 502.405 82.6685 502.516C82.5331 502.627 82.3773 502.71 82.2099 502.76L79.3899 503.61C79.2631 503.646 79.1316 503.663 78.9999 503.66V503.66Z" fill="#0F6CF4"/>
<path d="M72.9999 504H70.9999C70.6472 504 70.3089 503.86 70.0595 503.61C69.81 503.361 69.6699 503.023 69.6699 502.67C69.6699 502.317 69.81 501.979 70.0595 501.729C70.3089 501.48 70.6472 501.34 70.9999 501.34H72.9999C73.3527 501.34 73.691 501.48 73.9404 501.729C74.1898 501.979 74.3299 502.317 74.3299 502.67C74.3299 503.023 74.1898 503.361 73.9404 503.61C73.691 503.86 73.3527 504 72.9999 504V504Z" fill="#0F6CF4"/>
<path d="M187.46 494.35L185.32 485.24L179.42 476.67H175.94L174.33 477.74L171.39 479.61L160.67 472.61L151.83 469.39L154.51 397.6L149.69 393.31H143.79L139.24 392.77L130.13 388.77L124 388L122.93 382.91L119.18 383.72L117.57 384.25L115.7 380.25L112.7 379.98L111.09 382.4L106.54 381.86C106.54 381.86 104.39 380.25 104.13 381.06C103.228 382.553 102.226 383.983 101.13 385.34L96.57 383.74L91.48 391.5L82.38 390.97L81.3 393.11L85.3 400.61L85.03 405.7L88.88 407L90.48 411.82L89.14 415.57L84.05 413.7L83 407.82L76.84 407.55L76.3 410.23L71.21 409.16L68.8 409.96L68.54 412.37L71.21 417.19L69.87 422.28L76.57 424.43L77.91 422.55L80.91 423.62V426.3H86L88.14 426.03L87 434.61L78.43 434.87L77.89 437.28L73.07 436.75V433.27L69.07 434.07L68 438.36L61.84 442.11L62.64 446.93L65.32 448.8L62.11 453.09L65.32 460.86L70.41 461.93L71.21 460.06L73.89 461.4V464.34L70.66 467L71.46 471.56L77.36 470.75L79.23 474.23H82.71L89.95 474.77L83.52 485.22L77.89 486.02L76.82 490.58H71.46L69.59 492.72L61.01 493.52L56.19 496.74L45.74 497L45.21 498.87L57.8 501L62.89 497.25L78.16 496.72L80 493.28L94.46 487.38L103.3 479.38L100.36 475.63L103.57 472.15H107.86L114.29 462.24L120.72 461.97L121.52 465.19H116.2L113.2 473.49L110 476.4L111.07 477.47H115.63L118.84 473.72L127.14 474.52L126.07 467.52L130.9 465.91L133.04 470.2L152.6 476.09H158L160.68 480.38L168.18 487.38L173.27 486.58L172.47 491.13L179.47 501.85L183.76 499.7L187.24 502.65L186.71 506.4L192.87 517.92L198.23 516.05L193.94 506.94L197.94 507.47L200.94 514.97L203.88 514.17L202.81 501.85L187.46 494.35Z" fill="white"/>
<path d="M192.82 519.25C192.58 519.251 192.344 519.186 192.138 519.063C191.932 518.939 191.763 518.762 191.65 518.55L185.49 507C185.352 506.75 185.299 506.462 185.34 506.18L185.77 503.18L183.52 501.28L180 503C179.707 503.146 179.371 503.178 179.055 503.092C178.74 503.005 178.468 502.805 178.29 502.53L171.29 491.82C171.1 491.524 171.032 491.165 171.1 490.82L171.58 488.1L168.33 488.62C168.132 488.648 167.929 488.632 167.737 488.573C167.546 488.515 167.369 488.414 167.22 488.28L159.72 481.28C159.633 481.199 159.556 481.109 159.49 481.01L157.21 477.35H152.58C152.451 477.349 152.323 477.329 152.2 477.29L132.64 471.4C132.467 471.347 132.307 471.26 132.17 471.143C132.032 471.026 131.92 470.882 131.84 470.72L130.21 467.47L127.55 468.35L128.45 474.21C128.48 474.411 128.464 474.616 128.403 474.81C128.343 475.004 128.239 475.182 128.1 475.33C127.959 475.473 127.788 475.584 127.6 475.655C127.412 475.725 127.211 475.754 127.01 475.74L119.39 475L116.62 478.22C116.498 478.366 116.345 478.484 116.172 478.566C116 478.647 115.811 478.689 115.62 478.69H111.06C110.708 478.69 110.369 478.549 110.12 478.3L109.05 477.23C108.921 477.106 108.818 476.957 108.747 476.792C108.677 476.627 108.641 476.449 108.641 476.27C108.641 476.091 108.677 475.913 108.747 475.748C108.818 475.583 108.921 475.434 109.05 475.31L112.05 472.58L114.89 464.58C114.983 464.323 115.152 464.1 115.376 463.942C115.6 463.785 115.867 463.7 116.14 463.7H119.8L119.67 463.19L115.01 463.38L109 472.83C108.882 473.017 108.718 473.171 108.524 473.278C108.33 473.385 108.112 473.44 107.89 473.44H104.18L102.18 475.66L104.43 478.52C104.637 478.785 104.736 479.119 104.709 479.454C104.681 479.79 104.528 480.102 104.28 480.33L95.4403 488.33C95.3205 488.431 95.1855 488.512 95.0403 488.57L81.0403 494.29L79.3903 497.35C79.2799 497.553 79.1188 497.725 78.9225 497.848C78.7262 497.97 78.5015 498.04 78.2702 498.05L63.4102 498.57L58.6503 502.07C58.5091 502.177 58.3478 502.254 58.1759 502.297C58.004 502.34 57.8252 502.348 57.6503 502.32L45.0003 500.21C44.8144 500.181 44.6369 500.113 44.4799 500.009C44.3229 499.906 44.19 499.769 44.0903 499.61C43.9923 499.452 43.9284 499.275 43.9026 499.091C43.8768 498.907 43.8896 498.719 43.9402 498.54L44.4802 496.66C44.5483 496.38 44.7066 496.131 44.9308 495.95C45.1549 495.769 45.4324 495.667 45.7203 495.66L55.7802 495.4L60.2903 492.4C60.47 492.273 60.6808 492.197 60.9003 492.18L68.9003 491.42L70.4202 489.68C70.5449 489.538 70.6988 489.424 70.8713 489.346C71.0438 489.269 71.2311 489.229 71.4202 489.23H75.7303L76.5602 485.7C76.6194 485.441 76.7565 485.206 76.9532 485.027C77.1499 484.848 77.3967 484.734 77.6603 484.7L82.6603 483.98L87.6603 475.92L82.6603 475.55H79.2303C78.991 475.552 78.7558 475.489 78.5497 475.367C78.3436 475.245 78.1744 475.07 78.0602 474.86L76.6203 472.18L71.6203 472.86C71.2802 472.909 70.9343 472.824 70.656 472.622C70.3778 472.421 70.1892 472.118 70.1302 471.78L69.3303 467.22C69.2892 466.99 69.3102 466.752 69.391 466.533C69.4719 466.313 69.6096 466.119 69.7903 465.97L72.5202 463.69V462.19L71.8402 461.85L71.5902 462.42C71.4713 462.703 71.2575 462.936 70.9856 463.078C70.7136 463.22 70.4006 463.263 70.1002 463.2L65.0002 462.16C64.7814 462.121 64.5756 462.028 64.4012 461.89C64.2267 461.753 64.089 461.574 64.0002 461.37L60.7903 453.6C60.7016 453.386 60.6698 453.153 60.6978 452.924C60.7258 452.694 60.8128 452.476 60.9503 452.29L63.3403 449.11L61.8603 448C61.57 447.793 61.3725 447.481 61.3103 447.13L60.5102 442.31C60.464 442.047 60.4985 441.777 60.6092 441.534C60.7199 441.291 60.9016 441.087 61.1303 440.95L66.8202 437.48L67.7603 433.73C67.8171 433.487 67.9409 433.264 68.1176 433.087C68.2943 432.911 68.5169 432.787 68.7603 432.73L72.7603 431.92C72.9534 431.883 73.1523 431.89 73.3427 431.938C73.5332 431.987 73.7106 432.077 73.8623 432.202C74.0141 432.327 74.1365 432.484 74.2208 432.662C74.3051 432.839 74.3493 433.033 74.3502 433.23V435.52L76.8003 435.79L77.0803 434.54C77.1523 434.259 77.3144 434.008 77.5419 433.828C77.7695 433.647 78.0498 433.546 78.3402 433.54L85.7702 433.31L86.4902 427.56L86.0403 427.62H80.8402C80.6652 427.621 80.4917 427.588 80.3297 427.521C80.1677 427.455 80.0206 427.357 79.8968 427.233C79.7731 427.11 79.6751 426.962 79.6088 426.8C79.5424 426.639 79.5089 426.465 79.5103 426.29V424.54L78.3903 424.14L77.6302 425.19C77.4686 425.419 77.2375 425.591 76.9711 425.679C76.7046 425.767 76.4169 425.768 76.1503 425.68L69.4502 423.54C69.1263 423.434 68.855 423.208 68.6915 422.909C68.528 422.61 68.4846 422.26 68.5702 421.93L69.7702 417.36L67.3502 413C67.2181 412.755 67.1624 412.477 67.1903 412.2L67.4602 409.79C67.4891 409.538 67.5891 409.3 67.7485 409.104C67.9079 408.907 68.1202 408.76 68.3603 408.68L70.7702 407.87C71.0004 407.815 71.2401 407.815 71.4703 407.87L75.2402 408.67L75.5202 407.31C75.5892 407.002 75.7622 406.728 76.0099 406.533C76.2577 406.338 76.5651 406.235 76.8802 406.24L83.0403 406.51C83.3418 406.521 83.6304 406.636 83.8578 406.834C84.0853 407.032 84.2379 407.303 84.2903 407.6L85.2303 412.74L88.3402 413.89L89.0803 411.84L87.8203 408.07L84.6803 406.94C84.4094 406.846 84.1767 406.667 84.0177 406.428C83.8588 406.19 83.7824 405.906 83.8003 405.62L84.0503 400.9L80.2002 393.73C80.1021 393.542 80.0508 393.332 80.0508 393.12C80.0508 392.908 80.1021 392.698 80.2002 392.51L81.2702 390.36C81.3904 390.132 81.5724 389.943 81.7952 389.814C82.0181 389.685 82.2728 389.621 82.5303 389.63L90.8703 390.12L95.5303 383C95.6916 382.748 95.9339 382.558 96.2174 382.462C96.5009 382.365 96.8087 382.368 97.0902 382.47L100.73 383.76C101.519 382.755 102.24 381.699 102.89 380.6C102.977 380.362 103.118 380.148 103.302 379.975C103.486 379.801 103.708 379.673 103.95 379.6C104.73 379.36 105.77 379.69 107.06 380.6L110.46 381L111.61 379.27C111.741 379.068 111.925 378.906 112.142 378.802C112.359 378.698 112.601 378.656 112.84 378.68L115.84 378.95C116.071 378.97 116.293 379.05 116.483 379.184C116.673 379.317 116.824 379.499 116.92 379.71L118.29 382.65L118.78 382.49H118.92L122.67 381.69C123.012 381.618 123.368 381.682 123.664 381.869C123.959 382.056 124.169 382.35 124.25 382.69L125.13 386.85L130.35 387.54C130.478 387.553 130.603 387.587 130.72 387.64L139.64 391.58L143.92 392.08H149.74C150.066 392.08 150.379 392.201 150.62 392.42L155.44 396.7C155.587 396.832 155.703 396.994 155.781 397.175C155.859 397.357 155.896 397.553 155.89 397.75L153.25 468.57L161.18 471.46C161.274 471.495 161.364 471.539 161.45 471.59L171.45 478.09L175.25 475.62C175.469 475.474 175.727 475.397 175.99 475.4H179.47C179.686 475.399 179.899 475.45 180.091 475.549C180.282 475.648 180.447 475.793 180.57 475.97L186.46 484.54C186.559 484.673 186.627 484.827 186.66 484.99L188.66 493.49L203.37 500.71C203.576 500.812 203.752 500.964 203.881 501.153C204.011 501.343 204.09 501.562 204.11 501.79L205.18 514.12C205.206 514.433 205.119 514.744 204.936 514.999C204.753 515.254 204.485 515.435 204.18 515.51L201.24 516.32C200.923 516.404 200.586 516.369 200.293 516.222C200 516.075 199.771 515.825 199.65 515.52L197 508.69L196.17 508.58L199.42 515.48C199.497 515.65 199.537 515.834 199.537 516.02C199.537 516.206 199.497 516.39 199.42 516.56C199.351 516.732 199.245 516.887 199.11 517.014C198.976 517.142 198.816 517.239 198.64 517.3L193.28 519.18C193.132 519.23 192.976 519.253 192.82 519.25V519.25ZM188 506.16L193.42 516.29L196.31 515.29L192.65 507.51C192.548 507.294 192.506 507.055 192.529 506.817C192.552 506.579 192.638 506.352 192.78 506.16C192.923 505.968 193.113 505.818 193.333 505.725C193.553 505.632 193.794 505.599 194.03 505.63L198.03 506.17C198.265 506.201 198.487 506.295 198.673 506.441C198.859 506.587 199.003 506.78 199.09 507L201.6 513.39L202.32 513.19L201.41 502.72L186.82 495.55C186.643 495.465 186.486 495.34 186.364 495.186C186.241 495.032 186.154 494.852 186.11 494.66L184.02 485.8L178.73 478H176.34L175.07 478.84L172.07 480.73C171.855 480.867 171.605 480.94 171.35 480.94C171.095 480.94 170.845 480.867 170.63 480.73L160.04 473.85L151.35 470.68C151.084 470.586 150.854 470.409 150.696 470.175C150.538 469.941 150.458 469.662 150.47 469.38L153.13 398.21L149.13 394.68H143.59L139.04 394.15C138.906 394.13 138.775 394.093 138.65 394.04L129.72 390.1L123.72 389.32C123.453 389.287 123.201 389.174 123 388.996C122.798 388.817 122.655 388.581 122.59 388.32L121.79 384.53L119.42 385.04L117.88 385.55C117.571 385.651 117.236 385.636 116.937 385.507C116.639 385.378 116.398 385.144 116.26 384.85L114.7 381.53L113.31 381.4L112.14 383.15C112.004 383.353 111.814 383.516 111.592 383.62C111.37 383.724 111.124 383.765 110.88 383.74L106.32 383.2C106.087 383.174 105.866 383.084 105.68 382.94C105.418 382.747 105.144 382.57 104.86 382.41C104.17 383.53 102.96 385.15 102.17 386.17C102.002 386.393 101.766 386.557 101.499 386.638C101.231 386.719 100.944 386.713 100.68 386.62L97.1103 385.36L92.5902 392.25C92.4615 392.445 92.2839 392.603 92.0751 392.708C91.8664 392.814 91.6337 392.862 91.4003 392.85L83.1603 392.37L82.7903 393.11L86.4902 400C86.5988 400.217 86.6504 400.458 86.6403 400.7L86.4303 404.8L89.2402 405.8C89.431 405.867 89.604 405.976 89.7461 406.12C89.8882 406.264 89.9956 406.438 90.0602 406.63L91.6603 411.45C91.7602 411.731 91.7602 412.039 91.6603 412.32L90.4003 416C90.3413 416.166 90.25 416.319 90.1315 416.449C90.0131 416.58 89.8699 416.685 89.7103 416.76C89.389 416.887 89.0315 416.887 88.7103 416.76L83.5902 415C83.3757 414.919 83.1853 414.784 83.0366 414.609C82.888 414.434 82.7861 414.225 82.7402 414L81.8603 409.15L77.8603 408.98L77.5503 410.54C77.4782 410.887 77.2737 411.192 76.9803 411.39C76.6833 411.578 76.3256 411.646 75.9803 411.58L71.2402 410.58L70.0002 411L69.8703 412.15L72.3502 416.6C72.5188 416.905 72.5618 417.264 72.4703 417.6L71.4703 421.47L76.0003 422.86L76.7803 421.78C76.9489 421.542 77.1909 421.367 77.4692 421.28C77.7474 421.193 78.0464 421.2 78.3203 421.3L81.2603 422.37C81.5177 422.462 81.7403 422.632 81.8978 422.856C82.0553 423.08 82.1399 423.346 82.1403 423.62V425H85.8203L87.8802 424.74C88.0814 424.715 88.2854 424.737 88.4768 424.804C88.6682 424.87 88.842 424.979 88.9847 425.123C89.1275 425.267 89.2356 425.441 89.3006 425.633C89.3657 425.825 89.3861 426.029 89.3603 426.23L88.2903 434.8C88.245 435.111 88.0902 435.396 87.8538 435.603C87.6173 435.81 87.3146 435.926 87.0003 435.93L79.4603 436.17L79.1503 437.57C79.0702 437.884 78.8792 438.158 78.6126 438.342C78.3461 438.525 78.022 438.607 77.7002 438.57L72.8802 438.03C72.555 437.995 72.2541 437.841 72.0361 437.597C71.8181 437.353 71.6984 437.037 71.7002 436.71V434.85L70.1002 435.17L69.2303 438.64C69.1892 438.808 69.115 438.966 69.012 439.105C68.9089 439.245 68.7791 439.362 68.6302 439.45L63.2403 442.74L63.8002 446.12L66.0202 447.67C66.1666 447.772 66.2908 447.903 66.3855 448.055C66.4802 448.206 66.5434 448.375 66.5714 448.551C66.5994 448.728 66.5916 448.908 66.5485 449.081C66.5053 449.254 66.4277 449.417 66.3202 449.56L63.5603 453.24L66.2203 459.66L69.5602 460.37L69.9303 459.49C70.0028 459.324 70.1085 459.174 70.2409 459.05C70.3733 458.927 70.5296 458.831 70.7002 458.77C70.8695 458.705 71.0507 458.677 71.2317 458.687C71.4127 458.697 71.5895 458.746 71.7502 458.83L74.4303 460.17C74.6517 460.279 74.8378 460.449 74.967 460.66C75.0961 460.87 75.1631 461.113 75.1603 461.36V464.3C75.1588 464.491 75.1161 464.679 75.0349 464.851C74.9538 465.024 74.8362 465.177 74.6903 465.3L72.0602 467.49L72.5103 470.03L77.1403 469.39C77.4086 469.355 77.6812 469.403 77.9222 469.526C78.1632 469.649 78.3612 469.842 78.4902 470.08L79.9902 472.86H82.6702L90.0103 473.4C90.2365 473.419 90.4543 473.495 90.6432 473.62C90.8322 473.746 90.986 473.918 91.0902 474.12C91.2005 474.321 91.2584 474.546 91.2584 474.775C91.2584 475.004 91.2005 475.229 91.0902 475.43L84.6603 485.88C84.5579 486.044 84.4206 486.184 84.2582 486.29C84.0957 486.395 83.9121 486.463 83.7203 486.49L78.9902 487.17L78.1203 490.84C78.0469 491.126 77.8803 491.38 77.6467 491.561C77.4131 491.742 77.1258 491.84 76.8303 491.84H72.0702L70.5902 493.53C70.3621 493.781 70.0482 493.938 69.7102 493.97L61.4703 494.75L56.9303 497.75C56.7225 497.89 56.4803 497.969 56.2302 497.98L49.3902 498.15L57.4703 499.53L62.1002 496.11C62.3157 495.952 62.5733 495.861 62.8403 495.85L77.3503 495.34L78.8603 492.53C79.0115 492.262 79.247 492.051 79.5303 491.93L93.7803 486.13L101.53 479.08L99.3503 476.3C99.1561 476.051 99.0566 475.742 99.0695 475.427C99.0823 475.112 99.2066 474.812 99.4202 474.58L102.63 471.1C102.758 470.963 102.913 470.854 103.085 470.78C103.257 470.706 103.443 470.668 103.63 470.67H107.19L113.19 461.37C113.304 461.19 113.46 461.04 113.645 460.934C113.829 460.827 114.037 460.768 114.25 460.76L120.68 460.49C120.983 460.488 121.279 460.585 121.522 460.765C121.765 460.945 121.944 461.2 122.03 461.49L122.83 464.7C122.879 464.896 122.882 465.101 122.84 465.299C122.798 465.497 122.711 465.683 122.587 465.842C122.463 466.002 122.304 466.131 122.123 466.221C121.942 466.311 121.743 466.358 121.54 466.36H117.12L114.49 473.78C114.413 473.982 114.29 474.164 114.13 474.31L112.27 476.02H115.03L117.85 472.73C117.99 472.568 118.166 472.442 118.364 472.362C118.563 472.281 118.777 472.25 118.99 472.27L125.59 472.91L124.78 467.64C124.731 467.331 124.794 467.014 124.957 466.746C125.12 466.479 125.373 466.278 125.67 466.18L130.5 464.57C130.804 464.469 131.135 464.481 131.43 464.604C131.726 464.727 131.968 464.953 132.11 465.24L133.99 469.01L152.81 474.68H158C158.226 474.68 158.447 474.737 158.645 474.845C158.842 474.954 159.009 475.11 159.13 475.3L161.72 479.44L168.6 486L173.06 485.29C173.269 485.26 173.482 485.279 173.682 485.347C173.882 485.415 174.063 485.529 174.21 485.68C174.359 485.83 174.47 486.014 174.533 486.216C174.595 486.418 174.608 486.632 174.57 486.84L173.86 490.84L179.86 500.12L183.09 498.51C183.322 498.394 183.583 498.348 183.841 498.378C184.098 498.408 184.341 498.513 184.54 498.68L188.02 501.63C188.194 501.774 188.327 501.959 188.408 502.17C188.488 502.38 188.513 502.607 188.48 502.83L188 506.16Z" fill="#0F6CF4"/>
<path d="M684.32 511C683.993 510.998 683.678 510.874 683.436 510.654C683.194 510.434 683.041 510.132 683.008 509.806C682.974 509.48 683.062 509.154 683.255 508.889C683.447 508.624 683.73 508.439 684.05 508.37C701.21 504.7 710.05 497.91 711.94 487C711.97 486.828 712.033 486.662 712.127 486.514C712.22 486.366 712.342 486.237 712.485 486.136C712.628 486.035 712.789 485.963 712.96 485.924C713.131 485.885 713.308 485.881 713.48 485.91C713.653 485.94 713.818 486.003 713.966 486.096C714.115 486.19 714.243 486.311 714.344 486.454C714.445 486.597 714.518 486.759 714.556 486.93C714.595 487.101 714.6 487.278 714.57 487.45C712.49 499.57 702.97 507.04 684.57 510.97C684.488 510.988 684.404 510.999 684.32 511V511Z" fill="#0F6CF4"/>
<path d="M669.78 512C669.445 511.988 669.127 511.85 668.889 511.614C668.651 511.378 668.511 511.061 668.497 510.726C668.483 510.391 668.596 510.063 668.814 509.808C669.031 509.553 669.337 509.389 669.67 509.35L676.67 508.77C677.016 508.75 677.356 508.866 677.618 509.094C677.88 509.321 678.043 509.642 678.071 509.988C678.1 510.333 677.992 510.676 677.772 510.944C677.551 511.211 677.235 511.382 676.89 511.42L669.89 512H669.78Z" fill="#0F6CF4"/>
<g opacity="0.5">
<path opacity="0.5" d="M732.21 451.87L730.5 453.25V454.62L726.38 454.96L725.01 457.7L728.44 461.47L735.3 456.67L743.18 455.64L743.53 452.56H734.61L732.21 451.87Z" fill="white"/>
</g>
<g opacity="0.5">
<path opacity="0.5" d="M744.9 482.39L742.15 482.73L744.55 489.24L742.15 493.36L745.24 497.47L753.47 495.41L754.15 490.61L744.9 482.39Z" fill="white"/>
</g>
<g opacity="0.5">
<path opacity="0.5" d="M746.27 447.42L748.33 450.85L754.15 450.5L756.9 455.3L755.18 462.16L759.299 465.59L762.38 454.27L757.24 447.42H746.27Z" fill="white"/>
</g>
<g opacity="0.5">
<path opacity="0.5" d="M767.18 468.67L766.84 471.42L778.84 475.87L778.5 482.39L782.61 484.1L783.29 473.81L767.18 468.67Z" fill="white"/>
</g>
<g opacity="0.5">
<path opacity="0.5" d="M791.18 482.39L789.12 485.13L796.66 492.67L798.72 489.93L791.18 482.39Z" fill="white"/>
</g>
<g opacity="0.5">
<path opacity="0.5" d="M814.15 488.56H811.06L811.41 493.7L814.84 494.38L814.15 488.56Z" fill="white"/>
</g>
<g opacity="0.5">
<path opacity="0.5" d="M758.95 496.78L752.44 501.58L762.04 509.47L766.15 507.07L758.95 496.78Z" fill="white"/>
</g>
<g opacity="0.5">
<path opacity="0.5" d="M822.72 510.5L820 519.07L819.86 524.86C824.015 524.472 828.043 523.215 831.68 521.17L832 514.27L822.72 510.5Z" fill="white"/>
</g>
</svg>
