<svg width="138" height="138" viewBox="0 0 138 138" fill="none" xmlns="http://www.w3.org/2000/svg">
<circle cx="69" cy="69" r="69" fill="#6227DF"/>
<path d="M90.5562 49.4785C90.5562 35.6106 78.6998 30 68.5371 30C61.3385 30 56.8923 31.3762 52.6579 33.811C50.2231 35.2931 48 37.7279 48 40.5861C48 43.4444 50.3289 46.6202 54.6693 46.6202C56.0455 46.6202 56.9982 46.1968 58.0568 45.6675C60.2799 44.0795 62.6088 42.4916 66.8433 42.4916C71.6071 42.4916 75.9474 44.6088 75.9474 51.0664C75.9474 56.1477 72.2422 58.5825 67.2667 62.6053C60.5975 67.7925 59.1154 71.2859 59.1154 77.6376C59.1154 81.872 61.8678 84.4127 65.7847 84.4127C69.7016 84.4127 72.3481 81.7661 72.3481 78.3786C72.3481 74.7793 72.9832 72.8738 79.8642 67.4749C85.369 63.1346 90.5562 58.2649 90.5562 49.4785ZM75.1005 99.7625C75.1005 94.5753 70.9719 90.4468 65.7847 90.4468C60.7033 90.4468 56.5748 94.5753 56.5748 99.7625C56.5748 104.844 60.7033 108.972 65.7847 108.972C70.9719 108.972 75.1005 104.844 75.1005 99.7625Z" fill="white"/>
</svg>
