<svg width="847" height="525" viewBox="0 0 847 525" fill="none" xmlns="http://www.w3.org/2000/svg">
<circle cx="267.5" cy="205.5" r="6.5" fill="#FF002E"/>
<circle cx="357.5" cy="176.5" r="6.5" fill="#FF002E"/>
<path d="M277 200.5C277 200.5 318.5 167 346 173.5" stroke="#FF002E" stroke-width="5" stroke-linecap="round" stroke-linejoin="round" stroke-dasharray="10 10"/>
<circle cx="267.5" cy="205.5" r="3.5" fill="white"/>
<circle cx="357.5" cy="176.5" r="3.5" fill="white"/>
<path d="M352.067 158.673C352.457 156.418 354.206 154.627 356.405 154.128C356.648 154.073 356.657 154.052 357.023 154.022C357.389 153.992 357.606 153.997 357.868 154.012C358.13 154.027 358.189 154.052 358.348 154.083C360.22 154.426 361.609 155.455 362.444 157.195C363.057 158.467 363.2 159.788 362.686 161.145C362.311 162.144 361.807 163.072 361.248 163.965C360.304 165.479 359.237 166.896 358.105 168.269C357.908 168.511 357.7 168.748 357.493 169C357.433 168.934 357.389 168.889 357.349 168.839C356.381 167.703 355.462 166.523 354.607 165.292C353.816 164.152 353.08 162.982 352.516 161.7C352.091 160.732 351.884 159.743 352.067 158.673ZM357.502 162.255C359.148 162.255 360.492 160.933 360.576 159.274C360.581 159.218 360.581 159.168 360.581 159.112C360.581 159.057 360.581 159.006 360.576 158.951C360.492 157.291 359.148 155.969 357.502 155.969C355.857 155.969 354.513 157.291 354.429 158.951C354.424 159.006 354.424 159.057 354.424 159.112C354.424 159.168 354.424 159.218 354.429 159.274C354.508 160.933 355.852 162.255 357.502 162.255Z" fill="#FF002E"/>
<circle cx="324.5" cy="376.5" r="6.5" fill="#FF002E"/>
<circle cx="382.5" cy="272.5" r="6.5" fill="#FF002E"/>
<path d="M328.5 365C328.5 365 356 303 376.5 283" stroke="#FF002E" stroke-width="5" stroke-linecap="round" stroke-linejoin="round" stroke-dasharray="10 10"/>
<circle cx="324.5" cy="376.5" r="3.5" fill="white"/>
<circle cx="382.5" cy="272.5" r="3.5" fill="white"/>
<path d="M377.067 254.673C377.457 252.418 379.206 250.627 381.405 250.128C381.648 250.073 381.657 250.052 382.023 250.022C382.389 249.992 382.606 249.997 382.868 250.012C383.13 250.027 383.189 250.052 383.348 250.083C385.22 250.426 386.609 251.455 387.444 253.195C388.057 254.467 388.2 255.788 387.686 257.145C387.311 258.144 386.807 259.072 386.248 259.965C385.304 261.479 384.237 262.896 383.105 264.269C382.908 264.511 382.7 264.748 382.493 265C382.433 264.934 382.389 264.889 382.349 264.839C381.381 263.703 380.462 262.523 379.607 261.292C378.816 260.152 378.08 258.982 377.516 257.7C377.091 256.732 376.884 255.743 377.067 254.673ZM382.502 258.255C384.148 258.255 385.492 256.933 385.576 255.274C385.581 255.218 385.581 255.168 385.581 255.112C385.581 255.057 385.581 255.006 385.576 254.951C385.492 253.291 384.148 251.969 382.502 251.969C380.857 251.969 379.513 253.291 379.429 254.951C379.424 255.006 379.424 255.057 379.424 255.112C379.424 255.168 379.424 255.218 379.429 255.274C379.508 256.933 380.852 258.255 382.502 258.255Z" fill="#FF002E"/>
<circle cx="513.5" cy="261.5" r="6.5" fill="#FF002E"/>
<circle cx="575.5" cy="253.5" r="6.5" fill="#FF002E"/>
<path d="M522 256.5C522 256.5 536.5 244 564 250.5" stroke="#FF002E" stroke-width="5" stroke-linecap="round" stroke-linejoin="round" stroke-dasharray="10 10"/>
<circle cx="513.5" cy="261.5" r="3.5" fill="white"/>
<circle cx="575.5" cy="253.5" r="3.5" fill="white"/>
<path d="M508.067 243.673C508.457 241.418 510.206 239.627 512.405 239.128C512.648 239.073 512.657 239.052 513.023 239.022C513.389 238.992 513.606 238.997 513.868 239.012C514.13 239.027 514.189 239.052 514.348 239.083C516.22 239.426 517.609 240.455 518.444 242.195C519.057 243.467 519.2 244.788 518.686 246.145C518.311 247.144 517.807 248.072 517.248 248.965C516.304 250.479 515.237 251.896 514.105 253.269C513.908 253.511 513.7 253.748 513.493 254C513.433 253.934 513.389 253.889 513.349 253.839C512.381 252.703 511.462 251.523 510.607 250.292C509.816 249.152 509.08 247.982 508.516 246.7C508.091 245.732 507.884 244.743 508.067 243.673ZM513.502 247.255C515.148 247.255 516.492 245.933 516.576 244.274C516.581 244.218 516.581 244.168 516.581 244.112C516.581 244.057 516.581 244.006 516.576 243.951C516.492 242.291 515.148 240.969 513.502 240.969C511.857 240.969 510.513 242.291 510.429 243.951C510.424 244.006 510.424 244.057 510.424 244.112C510.424 244.168 510.424 244.218 510.429 244.274C510.508 245.933 511.852 247.255 513.502 247.255Z" fill="#FF002E"/>
<circle cx="570.5" cy="76.5" r="6.5" fill="#FF002E"/>
<circle cx="632.5" cy="68.5" r="6.5" fill="#FF002E"/>
<path d="M579 71.5005C579 71.5005 593.5 58.9999 621 65.4999" stroke="#FF002E" stroke-width="5" stroke-linecap="round" stroke-linejoin="round" stroke-dasharray="10 10"/>
<circle cx="570.5" cy="76.5" r="3.5" fill="white"/>
<circle cx="632.5" cy="68.5" r="3.5" fill="white"/>
<path d="M565.067 58.6734C565.457 56.4184 567.206 54.6275 569.405 54.1281C569.648 54.0726 569.657 54.0524 570.023 54.0221C570.389 53.9919 570.606 53.9969 570.868 54.012C571.13 54.0272 571.189 54.0524 571.348 54.0827C573.22 54.4257 574.609 55.4548 575.444 57.1953C576.057 58.4666 576.2 59.7883 575.686 61.1453C575.311 62.1442 574.807 63.0724 574.248 63.9653C573.304 65.4788 572.237 66.8963 571.105 68.2685C570.908 68.5107 570.7 68.7478 570.493 69C570.433 68.9344 570.389 68.889 570.349 68.8386C569.381 67.7035 568.462 66.523 567.607 65.2921C566.816 64.152 566.08 62.9816 565.516 61.7002C565.091 60.7316 564.884 59.7429 565.067 58.6734ZM570.502 62.2552C572.148 62.2552 573.492 60.9334 573.576 59.2737C573.581 59.2182 573.581 59.1678 573.581 59.1123C573.581 59.0568 573.581 59.0063 573.576 58.9508C573.492 57.2911 572.148 55.9694 570.502 55.9694C568.857 55.9694 567.513 57.2911 567.429 58.9508C567.424 59.0063 567.424 59.0568 567.424 59.1123C567.424 59.1678 567.424 59.2182 567.429 59.2737C567.508 60.9334 568.852 62.2552 570.502 62.2552Z" fill="#FF002E"/>
<circle cx="206.5" cy="331.5" r="6.5" fill="#FF002E"/>
<circle cx="296.5" cy="302.5" r="6.5" fill="#FF002E"/>
<path d="M216 326.5C216 326.5 257.5 293 285 299.5" stroke="#FF002E" stroke-width="5" stroke-linecap="round" stroke-linejoin="round" stroke-dasharray="10 10"/>
<circle cx="206.5" cy="331.5" r="3.5" fill="white"/>
<circle cx="296.5" cy="302.5" r="3.5" fill="white"/>
<path d="M291.067 282.673C291.457 280.418 293.206 278.627 295.405 278.128C295.648 278.073 295.657 278.052 296.023 278.022C296.389 277.992 296.606 277.997 296.868 278.012C297.13 278.027 297.189 278.052 297.348 278.083C299.22 278.426 300.609 279.455 301.444 281.195C302.057 282.467 302.2 283.788 301.686 285.145C301.311 286.144 300.807 287.072 300.248 287.965C299.304 289.479 298.237 290.896 297.105 292.269C296.908 292.511 296.7 292.748 296.493 293C296.433 292.934 296.389 292.889 296.349 292.839C295.381 291.703 294.462 290.523 293.607 289.292C292.816 288.152 292.08 286.982 291.516 285.7C291.091 284.732 290.884 283.743 291.067 282.673ZM296.502 286.255C298.148 286.255 299.492 284.933 299.576 283.274C299.581 283.218 299.581 283.168 299.581 283.112C299.581 283.057 299.581 283.006 299.576 282.951C299.492 281.291 298.148 279.969 296.502 279.969C294.857 279.969 293.513 281.291 293.429 282.951C293.424 283.006 293.424 283.057 293.424 283.112C293.424 283.168 293.424 283.218 293.429 283.274C293.508 284.933 294.852 286.255 296.502 286.255Z" fill="#FF002E"/>
<circle cx="476.5" cy="498.5" r="6.5" fill="#FF002E"/>
<circle cx="560.5" cy="455.5" r="6.5" fill="#FF002E"/>
<path d="M486.5 495.5C501 463.5 529 439 550.5 452.5" stroke="#FF002E" stroke-width="5" stroke-linecap="round" stroke-linejoin="round" stroke-dasharray="10 10"/>
<circle cx="476.5" cy="498.5" r="3.5" fill="white"/>
<circle cx="560.5" cy="455.5" r="3.5" fill="white"/>
<path d="M471.067 478.674C471.457 476.419 473.206 474.628 475.405 474.129C475.648 474.073 475.657 474.053 476.023 474.023C476.389 473.992 476.606 473.997 476.868 474.013C477.13 474.028 477.189 474.053 477.348 474.083C479.22 474.426 480.609 475.455 481.444 477.196C482.057 478.467 482.2 479.789 481.686 481.146C481.311 482.145 480.807 483.073 480.248 483.966C479.304 485.479 478.237 486.897 477.105 488.269C476.908 488.511 476.7 488.748 476.493 489C476.433 488.935 476.389 488.89 476.349 488.839C475.381 487.704 474.462 486.524 473.607 485.293C472.816 484.152 472.08 482.982 471.516 481.701C471.091 480.732 470.884 479.743 471.067 478.674ZM476.502 482.256C478.148 482.256 479.492 480.934 479.576 479.274C479.581 479.219 479.581 479.168 479.581 479.113C479.581 479.057 479.581 479.007 479.576 478.951C479.492 477.292 478.148 475.97 476.502 475.97C474.857 475.97 473.513 477.292 473.429 478.951C473.424 479.007 473.424 479.057 473.424 479.113C473.424 479.168 473.424 479.219 473.429 479.274C473.508 480.934 474.852 482.256 476.502 482.256Z" fill="#FF002E"/>
</svg>
